<svg preserveAspectRatio="none" width="100%" height="100%" overflow="visible" style="display: block;" viewBox="0 0 20 19" fill="none" xmlns="http://www.w3.org/2000/svg">
<g id="Container">
<path id="Icon" d="M5 19C3.61667 19 2.4375 18.5125 1.4625 17.5375C0.4875 16.5625 0 15.3833 0 14C0 12.7833 0.379167 11.7208 1.1375 10.8125C1.89583 9.90417 2.85 9.33333 4 9.1V11.175C3.41667 11.375 2.9375 11.7333 2.5625 12.25C2.1875 12.7667 2 13.35 2 14C2 14.8333 2.29167 15.5417 2.875 16.125C3.45833 16.7083 4.16667 17 5 17C5.83333 17 6.54167 16.7083 7.125 16.125C7.70833 15.5417 8 14.8333 8 14V13H13.875C14.0083 12.85 14.1708 12.7292 14.3625 12.6375C14.5542 12.5458 14.7667 12.5 15 12.5C15.4167 12.5 15.7708 12.6458 16.0625 12.9375C16.3542 13.2292 16.5 13.5833 16.5 14C16.5 14.4167 16.3542 14.7708 16.0625 15.0625C15.7708 15.3542 15.4167 15.5 15 15.5C14.7667 15.5 14.5542 15.4542 14.3625 15.3625C14.1708 15.2708 14.0083 15.15 13.875 15H9.9C9.66667 16.15 9.09583 17.1042 8.1875 17.8625C7.27917 18.6208 6.21667 19 5 19V19M15 19C14.0667 19 13.2208 18.7708 12.4625 18.3125C11.7042 17.8542 11.1083 17.25 10.675 16.5H13.35C13.5833 16.6667 13.8417 16.7917 14.125 16.875C14.4083 16.9583 14.7 17 15 17C15.8333 17 16.5417 16.7083 17.125 16.125C17.7083 15.5417 18 14.8333 18 14C18 13.1667 17.7083 12.4583 17.125 11.875C16.5417 11.2917 15.8333 11 15 11C14.6667 11 14.3583 11.0458 14.075 11.1375C13.7917 11.2292 13.525 11.3667 13.275 11.55L10.225 6.475C9.875 6.40833 9.58333 6.24167 9.35 5.975C9.11667 5.70833 9 5.38333 9 5C9 4.58333 9.14583 4.22917 9.4375 3.9375C9.72917 3.64583 10.0833 3.5 10.5 3.5C10.9167 3.5 11.2708 3.64583 11.5625 3.9375C11.8542 4.22917 12 4.58333 12 5C12 5.08333 12 5.15417 12 5.2125C12 5.27083 11.9833 5.34167 11.95 5.425L14.125 9.075C14.2583 9.04167 14.4 9.02083 14.55 9.0125C14.7 9.00417 14.85 9 15 9C16.3833 9 17.5625 9.4875 18.5375 10.4625C19.5125 11.4375 20 12.6167 20 14C20 15.3833 19.5125 16.5625 18.5375 17.5375C17.5625 18.5125 16.3833 19 15 19V19M5 15.5C4.58333 15.5 4.22917 15.3542 3.9375 15.0625C3.64583 14.7708 3.5 14.4167 3.5 14C3.5 13.6333 3.61667 13.3167 3.85 13.05C4.08333 12.7833 4.36667 12.6083 4.7 12.525L7.05 8.625C6.56667 8.175 6.1875 7.6375 5.9125 7.0125C5.6375 6.3875 5.5 5.71667 5.5 5C5.5 3.61667 5.9875 2.4375 6.9625 1.4625C7.9375 0.4875 9.11667 0 10.5 0C11.8833 0 13.0625 0.4875 14.0375 1.4625C15.0125 2.4375 15.5 3.61667 15.5 5H13.5C13.5 4.16667 13.2083 3.45833 12.625 2.875C12.0417 2.29167 11.3333 2 10.5 2C9.66667 2 8.95833 2.29167 8.375 2.875C7.79167 3.45833 7.5 4.16667 7.5 5C7.5 5.71667 7.71667 6.34583 8.15 6.8875C8.58333 7.42917 9.13333 7.775 9.8 7.925L6.425 13.55C6.45833 13.6333 6.47917 13.7083 6.4875 13.775C6.49583 13.8417 6.5 13.9167 6.5 14C6.5 14.4167 6.35417 14.7708 6.0625 15.0625C5.77083 15.3542 5.41667 15.5 5 15.5V15.5" fill="var(--fill-0, #005AB6)"/>
</g>
</svg>
