<svg preserveAspectRatio="none" width="100%" height="100%" overflow="visible" style="display: block;" viewBox="0 0 19 17.988" fill="none" xmlns="http://www.w3.org/2000/svg">
<g id="Container">
<path id="Icon" d="M4 17.988C3.25 17.988 2.50833 17.8047 1.775 17.438C1.04167 17.0713 0.45 16.588 0 15.988C0.433333 15.988 0.875 15.8172 1.325 15.4755C1.775 15.1338 2 14.638 2 13.988C2 13.1547 2.29167 12.4463 2.875 11.863C3.45833 11.2797 4.16667 10.988 5 10.988C5.83333 10.988 6.54167 11.2797 7.125 11.863C7.70833 12.4463 8 13.1547 8 13.988C8 15.088 7.60833 16.0297 6.825 16.813C6.04167 17.5963 5.1 17.988 4 17.988V17.988M4 15.988C4.55 15.988 5.02083 15.7922 5.4125 15.4005C5.80417 15.0088 6 14.538 6 13.988C6 13.7047 5.90417 13.4672 5.7125 13.2755C5.52083 13.0838 5.28333 12.988 5 12.988C4.71667 12.988 4.47917 13.0838 4.2875 13.2755C4.09583 13.4672 4 13.7047 4 13.988C4 14.3713 3.95417 14.7213 3.8625 15.038C3.77083 15.3547 3.65 15.6547 3.5 15.938C3.58333 15.9713 3.66667 15.988 3.75 15.988C3.83333 15.988 3.91667 15.988 4 15.988V15.988M9.75 11.988L7 9.238L15.95 0.288C16.1333 0.104667 16.3625 0.00883333 16.6375 0.0005C16.9125 -0.00783333 17.15 0.088 17.35 0.288L18.7 1.638C18.9 1.838 19 2.07133 19 2.338C19 2.60467 18.9 2.838 18.7 3.038L9.75 11.988V11.988M5 13.988V13.988V13.988V13.988V13.988V13.988V13.988V13.988V13.988V13.988V13.988V13.988" fill="var(--fill-0, white)"/>
</g>
</svg>
