<svg preserveAspectRatio="none" width="100%" height="100%" overflow="visible" style="display: block;" viewBox="0 0 18 18" fill="none" xmlns="http://www.w3.org/2000/svg">
<path id="Icon" d="M8 18V12H10V14H18V16H10V18H8V18M0 16V14H6V16H0V16M4 12V10H0V8H4V6H6V12H4V12M8 10V8H18V10H8V10M12 6V0H14V2H18V4H14V6H12V6M0 4V2H10V4H0V4" fill="url(#paint0_linear_0_5)"/>
<defs>
<linearGradient id="paint0_linear_0_5" x1="9" y1="0" x2="9" y2="18" gradientUnits="userSpaceOnUse">
<stop stop-color="#2864E4"/>
<stop offset="1" stop-color="#ECF2FF"/>
</linearGradient>
</defs>
</svg>
