<svg width="48" height="48" viewBox="0 0 48 48" fill="none" xmlns="http://www.w3.org/2000/svg">
<rect x="0.5" y="0.5" width="47" height="47" rx="9.5" stroke="white" stroke-opacity="0.1"/>
<path d="M17.3077 33.5577C16.8026 33.5577 16.375 33.3827 16.025 33.0327C15.675 32.6827 15.5 32.2551 15.5 31.75V18.3655C15.5 17.8603 15.675 17.4328 16.025 17.0828C16.375 16.7328 16.8026 16.5578 17.3077 16.5578H18.6923V14.4424H20.2307V16.5578H27.8076V14.4424H29.3076V16.5578H30.6922C31.1974 16.5578 31.6249 16.7328 31.9749 17.0828C32.3249 17.4328 32.4999 17.8603 32.4999 18.3655V31.75C32.4999 32.2551 32.3249 32.6827 31.9749 33.0327C31.6249 33.3827 31.1974 33.5577 30.6922 33.5577H17.3077ZM17.3077 32.0577H30.6922C30.7692 32.0577 30.8397 32.0257 30.9038 31.9616C30.9679 31.8975 31 31.827 31 31.75V22.3655H17V31.75C17 31.827 17.032 31.8975 17.0961 31.9616C17.1602 32.0257 17.2307 32.0577 17.3077 32.0577ZM17 20.8655H31V18.3655C31 18.2885 30.9679 18.218 30.9038 18.1539C30.8397 18.0898 30.7692 18.0577 30.6922 18.0577H17.3077C17.2307 18.0577 17.1602 18.0898 17.0961 18.1539C17.032 18.218 17 18.2885 17 18.3655V20.8655ZM17 20.8655V18.3655C17 18.2885 17 18.218 17 18.1539C17 18.0898 17 18.0577 17 18.0577C17 18.0577 17 18.0898 17 18.1539C17 18.218 17 18.2885 17 18.3655V20.8655Z" fill="url(#paint0_linear_500_7358)"/>
<defs>
<linearGradient id="paint0_linear_500_7358" x1="24" y1="14.4424" x2="24" y2="33.5577" gradientUnits="userSpaceOnUse">
<stop stop-color="#2864E4"/>
<stop offset="1" stop-color="#ECF2FF"/>
</linearGradient>
</defs>
</svg>
