<svg width="48" height="48" viewBox="0 0 48 48" fill="none" xmlns="http://www.w3.org/2000/svg">
<rect x="0.5" y="0.5" width="47" height="47" rx="9.5" stroke="white" stroke-opacity="0.1"/>
<path d="M15.5 26V24.5H22.5V26H15.5ZM15.5 22V20.5H26.5V22H15.5ZM15.5 18V16.5H26.5V18H15.5ZM24.1154 31.4999V28.8577L29.5442 23.4538C29.6686 23.3295 29.8028 23.242 29.947 23.1913C30.0911 23.1407 30.2353 23.1154 30.3794 23.1154C30.5367 23.1154 30.6888 23.1448 30.8357 23.2038C30.9827 23.2628 31.1163 23.3512 31.2365 23.4692L32.1615 24.4038C32.2692 24.5282 32.3525 24.6628 32.4115 24.8077C32.4704 24.9525 32.4999 25.0974 32.4999 25.2423C32.4999 25.3871 32.473 25.5346 32.4192 25.6846C32.3653 25.8346 32.2794 25.9717 32.1615 26.0961L26.7576 31.4999H24.1154ZM25.3076 30.3076H26.2576L29.5038 27.0461L29.0442 26.5711L28.5788 26.1019L25.3076 29.3576V30.3076ZM29.0442 26.5711L28.5788 26.1019L29.5038 27.0461L29.0442 26.5711Z" fill="url(#paint0_linear_500_7423)"/>
<defs>
<linearGradient id="paint0_linear_500_7423" x1="24" y1="16.5" x2="24" y2="31.4999" gradientUnits="userSpaceOnUse">
<stop stop-color="#2864E4"/>
<stop offset="1" stop-color="#ECF2FF"/>
</linearGradient>
</defs>
</svg>
