<svg width="48" height="48" viewBox="0 0 48 48" fill="none" xmlns="http://www.w3.org/2000/svg">
<rect x="0.5" y="0.5" width="47" height="47" rx="9.5" stroke="white" stroke-opacity="0.1"/>
<path d="M16.3077 31.4999C15.8026 31.4999 15.375 31.3249 15.025 30.9749C14.675 30.6249 14.5 30.1974 14.5 29.6922V18.3077C14.5 17.8026 14.675 17.375 15.025 17.025C15.375 16.675 15.8026 16.5 16.3077 16.5H31.6922C32.1974 16.5 32.6249 16.675 32.9749 17.025C33.3249 17.375 33.4999 17.8026 33.4999 18.3077V29.6922C33.4999 30.1974 33.3249 30.6249 32.9749 30.9749C32.6249 31.3249 32.1974 31.4999 31.6922 31.4999H16.3077ZM16.3077 30H31.6922C31.7692 30 31.8397 29.9679 31.9038 29.9038C31.9679 29.8397 32 29.7692 32 29.6922V20H16V29.6922C16 29.7692 16.032 29.8397 16.0961 29.9038C16.1602 29.9679 16.2307 30 16.3077 30ZM19.5 28.6442L18.4558 27.6L21.0308 25L18.4308 22.4L19.5 21.3558L23.1442 25L19.5 28.6442ZM24.25 28.7499V27.25H29.7499V28.7499H24.25Z" fill="url(#paint0_linear_500_7352)"/>
<defs>
<linearGradient id="paint0_linear_500_7352" x1="24" y1="16.5" x2="24" y2="31.4999" gradientUnits="userSpaceOnUse">
<stop stop-color="#2864E4"/>
<stop offset="1" stop-color="#ECF2FF"/>
</linearGradient>
</defs>
</svg>
