<svg width="48" height="48" viewBox="0 0 48 48" fill="none" xmlns="http://www.w3.org/2000/svg">
<rect x="0.5" y="0.5" width="47" height="47" rx="9.5" stroke="white" stroke-opacity="0.1"/>
<path d="M15.7308 26.1403L14.5096 25.2634L19.1346 17.85L22.0769 21.2923L25.9808 14.9365L28.9231 19.3596L32.2884 14L33.4903 14.8865L28.9538 22.1115L26.0365 17.7134L22.2846 23.8211L19.3269 20.3634L15.7308 26.1403ZM27.3174 30.5C28.0686 30.5 28.7035 30.2406 29.2221 29.7219C29.7407 29.2033 30 28.5683 30 27.8171C30 27.0659 29.7406 26.431 29.222 25.9124C28.7033 25.3938 28.0683 25.1346 27.3171 25.1346C26.566 25.1346 25.9311 25.3939 25.4125 25.9126C24.8939 26.4313 24.6346 27.0662 24.6346 27.8174C24.6346 28.5686 24.8939 29.2035 25.4126 29.7221C25.9313 30.2407 26.5662 30.5 27.3174 30.5ZM32.4461 33.9999L29.6884 31.2422C29.3513 31.4884 28.9817 31.6762 28.5798 31.8057C28.1779 31.9352 27.757 31.9999 27.3173 31.9999C26.1554 31.9999 25.1679 31.5934 24.3546 30.7805C23.5413 29.9675 23.1346 28.9803 23.1346 27.819C23.1346 26.6576 23.5411 25.6698 24.3541 24.8557C25.167 24.0416 26.1542 23.6346 27.3156 23.6346C28.477 23.6346 29.4647 24.0412 30.2788 24.8545C31.0929 25.6678 31.5 26.6554 31.5 27.8173C31.5 28.257 31.4352 28.6794 31.3057 29.0846C31.1762 29.4897 30.9884 29.8608 30.7423 30.198L33.4903 32.9557L32.4461 33.9999Z" fill="url(#paint0_linear_500_7400)"/>
<defs>
<linearGradient id="paint0_linear_500_7400" x1="24" y1="14" x2="24" y2="33.9999" gradientUnits="userSpaceOnUse">
<stop stop-color="#2864E4"/>
<stop offset="1" stop-color="#ECF2FF"/>
</linearGradient>
</defs>
</svg>
