<svg width="48" height="48" viewBox="0 0 48 48" fill="none" xmlns="http://www.w3.org/2000/svg">
<rect width="48" height="48" rx="12" fill="#56CCF2"/>
<path d="M18.5 32.9939C17.75 32.9939 17.0083 32.8105 16.275 32.4439C15.5417 32.0772 14.95 31.5939 14.5 30.9939C14.9333 30.9939 15.375 30.823 15.825 30.4814C16.275 30.1397 16.5 29.6439 16.5 28.9939C16.5 28.1605 16.7917 27.4522 17.375 26.8689C17.9583 26.2855 18.6667 25.9939 19.5 25.9939C20.3333 25.9939 21.0417 26.2855 21.625 26.8689C22.2083 27.4522 22.5 28.1605 22.5 28.9939C22.5 30.0939 22.1083 31.0355 21.325 31.8189C20.5417 32.6022 19.6 32.9939 18.5 32.9939ZM18.5 30.9939C19.05 30.9939 19.5208 30.798 19.9125 30.4064C20.3042 30.0147 20.5 29.5439 20.5 28.9939C20.5 28.7105 20.4042 28.473 20.2125 28.2814C20.0208 28.0897 19.7833 27.9939 19.5 27.9939C19.2167 27.9939 18.9792 28.0897 18.7875 28.2814C18.5958 28.473 18.5 28.7105 18.5 28.9939C18.5 29.3772 18.4542 29.7272 18.3625 30.0439C18.2708 30.3605 18.15 30.6605 18 30.9439C18.0833 30.9772 18.1667 30.9939 18.25 30.9939C18.3333 30.9939 18.4167 30.9939 18.5 30.9939ZM24.25 26.9939L21.5 24.2439L30.45 15.2939C30.6333 15.1105 30.8625 15.0147 31.1375 15.0064C31.4125 14.998 31.65 15.0939 31.85 15.2939L33.2 16.6439C33.4 16.8439 33.5 17.0772 33.5 17.3439C33.5 17.6105 33.4 17.8439 33.2 18.0439L24.25 26.9939Z" fill="white"/>
</svg>
