<svg width="40" height="40" viewBox="0 0 40 40" fill="none" xmlns="http://www.w3.org/2000/svg">
<rect width="40" height="40" rx="8" fill="#2F80ED" fill-opacity="0.1"/>
<path d="M27 17L25.75 14.25L23 13L25.75 11.75L27 9L28.25 11.75L31 13L28.25 14.25L27 17ZM27 31L25.75 28.25L23 27L25.75 25.75L27 23L28.25 25.75L31 27L28.25 28.25L27 31ZM17 28L14.5 22.5L9 20L14.5 17.5L17 12L19.5 17.5L25 20L19.5 22.5L17 28ZM17 23.15L18 21L20.15 20L18 19L17 16.85L16 19L13.85 20L16 21L17 23.15Z" fill="#2F80ED"/>
</svg>
