<svg preserveAspectRatio="none" width="100%" height="100%" overflow="visible" style="display: block;" viewBox="0 0 2400.92 1830.71" fill="none" xmlns="http://www.w3.org/2000/svg">
<g id="Group 1000005054">
<mask id="mask0_0_16" style="mask-type:alpha" maskUnits="userSpaceOnUse" x="-1" y="0" width="2403" height="1832">
<path id="Vector" d="M0.235916 0.943664V1830.71M50.2501 0.943664V1830.71M100.264 0.943664V1830.71M150.278 0.943664V1830.71M200.293 0.943664V1830.71M250.307 0.943664V1830.71M300.321 0.943664V1830.71M350.335 0.943664V1830.71M400.349 0.943664V1830.71M450.364 0.943664V1830.71M500.378 0.943664V1830.71M550.392 0.943664V1830.71M600.406 0.943664V1830.71M650.42 0.943664V1830.71M700.434 0.943664V1830.71M750.449 0.943664V1830.71M800.463 0.943664V1830.71M850.477 0.943664V1830.71M900.491 0.943664V1830.71M950.505 0.943664V1830.71M1000.52 0.943664V1830.71M1050.53 0.943664V1830.71M1100.55 0.943664V1830.71M1150.56 0.943664V1830.71M1200.58 0.943664V1830.71M1250.59 0.943664V1830.71M1300.6 0.943664V1830.71M1350.62 0.943664V1830.71M1400.63 0.943664V1830.71M1450.65 0.943664V1830.71M1500.66 0.943664V1830.71M1550.68 0.943664V1830.71M1600.69 0.943664V1830.71M1650.7 0.943664V1830.71M1700.72 0.943664V1830.71M1750.73 0.943664V1830.71M1800.75 0.943664V1830.71M1850.76 0.943664V1830.71M1900.77 0.943664V1830.71M1950.79 0.943664V1830.71M2000.8 0.943664V1830.71M2050.82 0.943664V1830.71M2100.83 0.943664V1830.71M2150.85 0.943664V1830.71M2200.86 0.943664V1830.71M2250.87 0.943664V1830.71M2300.89 0.943664V1830.71M2350.9 0.943664V1830.71M2400.92 0.943664V1830.71M0 1830.47H2400.68M0 1779.64H2400.68M0 1728.82H2400.68M0 1677.99H2400.68M0 1627.16H2400.68M0 1576.34H2400.68M0 1525.51H2400.68M0 1474.68H2400.68M0 1423.86H2400.68M0 1373.03H2400.68M0 1322.2H2400.68M0 1271.38H2400.68M0 1220.55H2400.68M0 1169.72H2400.68M0 1118.9H2400.68M0 1068.07H2400.68M0 1017.24H2400.68M0 966.417H2400.68M0 915.59H2400.68M0 864.763H2400.68M0 813.936H2400.68M0 763.11H2400.68M0 712.283H2400.68M0 661.456H2400.68M0 610.629H2400.68M0 559.802H2400.68M0 508.976H2400.68M0 458.149H2400.68M0 407.322H2400.68M0 356.495H2400.68M0 305.669H2400.68M0 254.842H2400.68M0 204.015H2400.68M0 153.188H2400.68M0 102.361H2400.68M0 51.5346H2400.68M0 0.707748H2400.68" stroke="var(--stroke-0, white)" stroke-opacity="0.47" stroke-width="1.4155"/>
</mask>
<g mask="url(#mask0_0_16)">
<g id="Ellipse 2458" filter="url(#filter0_f_0_16)">
<circle cx="1207" cy="442.708" r="187" fill="var(--fill-0, #7AA8FF)"/>
</g>
</g>
</g>
<defs>
<filter id="filter0_f_0_16" x="570" y="-194.292" width="1274" height="1274" filterUnits="userSpaceOnUse" color-interpolation-filters="sRGB">
<feFlood flood-opacity="0" result="BackgroundImageFix"/>
<feBlend mode="normal" in="SourceGraphic" in2="BackgroundImageFix" result="shape"/>
<feGaussianBlur stdDeviation="225" result="effect1_foregroundBlur_0_16"/>
</filter>
</defs>
</svg>
