<svg preserveAspectRatio="none" width="100%" height="100%" overflow="visible" style="display: block;" viewBox="0 0 10.5 10.5" fill="none" xmlns="http://www.w3.org/2000/svg">
<g id="Container">
<path id="Icon" d="M5.25 10.5C3.78194 10.5 2.53993 10.274 1.52396 9.82187C0.507986 9.36979 0 8.81806 0 8.16667V2.33333C0 1.69167 0.512847 1.14236 1.53854 0.685417C2.56424 0.228472 3.80139 0 5.25 0C6.69861 0 7.93576 0.228472 8.96146 0.685417C9.98715 1.14236 10.5 1.69167 10.5 2.33333V8.16667C10.5 8.81806 9.99201 9.36979 8.97604 9.82187C7.96007 10.274 6.71806 10.5 5.25 10.5V10.5M5.25 3.51458C6.11528 3.51458 6.98542 3.39062 7.86042 3.14271C8.73542 2.89479 9.22639 2.62986 9.33333 2.34792C9.22639 2.06597 8.73785 1.79861 7.86771 1.54583C6.99757 1.29306 6.125 1.16667 5.25 1.16667C4.36528 1.16667 3.49757 1.29063 2.64687 1.53854C1.79618 1.78646 1.30278 2.05625 1.16667 2.34792C1.30278 2.63958 1.79618 2.90694 2.64687 3.15C3.49757 3.39306 4.36528 3.51458 5.25 3.51458V3.51458M5.25 6.41667C5.65833 6.41667 6.05208 6.39722 6.43125 6.35833C6.81042 6.31944 7.17257 6.26354 7.51771 6.19063C7.86285 6.11771 8.18854 6.02778 8.49479 5.92083C8.80104 5.81389 9.08056 5.69236 9.33333 5.55625V3.80625C9.08056 3.94236 8.80104 4.06389 8.49479 4.17083C8.18854 4.27778 7.86285 4.36771 7.51771 4.44063C7.17257 4.51354 6.81042 4.56944 6.43125 4.60833C6.05208 4.64722 5.65833 4.66667 5.25 4.66667C4.84167 4.66667 4.44306 4.64722 4.05417 4.60833C3.66528 4.56944 3.29826 4.51354 2.95312 4.44063C2.60799 4.36771 2.28472 4.27778 1.98333 4.17083C1.68194 4.06389 1.40972 3.94236 1.16667 3.80625V5.55625C1.40972 5.69236 1.68194 5.81389 1.98333 5.92083C2.28472 6.02778 2.60799 6.11771 2.95312 6.19063C3.29826 6.26354 3.66528 6.31944 4.05417 6.35833C4.44306 6.39722 4.84167 6.41667 5.25 6.41667V6.41667M5.25 9.33333C5.69722 9.33333 6.15174 9.29931 6.61354 9.23125C7.07535 9.16319 7.50069 9.07326 7.88958 8.96146C8.27847 8.84965 8.60417 8.72326 8.86667 8.58229C9.12917 8.44132 9.28472 8.29792 9.33333 8.15208V6.72292C9.08056 6.85903 8.80104 6.98056 8.49479 7.0875C8.18854 7.19444 7.86285 7.28438 7.51771 7.35729C7.17257 7.43021 6.81042 7.48611 6.43125 7.525C6.05208 7.56389 5.65833 7.58333 5.25 7.58333C4.84167 7.58333 4.44306 7.56389 4.05417 7.525C3.66528 7.48611 3.29826 7.43021 2.95312 7.35729C2.60799 7.28438 2.28472 7.19444 1.98333 7.0875C1.68194 6.98056 1.40972 6.85903 1.16667 6.72292V8.16667C1.21528 8.3125 1.3684 8.45347 1.62604 8.58958C1.88368 8.72569 2.20694 8.84965 2.59583 8.96146C2.98472 9.07326 3.4125 9.16319 3.87917 9.23125C4.34583 9.29931 4.80278 9.33333 5.25 9.33333V9.33333" fill="var(--fill-0, #60A5FA)"/>
</g>
</svg>
