<svg preserveAspectRatio="none" width="100%" height="100%" overflow="visible" style="display: block;" viewBox="0 0 11.6667 10.5" fill="none" xmlns="http://www.w3.org/2000/svg">
<g id="Container">
<path id="Icon" d="M7.58333 10.5V8.75H5.25V2.91667H4.08333V4.66667H0V0H4.08333V1.75H7.58333V0H11.6667V4.66667H7.58333V2.91667H6.41667V7.58333H7.58333V5.83333H11.6667V10.5H7.58333V10.5M1.16667 1.16667V1.16667V3.5V3.5V1.16667V1.16667M8.75 7V7V9.33333V9.33333V7V7M8.75 1.16667V1.16667V3.5V3.5V1.16667V1.16667M8.75 3.5H10.5V1.16667H8.75V3.5V3.5M8.75 9.33333H10.5V7H8.75V9.33333V9.33333M1.16667 3.5H2.91667V1.16667H1.16667V3.5V3.5" fill="var(--fill-0, #CBD5E1)"/>
</g>
</svg>
