<svg preserveAspectRatio="none" width="100%" height="100%" overflow="visible" style="display: block;" viewBox="0 0 11 11" fill="none" xmlns="http://www.w3.org/2000/svg">
<g id="Container">
<path id="Icon" d="M9 4L8.375 2.625L7 2L8.375 1.375L9 0L9.625 1.375L11 2L9.625 2.625L9 4V4M9 11L8.375 9.625L7 9L8.375 8.375L9 7L9.625 8.375L11 9L9.625 9.625L9 11V11M4 9.5L2.75 6.75L0 5.5L2.75 4.25L4 1.5L5.25 4.25L8 5.5L5.25 6.75L4 9.5V9.5M4 7.075L4.5 6L5.575 5.5L4.5 5L4 3.925L3.5 5L2.425 5.5L3.5 6L4 7.075V7.075M4 5.5V5.5V5.5V5.5V5.5V5.5V5.5V5.5V5.5V5.5" fill="var(--fill-0, #93C5FD)"/>
</g>
</svg>
