<svg width="64" height="64" viewBox="0 0 64 64" fill="none" xmlns="http://www.w3.org/2000/svg">
<rect width="64" height="64" rx="16" fill="#D7E3FF"/>
<path d="M20.75 42.625C20.0625 42.625 19.474 42.3802 18.9844 41.8906C18.4948 41.401 18.25 40.8125 18.25 40.125C18.25 39.4375 18.4948 38.849 18.9844 38.3594C19.474 37.8698 20.0625 37.625 20.75 37.625C20.875 37.625 20.9844 37.625 21.0781 37.625C21.1719 37.625 21.2708 37.6458 21.375 37.6875L27.0625 32C27.0208 31.8958 27 31.7969 27 31.7031C27 31.6094 27 31.5 27 31.375C27 30.6875 27.2448 30.099 27.7344 29.6094C28.224 29.1198 28.8125 28.875 29.5 28.875C30.1875 28.875 30.776 29.1198 31.2656 29.6094C31.7552 30.099 32 30.6875 32 31.375C32 31.4167 31.9792 31.625 31.9375 32L35.125 35.1875C35.2292 35.1458 35.3281 35.125 35.4219 35.125C35.5156 35.125 35.625 35.125 35.75 35.125C35.875 35.125 35.9844 35.125 36.0781 35.125C36.1719 35.125 36.2708 35.1458 36.375 35.1875L40.8125 30.75C40.7708 30.6458 40.75 30.5469 40.75 30.4531C40.75 30.3594 40.75 30.25 40.75 30.125C40.75 29.4375 40.9948 28.849 41.4844 28.3594C41.974 27.8698 42.5625 27.625 43.25 27.625C43.9375 27.625 44.526 27.8698 45.0156 28.3594C45.5052 28.849 45.75 29.4375 45.75 30.125C45.75 30.8125 45.5052 31.401 45.0156 31.8906C44.526 32.3802 43.9375 32.625 43.25 32.625C43.125 32.625 43.0156 32.625 42.9219 32.625C42.8281 32.625 42.7292 32.6042 42.625 32.5625L38.1875 37C38.2292 37.1042 38.25 37.2031 38.25 37.2969C38.25 37.3906 38.25 37.5 38.25 37.625C38.25 38.3125 38.0052 38.901 37.5156 39.3906C37.026 39.8802 36.4375 40.125 35.75 40.125C35.0625 40.125 34.474 39.8802 33.9844 39.3906C33.4948 38.901 33.25 38.3125 33.25 37.625C33.25 37.5 33.25 37.3906 33.25 37.2969C33.25 37.2031 33.2708 37.1042 33.3125 37L30.125 33.8125C30.0208 33.8542 29.9219 33.875 29.8281 33.875C29.7344 33.875 29.625 33.875 29.5 33.875C29.4583 33.875 29.25 33.8542 28.875 33.8125L23.1875 39.5C23.2292 39.6042 23.25 39.7031 23.25 39.7969C23.25 39.8906 23.25 40 23.25 40.125C23.25 40.8125 23.0052 41.401 22.5156 41.8906C22.026 42.3802 21.4375 42.625 20.75 42.625ZM22 30.0938L21.2188 28.4062L19.5312 27.625L21.2188 26.8438L22 25.1562L22.7812 26.8438L24.4688 27.625L22.7812 28.4062L22 30.0938ZM35.75 28.875L34.5625 26.3125L32 25.125L34.5625 23.9375L35.75 21.375L36.9375 23.9375L39.5 25.125L36.9375 26.3125L35.75 28.875Z" fill="url(#paint0_linear_506_3707)"/>
<defs>
<linearGradient id="paint0_linear_506_3707" x1="32" y1="21.375" x2="32" y2="42.625" gradientUnits="userSpaceOnUse">
<stop stop-color="#2864E4"/>
<stop offset="1" stop-color="#ECF2FF"/>
</linearGradient>
</defs>
</svg>
