<svg width="56" height="56" viewBox="0 0 56 56" fill="none" xmlns="http://www.w3.org/2000/svg">
<rect width="56" height="56" rx="12" fill="#D7E3FF"/>
<path d="M20.5 42.375C19.4583 42.375 18.5729 42.0104 17.8438 41.2812C17.1146 40.5521 16.75 39.6667 16.75 38.625C16.75 37.5833 17.1146 36.6979 17.8438 35.9688C18.5729 35.2396 19.4583 34.875 20.5 34.875C20.7917 34.875 21.0625 34.9062 21.3125 34.9688C21.5625 35.0312 21.8021 35.1146 22.0312 35.2188L23.8125 33C23.2292 32.3542 22.8229 31.625 22.5938 30.8125C22.3646 30 22.3125 29.1875 22.4375 28.375L19.9062 27.5312C19.5521 28.0521 19.1042 28.4688 18.5625 28.7812C18.0208 29.0938 17.4167 29.25 16.75 29.25C15.7083 29.25 14.8229 28.8854 14.0938 28.1562C13.3646 27.4271 13 26.5417 13 25.5C13 24.4583 13.3646 23.5729 14.0938 22.8438C14.8229 22.1146 15.7083 21.75 16.75 21.75C17.7917 21.75 18.6771 22.1146 19.4062 22.8438C20.1354 23.5729 20.5 24.4583 20.5 25.5C20.5 25.5417 20.5 25.5833 20.5 25.625C20.5 25.6667 20.5 25.7083 20.5 25.75L23.0312 26.625C23.4479 25.875 24.0052 25.2396 24.7031 24.7188C25.401 24.1979 26.1875 23.8646 27.0625 23.7188V21C26.25 20.7708 25.5781 20.3281 25.0469 19.6719C24.5156 19.0156 24.25 18.25 24.25 17.375C24.25 16.3333 24.6146 15.4479 25.3438 14.7188C26.0729 13.9896 26.9583 13.625 28 13.625C29.0417 13.625 29.9271 13.9896 30.6562 14.7188C31.3854 15.4479 31.75 16.3333 31.75 17.375C31.75 18.25 31.4792 19.0156 30.9375 19.6719C30.3958 20.3281 29.7292 20.7708 28.9375 21V23.7188C29.8125 23.8646 30.599 24.1979 31.2969 24.7188C31.9948 25.2396 32.5521 25.875 32.9688 26.625L35.5 25.75C35.5 25.7083 35.5 25.6667 35.5 25.625C35.5 25.5833 35.5 25.5417 35.5 25.5C35.5 24.4583 35.8646 23.5729 36.5938 22.8438C37.3229 22.1146 38.2083 21.75 39.25 21.75C40.2917 21.75 41.1771 22.1146 41.9062 22.8438C42.6354 23.5729 43 24.4583 43 25.5C43 26.5417 42.6354 27.4271 41.9062 28.1562C41.1771 28.8854 40.2917 29.25 39.25 29.25C38.5833 29.25 37.974 29.0938 37.4219 28.7812C36.8698 28.4688 36.4271 28.0521 36.0938 27.5312L33.5625 28.375C33.6875 29.1875 33.6354 29.9948 33.4062 30.7969C33.1771 31.599 32.7708 32.3333 32.1875 33L33.9688 35.1875C34.1979 35.0833 34.4375 35.0052 34.6875 34.9531C34.9375 34.901 35.2083 34.875 35.5 34.875C36.5417 34.875 37.4271 35.2396 38.1562 35.9688C38.8854 36.6979 39.25 37.5833 39.25 38.625C39.25 39.6667 38.8854 40.5521 38.1562 41.2812C37.4271 42.0104 36.5417 42.375 35.5 42.375C34.4583 42.375 33.5729 42.0104 32.8438 41.2812C32.1146 40.5521 31.75 39.6667 31.75 38.625C31.75 38.2083 31.8177 37.8073 31.9531 37.4219C32.0885 37.0365 32.2708 36.6875 32.5 36.375L30.7188 34.1562C29.8646 34.6354 28.9531 34.875 27.9844 34.875C27.0156 34.875 26.1042 34.6354 25.25 34.1562L23.5 36.375C23.7292 36.6875 23.9115 37.0365 24.0469 37.4219C24.1823 37.8073 24.25 38.2083 24.25 38.625C24.25 39.6667 23.8854 40.5521 23.1562 41.2812C22.4271 42.0104 21.5417 42.375 20.5 42.375ZM16.75 26.75C17.1042 26.75 17.401 26.6302 17.6406 26.3906C17.8802 26.151 18 25.8542 18 25.5C18 25.1458 17.8802 24.849 17.6406 24.6094C17.401 24.3698 17.1042 24.25 16.75 24.25C16.3958 24.25 16.099 24.3698 15.8594 24.6094C15.6198 24.849 15.5 25.1458 15.5 25.5C15.5 25.8542 15.6198 26.151 15.8594 26.3906C16.099 26.6302 16.3958 26.75 16.75 26.75ZM20.5 39.875C20.8542 39.875 21.151 39.7552 21.3906 39.5156C21.6302 39.276 21.75 38.9792 21.75 38.625C21.75 38.2708 21.6302 37.974 21.3906 37.7344C21.151 37.4948 20.8542 37.375 20.5 37.375C20.1458 37.375 19.849 37.4948 19.6094 37.7344C19.3698 37.974 19.25 38.2708 19.25 38.625C19.25 38.9792 19.3698 39.276 19.6094 39.5156C19.849 39.7552 20.1458 39.875 20.5 39.875ZM28 18.625C28.3542 18.625 28.651 18.5052 28.8906 18.2656C29.1302 18.026 29.25 17.7292 29.25 17.375C29.25 17.0208 29.1302 16.724 28.8906 16.4844C28.651 16.2448 28.3542 16.125 28 16.125C27.6458 16.125 27.349 16.2448 27.1094 16.4844C26.8698 16.724 26.75 17.0208 26.75 17.375C26.75 17.7292 26.8698 18.026 27.1094 18.2656C27.349 18.5052 27.6458 18.625 28 18.625ZM28 32.375C28.875 32.375 29.6146 32.0729 30.2188 31.4688C30.8229 30.8646 31.125 30.125 31.125 29.25C31.125 28.375 30.8229 27.6354 30.2188 27.0312C29.6146 26.4271 28.875 26.125 28 26.125C27.125 26.125 26.3854 26.4271 25.7812 27.0312C25.1771 27.6354 24.875 28.375 24.875 29.25C24.875 30.125 25.1771 30.8646 25.7812 31.4688C26.3854 32.0729 27.125 32.375 28 32.375ZM35.5 39.875C35.8542 39.875 36.151 39.7552 36.3906 39.5156C36.6302 39.276 36.75 38.9792 36.75 38.625C36.75 38.2708 36.6302 37.974 36.3906 37.7344C36.151 37.4948 35.8542 37.375 35.5 37.375C35.1458 37.375 34.849 37.4948 34.6094 37.7344C34.3698 37.974 34.25 38.2708 34.25 38.625C34.25 38.9792 34.3698 39.276 34.6094 39.5156C34.849 39.7552 35.1458 39.875 35.5 39.875ZM39.25 26.75C39.6042 26.75 39.901 26.6302 40.1406 26.3906C40.3802 26.151 40.5 25.8542 40.5 25.5C40.5 25.1458 40.3802 24.849 40.1406 24.6094C39.901 24.3698 39.6042 24.25 39.25 24.25C38.8958 24.25 38.599 24.3698 38.3594 24.6094C38.1198 24.849 38 25.1458 38 25.5C38 25.8542 38.1198 26.151 38.3594 26.3906C38.599 26.6302 38.8958 26.75 39.25 26.75Z" fill="url(#paint0_linear_500_13302)"/>
<defs>
<linearGradient id="paint0_linear_500_13302" x1="28" y1="13.625" x2="28" y2="42.375" gradientUnits="userSpaceOnUse">
<stop stop-color="#2864E4"/>
<stop offset="1" stop-color="#ECF2FF"/>
</linearGradient>
</defs>
</svg>
