<svg width="56" height="56" viewBox="0 0 56 56" fill="none" xmlns="http://www.w3.org/2000/svg">
<rect width="56" height="56" rx="12" fill="#D7E3FF"/>
<path d="M21.75 34.25H24.25V28H21.75V34.25ZM31.75 34.25H34.25V21.75H31.75V34.25ZM26.75 34.25H29.25V30.5H26.75V34.25ZM26.75 28H29.25V25.5H26.75V28ZM19.25 39.25C18.5625 39.25 17.974 39.0052 17.4844 38.5156C16.9948 38.026 16.75 37.4375 16.75 36.75V19.25C16.75 18.5625 16.9948 17.974 17.4844 17.4844C17.974 16.9948 18.5625 16.75 19.25 16.75H36.75C37.4375 16.75 38.026 16.9948 38.5156 17.4844C39.0052 17.974 39.25 18.5625 39.25 19.25V36.75C39.25 37.4375 39.0052 38.026 38.5156 38.5156C38.026 39.0052 37.4375 39.25 36.75 39.25H19.25ZM19.25 36.75H36.75V19.25H19.25V36.75ZM19.25 19.25V36.75V19.25Z" fill="url(#paint0_linear_500_13317)"/>
<defs>
<linearGradient id="paint0_linear_500_13317" x1="28" y1="16.75" x2="28" y2="39.25" gradientUnits="userSpaceOnUse">
<stop stop-color="#2864E4"/>
<stop offset="1" stop-color="#ECF2FF"/>
</linearGradient>
</defs>
</svg>
