<svg width="56" height="56" viewBox="0 0 56 56" fill="none" xmlns="http://www.w3.org/2000/svg">
<rect width="56" height="56" rx="12" fill="#D7E3FF"/>
<path d="M28 40.5C26.2917 40.5 24.6771 40.1719 23.1562 39.5156C21.6354 38.8594 20.3073 37.9635 19.1719 36.8281C18.0365 35.6927 17.1406 34.3646 16.4844 32.8438C15.8281 31.3229 15.5 29.7083 15.5 28C15.5 26.2708 15.8385 24.6458 16.5156 23.125C17.1927 21.6042 18.1094 20.2812 19.2656 19.1562C20.4219 18.0312 21.7708 17.1406 23.3125 16.4844C24.8542 15.8281 26.5 15.5 28.25 15.5C29.9167 15.5 31.4896 15.7865 32.9688 16.3594C34.4479 16.9323 35.7448 17.724 36.8594 18.7344C37.974 19.7448 38.8594 20.9427 39.5156 22.3281C40.1719 23.7135 40.5 25.2083 40.5 26.8125C40.5 29.2083 39.7708 31.0469 38.3125 32.3281C36.8542 33.6094 35.0833 34.25 33 34.25H30.6875C30.5 34.25 30.3698 34.3021 30.2969 34.4062C30.224 34.5104 30.1875 34.625 30.1875 34.75C30.1875 35 30.3438 35.3594 30.6562 35.8281C30.9688 36.2969 31.125 36.8333 31.125 37.4375C31.125 38.4792 30.8385 39.25 30.2656 39.75C29.6927 40.25 28.9375 40.5 28 40.5ZM21.125 29.25C21.6667 29.25 22.1146 29.0729 22.4688 28.7188C22.8229 28.3646 23 27.9167 23 27.375C23 26.8333 22.8229 26.3854 22.4688 26.0312C22.1146 25.6771 21.6667 25.5 21.125 25.5C20.5833 25.5 20.1354 25.6771 19.7812 26.0312C19.4271 26.3854 19.25 26.8333 19.25 27.375C19.25 27.9167 19.4271 28.3646 19.7812 28.7188C20.1354 29.0729 20.5833 29.25 21.125 29.25ZM24.875 24.25C25.4167 24.25 25.8646 24.0729 26.2188 23.7188C26.5729 23.3646 26.75 22.9167 26.75 22.375C26.75 21.8333 26.5729 21.3854 26.2188 21.0312C25.8646 20.6771 25.4167 20.5 24.875 20.5C24.3333 20.5 23.8854 20.6771 23.5312 21.0312C23.1771 21.3854 23 21.8333 23 22.375C23 22.9167 23.1771 23.3646 23.5312 23.7188C23.8854 24.0729 24.3333 24.25 24.875 24.25ZM31.125 24.25C31.6667 24.25 32.1146 24.0729 32.4688 23.7188C32.8229 23.3646 33 22.9167 33 22.375C33 21.8333 32.8229 21.3854 32.4688 21.0312C32.1146 20.6771 31.6667 20.5 31.125 20.5C30.5833 20.5 30.1354 20.6771 29.7812 21.0312C29.4271 21.3854 29.25 21.8333 29.25 22.375C29.25 22.9167 29.4271 23.3646 29.7812 23.7188C30.1354 24.0729 30.5833 24.25 31.125 24.25ZM34.875 29.25C35.4167 29.25 35.8646 29.0729 36.2188 28.7188C36.5729 28.3646 36.75 27.9167 36.75 27.375C36.75 26.8333 36.5729 26.3854 36.2188 26.0312C35.8646 25.6771 35.4167 25.5 34.875 25.5C34.3333 25.5 33.8854 25.6771 33.5312 26.0312C33.1771 26.3854 33 26.8333 33 27.375C33 27.9167 33.1771 28.3646 33.5312 28.7188C33.8854 29.0729 34.3333 29.25 34.875 29.25ZM28 38C28.1875 38 28.3385 37.9479 28.4531 37.8438C28.5677 37.7396 28.625 37.6042 28.625 37.4375C28.625 37.1458 28.4688 36.8021 28.1562 36.4062C27.8438 36.0104 27.6875 35.4167 27.6875 34.625C27.6875 33.75 27.9896 33.0521 28.5938 32.5312C29.1979 32.0104 29.9375 31.75 30.8125 31.75H33C34.375 31.75 35.5521 31.349 36.5312 30.5469C37.5104 29.7448 38 28.5 38 26.8125C38 24.2917 37.0365 22.1927 35.1094 20.5156C33.1823 18.8385 30.8958 18 28.25 18C25.4167 18 23 18.9688 21 20.9062C19 22.8438 18 25.2083 18 28C18 30.7708 18.974 33.1302 20.9219 35.0781C22.8698 37.026 25.2292 38 28 38Z" fill="url(#paint0_linear_500_13272)"/>
<defs>
<linearGradient id="paint0_linear_500_13272" x1="28" y1="15.5" x2="28" y2="40.5" gradientUnits="userSpaceOnUse">
<stop stop-color="#2864E4"/>
<stop offset="1" stop-color="#ECF2FF"/>
</linearGradient>
</defs>
</svg>
