<svg width="56" height="56" viewBox="0 0 56 56" fill="none" xmlns="http://www.w3.org/2000/svg">
<rect width="56" height="56" rx="12" fill="#D7E3FF"/>
<path d="M16.75 30.5V28H25.5V30.5H16.75ZM16.75 25.5V23H30.5V25.5H16.75ZM16.75 20.5V18H30.5V20.5H16.75ZM28 38V34.1562L34.9062 27.2812C35.0938 27.0938 35.3021 26.9583 35.5312 26.875C35.7604 26.7917 35.9896 26.75 36.2188 26.75C36.4688 26.75 36.7083 26.7969 36.9375 26.8906C37.1667 26.9844 37.375 27.125 37.5625 27.3125L38.7188 28.4688C38.8854 28.6562 39.0156 28.8646 39.1094 29.0938C39.2031 29.3229 39.25 29.5521 39.25 29.7812C39.25 30.0104 39.2083 30.2448 39.125 30.4844C39.0417 30.724 38.9062 30.9375 38.7188 31.125L31.8438 38H28ZM37.375 29.7812L36.2188 28.625L37.375 29.7812ZM29.875 36.125H31.0625L34.8438 32.3125L34.2812 31.7188L33.6875 31.1562L29.875 34.9375V36.125ZM34.2812 31.7188L33.6875 31.1562L34.8438 32.3125L34.2812 31.7188Z" fill="url(#paint0_linear_500_13257)"/>
<defs>
<linearGradient id="paint0_linear_500_13257" x1="28" y1="18" x2="28" y2="38" gradientUnits="userSpaceOnUse">
<stop stop-color="#2864E4"/>
<stop offset="1" stop-color="#ECF2FF"/>
</linearGradient>
</defs>
</svg>
