<svg width="56" height="56" viewBox="0 0 56 56" fill="none" xmlns="http://www.w3.org/2000/svg">
<rect width="56" height="56" rx="12" fill="#D7E3FF"/>
<path d="M35.5 29.25V26.75H40.5V29.25H35.5ZM37 38L33 35L34.5 33L38.5 36L37 38ZM34.5 23L33 21L37 18L38.5 20L34.5 23ZM19.25 36.75V31.75H18C17.3125 31.75 16.724 31.5052 16.2344 31.0156C15.7448 30.526 15.5 29.9375 15.5 29.25V26.75C15.5 26.0625 15.7448 25.474 16.2344 24.9844C16.724 24.4948 17.3125 24.25 18 24.25H23L29.25 20.5V35.5L23 31.75H21.75V36.75H19.25ZM26.75 31.0625V24.9375L23.6875 26.75H18V29.25H23.6875L26.75 31.0625ZM30.5 32.1875V23.8125C31.0625 24.3125 31.5156 24.9219 31.8594 25.6406C32.2031 26.3594 32.375 27.1458 32.375 28C32.375 28.8542 32.2031 29.6406 31.8594 30.3594C31.5156 31.0781 31.0625 31.6875 30.5 32.1875Z" fill="url(#paint0_linear_500_13242)"/>
<defs>
<linearGradient id="paint0_linear_500_13242" x1="28" y1="18" x2="28" y2="38" gradientUnits="userSpaceOnUse">
<stop stop-color="#2864E4"/>
<stop offset="1" stop-color="#ECF2FF"/>
</linearGradient>
</defs>
</svg>
