<svg width="164" height="164" viewBox="0 0 164 164" fill="none" xmlns="http://www.w3.org/2000/svg">
<g filter="url(#filter0_d_500_7496)">
<rect x="50" y="30" width="64" height="64" rx="12" fill="white" shape-rendering="crispEdges"/>
<path d="M82 74.5C80.2917 74.5 78.6771 74.1719 77.1562 73.5156C75.6354 72.8594 74.3073 71.9635 73.1719 70.8281C72.0365 69.6927 71.1406 68.3646 70.4844 66.8438C69.8281 65.3229 69.5 63.7083 69.5 62C69.5 60.2708 69.8385 58.6458 70.5156 57.125C71.1927 55.6042 72.1094 54.2812 73.2656 53.1562C74.4219 52.0312 75.7708 51.1406 77.3125 50.4844C78.8542 49.8281 80.5 49.5 82.25 49.5C83.9167 49.5 85.4896 49.7865 86.9688 50.3594C88.4479 50.9323 89.7448 51.724 90.8594 52.7344C91.974 53.7448 92.8594 54.9427 93.5156 56.3281C94.1719 57.7135 94.5 59.2083 94.5 60.8125C94.5 63.2083 93.7708 65.0469 92.3125 66.3281C90.8542 67.6094 89.0833 68.25 87 68.25H84.6875C84.5 68.25 84.3698 68.3021 84.2969 68.4062C84.224 68.5104 84.1875 68.625 84.1875 68.75C84.1875 69 84.3438 69.3594 84.6562 69.8281C84.9688 70.2969 85.125 70.8333 85.125 71.4375C85.125 72.4792 84.8385 73.25 84.2656 73.75C83.6927 74.25 82.9375 74.5 82 74.5ZM75.125 63.25C75.6667 63.25 76.1146 63.0729 76.4688 62.7188C76.8229 62.3646 77 61.9167 77 61.375C77 60.8333 76.8229 60.3854 76.4688 60.0312C76.1146 59.6771 75.6667 59.5 75.125 59.5C74.5833 59.5 74.1354 59.6771 73.7812 60.0312C73.4271 60.3854 73.25 60.8333 73.25 61.375C73.25 61.9167 73.4271 62.3646 73.7812 62.7188C74.1354 63.0729 74.5833 63.25 75.125 63.25ZM78.875 58.25C79.4167 58.25 79.8646 58.0729 80.2188 57.7188C80.5729 57.3646 80.75 56.9167 80.75 56.375C80.75 55.8333 80.5729 55.3854 80.2188 55.0312C79.8646 54.6771 79.4167 54.5 78.875 54.5C78.3333 54.5 77.8854 54.6771 77.5312 55.0312C77.1771 55.3854 77 55.8333 77 56.375C77 56.9167 77.1771 57.3646 77.5312 57.7188C77.8854 58.0729 78.3333 58.25 78.875 58.25ZM85.125 58.25C85.6667 58.25 86.1146 58.0729 86.4688 57.7188C86.8229 57.3646 87 56.9167 87 56.375C87 55.8333 86.8229 55.3854 86.4688 55.0312C86.1146 54.6771 85.6667 54.5 85.125 54.5C84.5833 54.5 84.1354 54.6771 83.7812 55.0312C83.4271 55.3854 83.25 55.8333 83.25 56.375C83.25 56.9167 83.4271 57.3646 83.7812 57.7188C84.1354 58.0729 84.5833 58.25 85.125 58.25ZM88.875 63.25C89.4167 63.25 89.8646 63.0729 90.2188 62.7188C90.5729 62.3646 90.75 61.9167 90.75 61.375C90.75 60.8333 90.5729 60.3854 90.2188 60.0312C89.8646 59.6771 89.4167 59.5 88.875 59.5C88.3333 59.5 87.8854 59.6771 87.5312 60.0312C87.1771 60.3854 87 60.8333 87 61.375C87 61.9167 87.1771 62.3646 87.5312 62.7188C87.8854 63.0729 88.3333 63.25 88.875 63.25ZM82 72C82.1875 72 82.3385 71.9479 82.4531 71.8438C82.5677 71.7396 82.625 71.6042 82.625 71.4375C82.625 71.1458 82.4688 70.8021 82.1562 70.4062C81.8438 70.0104 81.6875 69.4167 81.6875 68.625C81.6875 67.75 81.9896 67.0521 82.5938 66.5312C83.1979 66.0104 83.9375 65.75 84.8125 65.75H87C88.375 65.75 89.5521 65.349 90.5312 64.5469C91.5104 63.7448 92 62.5 92 60.8125C92 58.2917 91.0365 56.1927 89.1094 54.5156C87.1823 52.8385 84.8958 52 82.25 52C79.4167 52 77 52.9688 75 54.9062C73 56.8438 72 59.2083 72 62C72 64.7708 72.974 67.1302 74.9219 69.0781C76.8698 71.026 79.2292 72 82 72Z" fill="#005AB6"/>
</g>
<defs>
<filter id="filter0_d_500_7496" x="0" y="0" width="164" height="164" filterUnits="userSpaceOnUse" color-interpolation-filters="sRGB">
<feFlood flood-opacity="0" result="BackgroundImageFix"/>
<feColorMatrix in="SourceAlpha" type="matrix" values="0 0 0 0 0 0 0 0 0 0 0 0 0 0 0 0 0 0 127 0" result="hardAlpha"/>
<feOffset dy="20"/>
<feGaussianBlur stdDeviation="25"/>
<feComposite in2="hardAlpha" operator="out"/>
<feColorMatrix type="matrix" values="0 0 0 0 0.0980392 0 0 0 0 0.109804 0 0 0 0 0.117647 0 0 0 0.06 0"/>
<feBlend mode="normal" in2="BackgroundImageFix" result="effect1_dropShadow_500_7496"/>
<feBlend mode="normal" in="SourceGraphic" in2="effect1_dropShadow_500_7496" result="shape"/>
</filter>
</defs>
</svg>
