<svg width="164" height="164" viewBox="0 0 164 164" fill="none" xmlns="http://www.w3.org/2000/svg">
<g filter="url(#filter0_d_500_7502)">
<rect x="50" y="30" width="64" height="64" rx="12" fill="white" shape-rendering="crispEdges"/>
<path d="M73.9708 59.4503L76.4083 60.4815C76.7 59.8982 77.0021 59.3357 77.3146 58.794C77.6271 58.2523 77.9708 57.7107 78.3458 57.169L76.5958 56.8253L73.9708 59.4503ZM78.4083 62.044L81.9708 65.5753C82.8458 65.2419 83.7833 64.7315 84.7833 64.044C85.7833 63.3565 86.7208 62.5753 87.5958 61.7003C89.0542 60.2419 90.1948 58.6221 91.0177 56.8409C91.8406 55.0596 92.2 53.419 92.0958 51.919C90.5958 51.8148 88.95 52.1742 87.1583 52.9971C85.3667 53.8201 83.7417 54.9607 82.2833 56.419C81.4083 57.294 80.6271 58.2315 79.9396 59.2315C79.2521 60.2315 78.7417 61.169 78.4083 62.044ZM83.9708 60.0128C83.4917 59.5336 83.2521 58.9451 83.2521 58.2471C83.2521 57.5492 83.4917 56.9607 83.9708 56.4815C84.45 56.0023 85.0437 55.7628 85.7521 55.7628C86.4604 55.7628 87.0542 56.0023 87.5333 56.4815C88.0125 56.9607 88.2521 57.5492 88.2521 58.2471C88.2521 58.9451 88.0125 59.5336 87.5333 60.0128C87.0542 60.4919 86.4604 60.7315 85.7521 60.7315C85.0437 60.7315 84.45 60.4919 83.9708 60.0128ZM84.5646 70.044L87.1896 67.419L86.8458 65.669C86.3042 66.044 85.7625 66.3826 85.2208 66.6846C84.6792 66.9867 84.1167 67.2836 83.5333 67.5753L84.5646 70.044ZM94.3458 49.6378C94.7417 52.1586 94.4969 54.6117 93.6115 56.9971C92.726 59.3826 91.2 61.6586 89.0333 63.8253L89.6583 66.919C89.7417 67.3357 89.7208 67.7419 89.5958 68.1378C89.4708 68.5336 89.2625 68.8773 88.9708 69.169L83.7208 74.419L81.0958 68.2628L75.7521 62.919L69.5958 60.294L74.8146 55.044C75.1062 54.7523 75.4552 54.544 75.8615 54.419C76.2677 54.294 76.6792 54.2732 77.0958 54.3565L80.1896 54.9815C82.3562 52.8148 84.6271 51.2836 87.0021 50.3878C89.3771 49.4919 91.825 49.2419 94.3458 49.6378ZM71.8146 66.8878C72.5437 66.1586 73.4344 65.7888 74.4865 65.7784C75.5385 65.768 76.4292 66.1273 77.1583 66.8565C77.8875 67.5857 78.2469 68.4763 78.2365 69.5284C78.226 70.5805 77.8562 71.4711 77.1271 72.2003C76.6062 72.7211 75.7365 73.169 74.5177 73.544C73.299 73.919 71.6167 74.2523 69.4708 74.544C69.7625 72.3982 70.0958 70.7159 70.4708 69.4971C70.8458 68.2784 71.2937 67.4086 71.8146 66.8878ZM73.5958 68.6378C73.3875 68.8461 73.1792 69.2263 72.9708 69.7784C72.7625 70.3305 72.6167 70.8878 72.5333 71.4503C73.0958 71.3669 73.6531 71.2263 74.2052 71.0284C74.7573 70.8305 75.1375 70.6273 75.3458 70.419C75.5958 70.169 75.7312 69.8669 75.7521 69.5128C75.7729 69.1586 75.6583 68.8565 75.4083 68.6065C75.1583 68.3565 74.8562 68.2367 74.5021 68.2471C74.1479 68.2576 73.8458 68.3878 73.5958 68.6378Z" fill="#005AB6"/>
</g>
<defs>
<filter id="filter0_d_500_7502" x="0" y="0" width="164" height="164" filterUnits="userSpaceOnUse" color-interpolation-filters="sRGB">
<feFlood flood-opacity="0" result="BackgroundImageFix"/>
<feColorMatrix in="SourceAlpha" type="matrix" values="0 0 0 0 0 0 0 0 0 0 0 0 0 0 0 0 0 0 127 0" result="hardAlpha"/>
<feOffset dy="20"/>
<feGaussianBlur stdDeviation="25"/>
<feComposite in2="hardAlpha" operator="out"/>
<feColorMatrix type="matrix" values="0 0 0 0 0.0980392 0 0 0 0 0.109804 0 0 0 0 0.117647 0 0 0 0.06 0"/>
<feBlend mode="normal" in2="BackgroundImageFix" result="effect1_dropShadow_500_7502"/>
<feBlend mode="normal" in="SourceGraphic" in2="effect1_dropShadow_500_7502" result="shape"/>
</filter>
</defs>
</svg>
