<svg width="56" height="56" viewBox="0 0 56 56" fill="none" xmlns="http://www.w3.org/2000/svg">
<rect width="56" height="56" rx="12" fill="#F6F3F2"/>
<path d="M28 40.5C26.2708 40.5 24.6458 40.1719 23.125 39.5156C21.6042 38.8594 20.2812 37.9688 19.1562 36.8438C18.0312 35.7188 17.1406 34.3958 16.4844 32.875C15.8281 31.3542 15.5 29.7292 15.5 28C15.5 26.2708 15.8281 24.6458 16.4844 23.125C17.1406 21.6042 18.0312 20.2812 19.1562 19.1562C20.2812 18.0312 21.6042 17.1406 23.125 16.4844C24.6458 15.8281 26.2708 15.5 28 15.5C29.7292 15.5 31.3542 15.8281 32.875 16.4844C34.3958 17.1406 35.7188 18.0312 36.8438 19.1562C37.9688 20.2812 38.8594 21.6042 39.5156 23.125C40.1719 24.6458 40.5 26.2708 40.5 28V38C40.5 38.6875 40.2552 39.276 39.7656 39.7656C39.276 40.2552 38.6875 40.5 38 40.5H28ZM28 38C30.7917 38 33.1562 37.0312 35.0938 35.0938C37.0312 33.1562 38 30.7917 38 28C38 25.2083 37.0312 22.8438 35.0938 20.9062C33.1562 18.9688 30.7917 18 28 18C25.2083 18 22.8438 18.9688 20.9062 20.9062C18.9688 22.8438 18 25.2083 18 28C18 28.4792 18.0312 28.9479 18.0938 29.4062C18.1562 29.8646 18.25 30.3125 18.375 30.75L23 26.125L27.125 29.5938L31.2188 25.5H29.25V23H35.5V29.25H33V27.2812L27.25 33L23.1562 29.5L19.4688 33.1875C20.3438 34.625 21.526 35.7865 23.0156 36.6719C24.5052 37.5573 26.1667 38 28 38ZM37.375 38.625C37.7292 38.625 38.026 38.5052 38.2656 38.2656C38.5052 38.026 38.625 37.7292 38.625 37.375C38.625 37.0208 38.5052 36.724 38.2656 36.4844C38.026 36.2448 37.7292 36.125 37.375 36.125C37.0208 36.125 36.724 36.2448 36.4844 36.4844C36.2448 36.724 36.125 37.0208 36.125 37.375C36.125 37.7292 36.2448 38.026 36.4844 38.2656C36.724 38.5052 37.0208 38.625 37.375 38.625Z" fill="url(#paint0_linear_500_13433)"/>
<defs>
<linearGradient id="paint0_linear_500_13433" x1="28" y1="15.5" x2="28" y2="40.5" gradientUnits="userSpaceOnUse">
<stop stop-color="#2864E4"/>
<stop offset="1" stop-color="#ECF2FF"/>
</linearGradient>
</defs>
</svg>
