<svg width="56" height="56" viewBox="0 0 56 56" fill="none" xmlns="http://www.w3.org/2000/svg">
<rect width="56" height="56" rx="12" fill="#F6F3F2"/>
<path d="M37.375 22.375L36.1875 19.8125L33.625 18.625L36.1875 17.4375L37.375 14.875L38.5625 17.4375L41.125 18.625L38.5625 19.8125L37.375 22.375ZM23 22.375L21.8125 19.8125L19.25 18.625L21.8125 17.4375L23 14.875L24.1875 17.4375L26.75 18.625L24.1875 19.8125L23 22.375ZM37.375 36.75L36.1875 34.1875L33.625 33L36.1875 31.8125L37.375 29.25L38.5625 31.8125L41.125 33L38.5625 34.1875L37.375 36.75ZM18.75 40.75L15.25 37.25C15 37 14.875 36.6979 14.875 36.3438C14.875 35.9896 15 35.6875 15.25 35.4375L29.1875 21.5C29.4375 21.25 29.7396 21.125 30.0938 21.125C30.4479 21.125 30.75 21.25 31 21.5L34.5 25C34.75 25.25 34.875 25.5521 34.875 25.9062C34.875 26.2604 34.75 26.5625 34.5 26.8125L20.5625 40.75C20.3125 41 20.0104 41.125 19.6562 41.125C19.3021 41.125 19 41 18.75 40.75ZM19.6875 38.125L28.625 29.125L26.875 27.375L17.875 36.3125L19.6875 38.125Z" fill="url(#paint0_linear_500_13418)"/>
<defs>
<linearGradient id="paint0_linear_500_13418" x1="28" y1="14.875" x2="28" y2="41.125" gradientUnits="userSpaceOnUse">
<stop stop-color="#2864E4"/>
<stop offset="1" stop-color="#ECF2FF"/>
</linearGradient>
</defs>
</svg>
