<svg width="56" height="56" viewBox="0 0 56 56" fill="none" xmlns="http://www.w3.org/2000/svg">
<rect width="56" height="56" rx="12" fill="#F6F3F2"/>
<path d="M15.5 38V35.5H18.9062C17.8438 34.5833 17.0104 33.4792 16.4062 32.1875C15.8021 30.8958 15.5 29.5 15.5 28C15.5 25.6667 16.2083 23.6094 17.625 21.8281C19.0417 20.0469 20.8333 18.875 23 18.3125V20.9375C21.5417 21.4583 20.3438 22.3594 19.4062 23.6406C18.4688 24.9219 18 26.375 18 28C18 29.125 18.224 30.1615 18.6719 31.1094C19.1198 32.0573 19.7292 32.875 20.5 33.5625V30.5H23V38H15.5ZM29.25 38C28.2083 38 27.3229 37.6354 26.5938 36.9062C25.8646 36.1771 25.5 35.2917 25.5 34.25C25.5 33.25 25.8438 32.3906 26.5312 31.6719C27.2188 30.9531 28.0625 30.5729 29.0625 30.5312C29.4167 29.7812 29.9427 29.1719 30.6406 28.7031C31.3385 28.2344 32.125 28 33 28C34.1042 28 35.0573 28.3594 35.8594 29.0781C36.6615 29.7969 37.1458 30.6875 37.3125 31.75C38.1875 31.75 38.9375 32.0521 39.5625 32.6562C40.1875 33.2604 40.5 33.9896 40.5 34.8438C40.5 35.7188 40.1979 36.4635 39.5938 37.0781C38.9896 37.6927 38.25 38 37.375 38H29.25ZM32.875 26.75C32.7292 25.8958 32.4479 25.1042 32.0312 24.375C31.6146 23.6458 31.1042 23 30.5 22.4375V25.5H28V18H35.5V20.5H32.0938C32.9896 21.2917 33.724 22.2188 34.2969 23.2812C34.8698 24.3438 35.2396 25.5 35.4062 26.75H32.875ZM29.25 35.5H37.375C37.5417 35.5 37.6875 35.4375 37.8125 35.3125C37.9375 35.1875 38 35.0417 38 34.875C38 34.7083 37.9375 34.5625 37.8125 34.4375C37.6875 34.3125 37.5417 34.25 37.375 34.25H35.1875V32.6875C35.1875 32.0833 34.974 31.5677 34.5469 31.1406C34.1198 30.7135 33.6042 30.5 33 30.5C32.3958 30.5 31.8802 30.7135 31.4531 31.1406C31.026 31.5677 30.8125 32.0833 30.8125 32.6875V33H29.25C28.8958 33 28.599 33.1198 28.3594 33.3594C28.1198 33.599 28 33.8958 28 34.25C28 34.6042 28.1198 34.901 28.3594 35.1406C28.599 35.3802 28.8958 35.5 29.25 35.5Z" fill="url(#paint0_linear_500_13449)"/>
<defs>
<linearGradient id="paint0_linear_500_13449" x1="28" y1="18" x2="28" y2="38" gradientUnits="userSpaceOnUse">
<stop stop-color="#2864E4"/>
<stop offset="1" stop-color="#ECF2FF"/>
</linearGradient>
</defs>
</svg>
