<svg width="56" height="56" viewBox="0 0 56 56" fill="none" xmlns="http://www.w3.org/2000/svg">
<rect width="56" height="56" rx="12" fill="#F6F3F2"/>
<path d="M21.125 39.2423C20.1875 39.2423 19.2604 39.0132 18.3438 38.5548C17.4271 38.0965 16.6875 37.4923 16.125 36.7423C16.6667 36.7423 17.2188 36.5288 17.7812 36.1017C18.3438 35.6746 18.625 35.0548 18.625 34.2423C18.625 33.2007 18.9896 32.3152 19.7188 31.5861C20.4479 30.8569 21.3333 30.4923 22.375 30.4923C23.4167 30.4923 24.3021 30.8569 25.0312 31.5861C25.7604 32.3152 26.125 33.2007 26.125 34.2423C26.125 35.6173 25.6354 36.7944 24.6562 37.7736C23.6771 38.7527 22.5 39.2423 21.125 39.2423ZM21.125 36.7423C21.8125 36.7423 22.401 36.4975 22.8906 36.0079C23.3802 35.5184 23.625 34.9298 23.625 34.2423C23.625 33.8882 23.5052 33.5913 23.2656 33.3517C23.026 33.1121 22.7292 32.9923 22.375 32.9923C22.0208 32.9923 21.724 33.1121 21.4844 33.3517C21.2448 33.5913 21.125 33.8882 21.125 34.2423C21.125 34.7215 21.0677 35.159 20.9531 35.5548C20.8385 35.9507 20.6875 36.3257 20.5 36.6798C20.6042 36.7215 20.7083 36.7423 20.8125 36.7423C20.9167 36.7423 21.0208 36.7423 21.125 36.7423ZM28.3125 31.7423L24.875 28.3048L36.0625 17.1173C36.2917 16.8882 36.5781 16.7684 36.9219 16.7579C37.2656 16.7475 37.5625 16.8673 37.8125 17.1173L39.5 18.8048C39.75 19.0548 39.875 19.3465 39.875 19.6798C39.875 20.0132 39.75 20.3048 39.5 20.5548L28.3125 31.7423Z" fill="url(#paint0_linear_500_13464)"/>
<defs>
<linearGradient id="paint0_linear_500_13464" x1="28" y1="16.7573" x2="28" y2="39.2423" gradientUnits="userSpaceOnUse">
<stop stop-color="#2864E4"/>
<stop offset="1" stop-color="#ECF2FF"/>
</linearGradient>
</defs>
</svg>
