<svg preserveAspectRatio="none" width="100%" height="100%" overflow="visible" style="display: block;" viewBox="0 0 18 18" fill="none" xmlns="http://www.w3.org/2000/svg">
<g id="Container">
<path id="Icon" d="M2 18C1.45 18 0.979167 17.8042 0.5875 17.4125C0.195833 17.0208 0 16.55 0 16V2C0 1.45 0.195833 0.979167 0.5875 0.5875C0.979167 0.195833 1.45 0 2 0H16C16.55 0 17.0208 0.195833 17.4125 0.5875C17.8042 0.979167 18 1.45 18 2V16C18 16.55 17.8042 17.0208 17.4125 17.4125C17.0208 17.8042 16.55 18 16 18H2V18M3 9.575L7 5.575L11 9.575L15 5.575L16 6.575V2V2V2H2V2V2V8.575L3 9.575V9.575M2 16H16V16V16V9.4L15 8.4L11 12.4L7 8.4L3 12.4L2 11.4V16V16V16V16M2 16V16V16V16V9.4V11.4V8.575V6.575V2V2V2V2V2V2V8.575V8.575V11.4V11.4V16V16V16V16" fill="var(--fill-0, #191C1E)"/>
</g>
</svg>
