<svg preserveAspectRatio="none" width="100%" height="100%" overflow="visible" style="display: block;" viewBox="0 0 29.2667 29.2667" fill="none" xmlns="http://www.w3.org/2000/svg">
<g id="Container">
<path id="Icon" d="M14.6667 21.2667L12.6 16.6667L8 14.6L12.6 12.5L14.6667 7.93333L16.7667 12.5L21.3333 14.6L16.7667 16.6667L14.6667 21.2667V21.2667M14.6667 29.2667C12.2667 29.2667 10.0167 28.7167 7.91667 27.6167C5.81667 26.5167 4.06667 24.9778 2.66667 23V26.6H0V18.6H8V21.2667H4.73333C5.86667 22.9333 7.30556 24.2389 9.05 25.1833C10.7944 26.1278 12.6667 26.6 14.6667 26.6C17.2222 26.6 19.5389 25.8667 21.6167 24.4C23.6944 22.9333 25.1556 20.9889 26 18.5667L28.6 19.1667C27.6 22.1889 25.8222 24.6278 23.2667 26.4833C20.7111 28.3389 17.8444 29.2667 14.6667 29.2667V29.2667M0.0666667 13.2667C0.222222 11.7778 0.577778 10.35 1.13333 8.98333C1.68889 7.61667 2.45556 6.35556 3.43333 5.2L5.33333 7.1C4.62222 8.01111 4.04444 8.98333 3.6 10.0167C3.15556 11.05 2.87778 12.1333 2.76667 13.2667H0.0666667V13.2667M7.2 5.23333L5.3 3.33333C6.47778 2.35556 7.74444 1.58333 9.1 1.01667C10.4556 0.45 11.8667 0.111111 13.3333 0V2.66667C12.2 2.77778 11.1222 3.05556 10.1 3.5C9.07778 3.94444 8.11111 4.52222 7.2 5.23333V5.23333M22.1667 5.23333C21.2556 4.52222 20.2833 3.94444 19.25 3.5C18.2167 3.05556 17.1333 2.77778 16 2.66667V0C17.4889 0.133333 18.9167 0.477778 20.2833 1.03333C21.65 1.58889 22.9111 2.35556 24.0667 3.33333L22.1667 5.23333V5.23333M26.6 13.2667C26.4889 12.1333 26.2111 11.05 25.7667 10.0167C25.3222 8.98333 24.7444 8.01111 24.0333 7.1L25.9333 5.2C26.9111 6.35556 27.6778 7.61667 28.2333 8.98333C28.7889 10.35 29.1333 11.7778 29.2667 13.2667H26.6V13.2667" fill="url(#paint0_linear_0_4)"/>
</g>
<defs>
<linearGradient id="paint0_linear_0_4" x1="14.6333" y1="0" x2="14.6333" y2="29.2667" gradientUnits="userSpaceOnUse">
<stop stop-color="#2864E4"/>
<stop offset="1" stop-color="#ECF2FF"/>
</linearGradient>
</defs>
</svg>
