<svg preserveAspectRatio="none" width="100%" height="100%" overflow="visible" style="display: block;" viewBox="0 0 24 24" fill="none" xmlns="http://www.w3.org/2000/svg">
<g id="Container">
<path id="Icon" d="M0 24V21.3333L2.66667 18.6667V24H0V24M5.33333 24V16L8 13.3333V13.3333V24H5.33333V24M10.6667 24V13.3333L13.3333 16.0333V24H10.6667V24M16 24V16.0333L18.6667 13.3667V24H16V24M21.3333 24V10.6667L24 8V24H21.3333V24M0 17.1V13.3333L9.33333 4L14.6667 9.33333L24 0V3.76667L14.6667 13.1L9.33333 7.76667L0 17.1V17.1" fill="url(#paint0_linear_0_10)"/>
</g>
<defs>
<linearGradient id="paint0_linear_0_10" x1="12" y1="0" x2="12" y2="24" gradientUnits="userSpaceOnUse">
<stop stop-color="#2864E4"/>
<stop offset="1" stop-color="#ECF2FF"/>
</linearGradient>
</defs>
</svg>
