<svg preserveAspectRatio="none" width="100%" height="100%" overflow="visible" style="display: block;" viewBox="0 0 20 16" fill="none" xmlns="http://www.w3.org/2000/svg">
<g id="Container" opacity="0.5">
<path id="Icon" d="M12 16V14H15C15.2833 14 15.5208 13.9042 15.7125 13.7125C15.9042 13.5208 16 13.2833 16 13V11C16 10.3667 16.1833 9.79167 16.55 9.275C16.9167 8.75833 17.4 8.39167 18 8.175V7.825C17.4 7.60833 16.9167 7.24167 16.55 6.725C16.1833 6.20833 16 5.63333 16 5V3C16 2.71667 15.9042 2.47917 15.7125 2.2875C15.5208 2.09583 15.2833 2 15 2H12V0H15C15.8333 0 16.5417 0.291667 17.125 0.875C17.7083 1.45833 18 2.16667 18 3V5C18 5.28333 18.0958 5.52083 18.2875 5.7125C18.4792 5.90417 18.7167 6 19 6H20V10H19C18.7167 10 18.4792 10.0958 18.2875 10.2875C18.0958 10.4792 18 10.7167 18 11V13C18 13.8333 17.7083 14.5417 17.125 15.125C16.5417 15.7083 15.8333 16 15 16H12V16M5 16C4.16667 16 3.45833 15.7083 2.875 15.125C2.29167 14.5417 2 13.8333 2 13V11C2 10.7167 1.90417 10.4792 1.7125 10.2875C1.52083 10.0958 1.28333 10 1 10H0V6H1C1.28333 6 1.52083 5.90417 1.7125 5.7125C1.90417 5.52083 2 5.28333 2 5V3C2 2.16667 2.29167 1.45833 2.875 0.875C3.45833 0.291667 4.16667 0 5 0H8V2H5C4.71667 2 4.47917 2.09583 4.2875 2.2875C4.09583 2.47917 4 2.71667 4 3V5C4 5.63333 3.81667 6.20833 3.45 6.725C3.08333 7.24167 2.6 7.60833 2 7.825V8.175C2.6 8.39167 3.08333 8.75833 3.45 9.275C3.81667 9.79167 4 10.3667 4 11V13C4 13.2833 4.09583 13.5208 4.2875 13.7125C4.47917 13.9042 4.71667 14 5 14H8V16H5V16" fill="var(--fill-0, white)"/>
</g>
</svg>
