<svg preserveAspectRatio="none" width="100%" height="100%" overflow="visible" style="display: block;" viewBox="0 0 24.375 24.375" fill="none" xmlns="http://www.w3.org/2000/svg">
<path id="Icon" d="M7.25 24.375H2.5C1.8125 24.375 1.22396 24.1302 0.734375 23.6406C0.244792 23.151 0 22.5625 0 21.875V17.125C1 17.125 1.875 16.8073 2.625 16.1719C3.375 15.5365 3.75 14.7292 3.75 13.75C3.75 12.7708 3.375 11.9635 2.625 11.3281C1.875 10.6927 1 10.375 0 10.375V5.625C0 4.9375 0.244792 4.34896 0.734375 3.85938C1.22396 3.36979 1.8125 3.125 2.5 3.125H7.5C7.5 2.25 7.80208 1.51042 8.40625 0.90625C9.01042 0.302083 9.75 0 10.625 0C11.5 0 12.2396 0.302083 12.8438 0.90625C13.4479 1.51042 13.75 2.25 13.75 3.125H18.75C19.4375 3.125 20.026 3.36979 20.5156 3.85938C21.0052 4.34896 21.25 4.9375 21.25 5.625V10.625C22.125 10.625 22.8646 10.9271 23.4688 11.5312C24.0729 12.1354 24.375 12.875 24.375 13.75C24.375 14.625 24.0729 15.3646 23.4688 15.9688C22.8646 16.5729 22.125 16.875 21.25 16.875V21.875C21.25 22.5625 21.0052 23.151 20.5156 23.6406C20.026 24.1302 19.4375 24.375 18.75 24.375H14C14 23.3333 13.6719 22.4479 13.0156 21.7188C12.3594 20.9896 11.5625 20.625 10.625 20.625C9.6875 20.625 8.89062 20.9896 8.23438 21.7188C7.57812 22.4479 7.25 23.3333 7.25 24.375V24.375M2.5 21.875H5.15625C5.65625 20.5 6.45833 19.5312 7.5625 18.9688C8.66667 18.4062 9.6875 18.125 10.625 18.125C11.5625 18.125 12.5833 18.4062 13.6875 18.9688C14.7917 19.5312 15.5938 20.5 16.0938 21.875H18.75V14.375H21.25C21.4167 14.375 21.5625 14.3125 21.6875 14.1875C21.8125 14.0625 21.875 13.9167 21.875 13.75C21.875 13.5833 21.8125 13.4375 21.6875 13.3125C21.5625 13.1875 21.4167 13.125 21.25 13.125H18.75V5.625H11.25V3.125C11.25 2.95833 11.1875 2.8125 11.0625 2.6875C10.9375 2.5625 10.7917 2.5 10.625 2.5C10.4583 2.5 10.3125 2.5625 10.1875 2.6875C10.0625 2.8125 10 2.95833 10 3.125V5.625H2.5V8.375C3.625 8.79167 4.53125 9.48958 5.21875 10.4688C5.90625 11.4479 6.25 12.5417 6.25 13.75C6.25 14.9375 5.90625 16.0208 5.21875 17C4.53125 17.9792 3.625 18.6875 2.5 19.125V21.875V21.875M10.625 13.75V13.75V13.75V13.75V13.75V13.75V13.75V13.75V13.75V13.75V13.75V13.75V13.75V13.75V13.75V13.75V13.75V13.75V13.75V13.75V13.75V13.75V13.75V13.75V13.75V13.75V13.75V13.75V13.75V13.75" fill="url(#paint0_linear_0_11)"/>
<defs>
<linearGradient id="paint0_linear_0_11" x1="12.1875" y1="0" x2="12.1875" y2="24.375" gradientUnits="userSpaceOnUse">
<stop stop-color="#2864E4"/>
<stop offset="1" stop-color="#ECF2FF"/>
</linearGradient>
</defs>
</svg>
