<svg preserveAspectRatio="none" width="100%" height="100%" overflow="visible" style="display: block;" viewBox="0 0 21.25 27.5" fill="none" xmlns="http://www.w3.org/2000/svg">
<path id="Icon" d="M0 27.5V20H3.125V17.5H0V10H3.125V7.5H0V0H8.75V7.5H5.625V10H8.75V12.5H12.5V10H21.25V17.5H12.5V15H8.75V17.5H5.625V20H8.75V27.5H0V27.5M2.5 25H6.25V22.5H2.5V25V25M2.5 15H6.25V12.5H2.5V15V15M15 15H18.75V12.5H15V15V15M2.5 5H6.25V2.5H2.5V5V5M4.375 3.75V3.75V3.75V3.75V3.75V3.75M4.375 13.75V13.75V13.75V13.75V13.75V13.75M16.875 13.75V13.75V13.75V13.75V13.75V13.75M4.375 23.75V23.75V23.75V23.75V23.75V23.75" fill="url(#paint0_linear_0_12)"/>
<defs>
<linearGradient id="paint0_linear_0_12" x1="10.625" y1="0" x2="10.625" y2="27.5" gradientUnits="userSpaceOnUse">
<stop stop-color="#2864E4"/>
<stop offset="1" stop-color="#ECF2FF"/>
</linearGradient>
</defs>
</svg>
