<svg preserveAspectRatio="none" width="100%" height="100%" overflow="visible" style="display: block;" viewBox="0 0 27.5 27.5" fill="none" xmlns="http://www.w3.org/2000/svg">
<path id="Icon" d="M2.5 27.5V22.25C1.77083 22 1.17188 21.5573 0.703125 20.9219C0.234375 20.2865 0 19.5625 0 18.75V6.25H2.5V1.25C2.5 0.895833 2.61979 0.598958 2.85938 0.359375C3.09896 0.119792 3.39583 0 3.75 0C4.10417 0 4.40104 0.119792 4.64062 0.359375C4.88021 0.598958 5 0.895833 5 1.25V6.25H7.5V18.75C7.5 19.5625 7.26562 20.2865 6.79688 20.9219C6.32812 21.5573 5.72917 22 5 22.25V27.5H2.5V27.5M12.5 27.5V22.25C11.7708 22 11.1719 21.5573 10.7031 20.9219C10.2344 20.2865 10 19.5625 10 18.75V6.25H12.5V1.25C12.5 0.895833 12.6198 0.598958 12.8594 0.359375C13.099 0.119792 13.3958 0 13.75 0C14.1042 0 14.401 0.119792 14.6406 0.359375C14.8802 0.598958 15 0.895833 15 1.25V6.25H17.5V18.75C17.5 19.5625 17.2656 20.2865 16.7969 20.9219C16.3281 21.5573 15.7292 22 15 22.25V27.5H12.5V27.5M22.5 27.5V22.25C21.7708 22 21.1719 21.5573 20.7031 20.9219C20.2344 20.2865 20 19.5625 20 18.75V6.25H22.5V1.25C22.5 0.895833 22.6198 0.598958 22.8594 0.359375C23.099 0.119792 23.3958 0 23.75 0C24.1042 0 24.401 0.119792 24.6406 0.359375C24.8802 0.598958 25 0.895833 25 1.25V6.25H27.5V18.75C27.5 19.5625 27.2656 20.2865 26.7969 20.9219C26.3281 21.5573 25.7292 22 25 22.25V27.5H22.5V27.5M2.5 8.75V13.75H5V8.75H2.5V8.75M12.5 8.75V13.75H15V8.75H12.5V8.75M22.5 8.75V13.75H25V8.75H22.5V8.75M3.75 20C4.10417 20 4.40104 19.8802 4.64062 19.6406C4.88021 19.401 5 19.1042 5 18.75V16.25H2.5V18.75C2.5 19.1042 2.61979 19.401 2.85938 19.6406C3.09896 19.8802 3.39583 20 3.75 20V20M13.75 20C14.1042 20 14.401 19.8802 14.6406 19.6406C14.8802 19.401 15 19.1042 15 18.75V16.25H12.5V18.75C12.5 19.1042 12.6198 19.401 12.8594 19.6406C13.099 19.8802 13.3958 20 13.75 20V20M23.75 20C24.1042 20 24.401 19.8802 24.6406 19.6406C24.8802 19.401 25 19.1042 25 18.75V16.25H22.5V18.75C22.5 19.1042 22.6198 19.401 22.8594 19.6406C23.099 19.8802 23.3958 20 23.75 20V20M3.75 15V15V15V15V15V15M13.75 15V15V15V15V15V15M23.75 15V15V15V15V15V15" fill="url(#paint0_linear_0_4)"/>
<defs>
<linearGradient id="paint0_linear_0_4" x1="13.75" y1="0" x2="13.75" y2="27.5" gradientUnits="userSpaceOnUse">
<stop stop-color="#2864E4"/>
<stop offset="1" stop-color="#ECF2FF"/>
</linearGradient>
</defs>
</svg>
