<svg preserveAspectRatio="none" width="100%" height="100%" overflow="visible" style="display: block;" viewBox="0 0 454.5 38" fill="none" xmlns="http://www.w3.org/2000/svg">
<g id="Container">
<path id="Icon" d="M0 38L22 0L44 38H0V38M6.9 34H37.1L22 8L6.9 34V34M22 32C22.5667 32 23.0417 31.8083 23.425 31.425C23.8083 31.0417 24 30.5667 24 30C24 29.4333 23.8083 28.9583 23.425 28.575C23.0417 28.1917 22.5667 28 22 28C21.4333 28 20.9583 28.1917 20.575 28.575C20.1917 28.9583 20 29.4333 20 30C20 30.5667 20.1917 31.0417 20.575 31.425C20.9583 31.8083 21.4333 32 22 32V32M20 26H24V16H20V26V26M22 21V21V21V21V21" fill="var(--fill-0, #DC2626)"/>
</g>
</svg>
