<svg width="128" height="128" viewBox="0 0 128 128" fill="none" xmlns="http://www.w3.org/2000/svg">
<rect width="128" height="128" rx="24" fill="#006780" fill-opacity="0.05"/>
<path d="M46 82V78L50 74V82H46ZM54 82V70L58 66V82H54ZM62 82V66L66 70.05V82H62ZM70 82V70.05L74 66.05V82H70ZM78 82V62L82 58V82H78ZM46 71.65V66L60 52L68 60L82 46V51.65L68 65.65L60 57.65L46 71.65Z" fill="url(#paint0_linear_500_7624)"/>
<defs>
<linearGradient id="paint0_linear_500_7624" x1="64" y1="46" x2="64" y2="82" gradientUnits="userSpaceOnUse">
<stop stop-color="#2864E4"/>
<stop offset="1" stop-color="#ECF2FF"/>
</linearGradient>
</defs>
</svg>
