<svg width="56" height="56" viewBox="0 0 56 56" fill="none" xmlns="http://www.w3.org/2000/svg">
<rect width="56" height="56" rx="16" fill="#006780" fill-opacity="0.05"/>
<rect x="0.5" y="0.5" width="55" height="55" rx="15.5" stroke="white" stroke-opacity="0.1"/>
<path d="M30.5 29.25C29.4583 29.25 28.5729 28.8854 27.8438 28.1562C27.1146 27.4271 26.75 26.5417 26.75 25.5C26.75 24.4583 27.1146 23.5729 27.8438 22.8438C28.5729 22.1146 29.4583 21.75 30.5 21.75C31.5417 21.75 32.4271 22.1146 33.1562 22.8438C33.8854 23.5729 34.25 24.4583 34.25 25.5C34.25 26.5417 33.8854 27.4271 33.1562 28.1562C32.4271 28.8854 31.5417 29.25 30.5 29.25ZM21.75 33C21.0625 33 20.474 32.7552 19.9844 32.2656C19.4948 31.776 19.25 31.1875 19.25 30.5V20.5C19.25 19.8125 19.4948 19.224 19.9844 18.7344C20.474 18.2448 21.0625 18 21.75 18H39.25C39.9375 18 40.526 18.2448 41.0156 18.7344C41.5052 19.224 41.75 19.8125 41.75 20.5V30.5C41.75 31.1875 41.5052 31.776 41.0156 32.2656C40.526 32.7552 39.9375 33 39.25 33H21.75ZM24.25 30.5H36.75C36.75 29.8125 36.9948 29.224 37.4844 28.7344C37.974 28.2448 38.5625 28 39.25 28V23C38.5625 23 37.974 22.7552 37.4844 22.2656C36.9948 21.776 36.75 21.1875 36.75 20.5H24.25C24.25 21.1875 24.0052 21.776 23.5156 22.2656C23.026 22.7552 22.4375 23 21.75 23V28C22.4375 28 23.026 28.2448 23.5156 28.7344C24.0052 29.224 24.25 29.8125 24.25 30.5ZM38 38H16.75C16.0625 38 15.474 37.7552 14.9844 37.2656C14.4948 36.776 14.25 36.1875 14.25 35.5V21.75H16.75V35.5H38V38ZM21.75 30.5V20.5V30.5Z" fill="url(#paint0_linear_500_7564)"/>
<defs>
<linearGradient id="paint0_linear_500_7564" x1="28" y1="18" x2="28" y2="38" gradientUnits="userSpaceOnUse">
<stop stop-color="#2864E4"/>
<stop offset="1" stop-color="#ECF2FF"/>
</linearGradient>
</defs>
</svg>
