<svg width="64" height="64" viewBox="0 0 64 64" fill="none" xmlns="http://www.w3.org/2000/svg">
<rect width="64" height="64" rx="16" fill="#B7EAFF" fill-opacity="0.2"/>
<path d="M32 47C28.525 46.125 25.6562 44.1312 23.3937 41.0187C21.1312 37.9062 20 34.45 20 30.65V21.5L32 17L44 21.5V30.65C44 34.45 42.8688 37.9062 40.6063 41.0187C38.3438 44.1312 35.475 46.125 32 47ZM32 43.85C34.425 43.1 36.45 41.6187 38.075 39.4062C39.7 37.1938 40.65 34.725 40.925 32H32V20.1875L23 23.5625V30.65C23 30.925 23 31.15 23 31.325C23 31.5 23.025 31.725 23.075 32H32V43.85Z" fill="url(#paint0_linear_500_7175)"/>
<defs>
<linearGradient id="paint0_linear_500_7175" x1="32" y1="17" x2="32" y2="47" gradientUnits="userSpaceOnUse">
<stop stop-color="#2864E4"/>
<stop offset="1" stop-color="#ECF2FF"/>
</linearGradient>
</defs>
</svg>
