<svg width="64" height="64" viewBox="0 0 64 64" fill="none" xmlns="http://www.w3.org/2000/svg">
<rect width="64" height="64" rx="16" fill="#63D7FE" fill-opacity="0.2"/>
<path d="M32 45.5C28.225 45.5 25.0312 44.9188 22.4188 43.7563C19.8063 42.5938 18.5 41.175 18.5 39.5V24.5C18.5 22.85 19.8187 21.4375 22.4562 20.2625C25.0938 19.0875 28.275 18.5 32 18.5C35.725 18.5 38.9062 19.0875 41.5438 20.2625C44.1813 21.4375 45.5 22.85 45.5 24.5V39.5C45.5 41.175 44.1937 42.5938 41.5812 43.7563C38.9688 44.9188 35.775 45.5 32 45.5ZM32 27.5375C34.225 27.5375 36.4625 27.2188 38.7125 26.5813C40.9625 25.9438 42.225 25.2625 42.5 24.5375C42.225 23.8125 40.9688 23.125 38.7313 22.475C36.4938 21.825 34.25 21.5 32 21.5C29.725 21.5 27.4937 21.8187 25.3063 22.4562C23.1188 23.0938 21.85 23.7875 21.5 24.5375C21.85 25.2875 23.1188 25.975 25.3063 26.6C27.4937 27.225 29.725 27.5375 32 27.5375ZM32 35C33.05 35 34.0625 34.95 35.0375 34.85C36.0125 34.75 36.9437 34.6063 37.8312 34.4187C38.7188 34.2312 39.5562 34 40.3438 33.725C41.1313 33.45 41.85 33.1375 42.5 32.7875V28.2875C41.85 28.6375 41.1313 28.95 40.3438 29.225C39.5562 29.5 38.7188 29.7312 37.8312 29.9187C36.9437 30.1062 36.0125 30.25 35.0375 30.35C34.0625 30.45 33.05 30.5 32 30.5C30.95 30.5 29.925 30.45 28.925 30.35C27.925 30.25 26.9812 30.1062 26.0938 29.9187C25.2063 29.7312 24.375 29.5 23.6 29.225C22.825 28.95 22.125 28.6375 21.5 28.2875V32.7875C22.125 33.1375 22.825 33.45 23.6 33.725C24.375 34 25.2063 34.2312 26.0938 34.4187C26.9812 34.6063 27.925 34.75 28.925 34.85C29.925 34.95 30.95 35 32 35ZM32 42.5C33.15 42.5 34.3188 42.4125 35.5063 42.2375C36.6938 42.0625 37.7875 41.8313 38.7875 41.5438C39.7875 41.2563 40.625 40.9312 41.3 40.5688C41.975 40.2063 42.375 39.8375 42.5 39.4625V35.7875C41.85 36.1375 41.1313 36.45 40.3438 36.725C39.5562 37 38.7188 37.2313 37.8312 37.4188C36.9437 37.6063 36.0125 37.75 35.0375 37.85C34.0625 37.95 33.05 38 32 38C30.95 38 29.925 37.95 28.925 37.85C27.925 37.75 26.9812 37.6063 26.0938 37.4188C25.2063 37.2313 24.375 37 23.6 36.725C22.825 36.45 22.125 36.1375 21.5 35.7875V39.5C21.625 39.875 22.0188 40.2375 22.6813 40.5875C23.3438 40.9375 24.175 41.2563 25.175 41.5438C26.175 41.8313 27.275 42.0625 28.475 42.2375C29.675 42.4125 30.85 42.5 32 42.5Z" fill="url(#paint0_linear_500_7217)"/>
<defs>
<linearGradient id="paint0_linear_500_7217" x1="32" y1="18.5" x2="32" y2="45.5" gradientUnits="userSpaceOnUse">
<stop stop-color="#2864E4"/>
<stop offset="1" stop-color="#ECF2FF"/>
</linearGradient>
</defs>
</svg>
