<svg width="64" height="64" viewBox="0 0 64 64" fill="none" xmlns="http://www.w3.org/2000/svg">
<rect width="64" height="64" rx="16" fill="#ABC7FF" fill-opacity="0.2"/>
<path d="M24.5 39.5H27.5V32H24.5V39.5ZM36.5 39.5H39.5V24.5H36.5V39.5ZM30.5 39.5H33.5V35H30.5V39.5ZM30.5 32H33.5V29H30.5V32ZM21.5 45.5C20.675 45.5 19.9688 45.2062 19.3813 44.6187C18.7938 44.0312 18.5 43.325 18.5 42.5V21.5C18.5 20.675 18.7938 19.9688 19.3813 19.3813C19.9688 18.7938 20.675 18.5 21.5 18.5H42.5C43.325 18.5 44.0312 18.7938 44.6187 19.3813C45.2062 19.9688 45.5 20.675 45.5 21.5V42.5C45.5 43.325 45.2062 44.0312 44.6187 44.6187C44.0312 45.2062 43.325 45.5 42.5 45.5H21.5ZM21.5 42.5H42.5V21.5H21.5V42.5ZM21.5 21.5V42.5V21.5Z" fill="url(#paint0_linear_500_7196)"/>
<defs>
<linearGradient id="paint0_linear_500_7196" x1="32" y1="18.5" x2="32" y2="45.5" gradientUnits="userSpaceOnUse">
<stop stop-color="#2864E4"/>
<stop offset="1" stop-color="#ECF2FF"/>
</linearGradient>
</defs>
</svg>
