<svg width="365" height="32" viewBox="0 0 365 32" fill="none" xmlns="http://www.w3.org/2000/svg">
<rect y="4" width="96" height="24" rx="12" fill="white" fill-opacity="0.1"/>
<rect x="332.391" width="32" height="32" rx="16" fill="#2F80ED" fill-opacity="0.2"/>
<path d="M343.725 20.0834V18.9167H344.891V14.8334C344.891 14.0265 345.134 13.3095 345.62 12.6824C346.107 12.0553 346.738 11.6445 347.516 11.4501V11.0417C347.516 10.7987 347.601 10.5921 347.771 10.422C347.942 10.2518 348.148 10.1667 348.391 10.1667C348.634 10.1667 348.841 10.2518 349.011 10.422C349.181 10.5921 349.266 10.7987 349.266 11.0417V11.4501C350.044 11.6445 350.676 12.0553 351.162 12.6824C351.648 13.3095 351.891 14.0265 351.891 14.8334V18.9167H353.058V20.0834H343.725ZM348.391 21.8334C348.07 21.8334 347.796 21.7192 347.567 21.4907C347.339 21.2622 347.225 20.9876 347.225 20.6667H349.558C349.558 20.9876 349.444 21.2622 349.215 21.4907C348.987 21.7192 348.712 21.8334 348.391 21.8334ZM346.058 18.9167H350.725V14.8334C350.725 14.1917 350.496 13.6424 350.039 13.1855C349.582 12.7286 349.033 12.5001 348.391 12.5001C347.75 12.5001 347.2 12.7286 346.743 13.1855C346.286 13.6424 346.058 14.1917 346.058 14.8334V18.9167Z" fill="#2F80ED"/>
</svg>
