<svg preserveAspectRatio="none" width="100%" height="100%" overflow="visible" style="display: block;" viewBox="0 0 11.6667 11.6667" fill="none" xmlns="http://www.w3.org/2000/svg">
<g id="Container">
<path id="Icon" d="M5.83333 11.6667C5.03611 11.6667 4.28264 11.5135 3.57292 11.2073C2.86319 10.901 2.2434 10.483 1.71354 9.95312C1.18368 9.42326 0.765625 8.80347 0.459375 8.09375C0.153125 7.38403 0 6.63056 0 5.83333C0 5.02639 0.157986 4.26806 0.473958 3.55833C0.789931 2.84861 1.21771 2.23125 1.75729 1.70625C2.29688 1.18125 2.92639 0.765625 3.64583 0.459375C4.36528 0.153125 5.13333 0 5.95 0C6.72778 0 7.46181 0.133681 8.15208 0.401042C8.84236 0.668403 9.44757 1.03785 9.96771 1.50937C10.4878 1.9809 10.901 2.53993 11.2073 3.18646C11.5135 3.83299 11.6667 4.53056 11.6667 5.27917C11.6667 6.39722 11.3264 7.25521 10.6458 7.85313C9.96528 8.45104 9.13889 8.75 8.16667 8.75H7.0875C7 8.75 6.93924 8.77431 6.90521 8.82292C6.87118 8.87153 6.85417 8.925 6.85417 8.98333C6.85417 9.1 6.92708 9.26771 7.07292 9.48646C7.21875 9.70521 7.29167 9.95556 7.29167 10.2375C7.29167 10.7236 7.15799 11.0833 6.89062 11.3167C6.62326 11.55 6.27083 11.6667 5.83333 11.6667V11.6667M5.83333 5.83333V5.83333V5.83333V5.83333V5.83333V5.83333V5.83333V5.83333V5.83333V5.83333V5.83333V5.83333V5.83333V5.83333V5.83333V5.83333V5.83333M2.625 6.41667C2.87778 6.41667 3.08681 6.33403 3.25208 6.16875C3.41736 6.00347 3.5 5.79444 3.5 5.54167C3.5 5.28889 3.41736 5.07986 3.25208 4.91458C3.08681 4.74931 2.87778 4.66667 2.625 4.66667C2.37222 4.66667 2.16319 4.74931 1.99792 4.91458C1.83264 5.07986 1.75 5.28889 1.75 5.54167C1.75 5.79444 1.83264 6.00347 1.99792 6.16875C2.16319 6.33403 2.37222 6.41667 2.625 6.41667V6.41667M4.375 4.08333C4.62778 4.08333 4.83681 4.00069 5.00208 3.83542C5.16736 3.67014 5.25 3.46111 5.25 3.20833C5.25 2.95556 5.16736 2.74653 5.00208 2.58125C4.83681 2.41597 4.62778 2.33333 4.375 2.33333C4.12222 2.33333 3.91319 2.41597 3.74792 2.58125C3.58264 2.74653 3.5 2.95556 3.5 3.20833C3.5 3.46111 3.58264 3.67014 3.74792 3.83542C3.91319 4.00069 4.12222 4.08333 4.375 4.08333V4.08333M7.29167 4.08333C7.54444 4.08333 7.75347 4.00069 7.91875 3.83542C8.08403 3.67014 8.16667 3.46111 8.16667 3.20833C8.16667 2.95556 8.08403 2.74653 7.91875 2.58125C7.75347 2.41597 7.54444 2.33333 7.29167 2.33333C7.03889 2.33333 6.82986 2.41597 6.66458 2.58125C6.49931 2.74653 6.41667 2.95556 6.41667 3.20833C6.41667 3.46111 6.49931 3.67014 6.66458 3.83542C6.82986 4.00069 7.03889 4.08333 7.29167 4.08333V4.08333M9.04167 6.41667C9.29444 6.41667 9.50347 6.33403 9.66875 6.16875C9.83403 6.00347 9.91667 5.79444 9.91667 5.54167C9.91667 5.28889 9.83403 5.07986 9.66875 4.91458C9.50347 4.74931 9.29444 4.66667 9.04167 4.66667C8.78889 4.66667 8.57986 4.74931 8.41458 4.91458C8.24931 5.07986 8.16667 5.28889 8.16667 5.54167C8.16667 5.79444 8.24931 6.00347 8.41458 6.16875C8.57986 6.33403 8.78889 6.41667 9.04167 6.41667V6.41667M5.83333 10.5C5.92083 10.5 5.99132 10.4757 6.04479 10.4271C6.09826 10.3785 6.125 10.3153 6.125 10.2375C6.125 10.1014 6.05208 9.94097 5.90625 9.75625C5.76042 9.57153 5.6875 9.29444 5.6875 8.925C5.6875 8.51667 5.82847 8.19097 6.11042 7.94792C6.39236 7.70486 6.7375 7.58333 7.14583 7.58333H8.16667C8.80833 7.58333 9.35764 7.39618 9.81458 7.02187C10.2715 6.64757 10.5 6.06667 10.5 5.27917C10.5 4.10278 10.0503 3.12326 9.15104 2.34063C8.25174 1.55799 7.18472 1.16667 5.95 1.16667C4.62778 1.16667 3.5 1.61875 2.56667 2.52292C1.63333 3.42708 1.16667 4.53056 1.16667 5.83333C1.16667 7.12639 1.62118 8.22743 2.53021 9.13646C3.43924 10.0455 4.54028 10.5 5.83333 10.5V10.5" fill="var(--fill-0, white)"/>
</g>
</svg>
