<svg width="55" height="89" viewBox="0 0 55 89" fill="none" xmlns="http://www.w3.org/2000/svg">
<g filter="url(#filter0_d_500_22241)">
<rect x="2.00727" y="1.00363" width="50.9343" height="55.8801" rx="12" fill="white" shape-rendering="crispEdges"/>
<path d="M26.1572 32.951L32.811 26.2971L31.4697 24.9557L26.1572 30.2682L23.4985 27.6096L22.1571 28.9509L26.1572 32.951ZM27.4744 40.8256C24.7611 40.0858 22.5146 38.4886 20.7349 36.0342C18.9553 33.5799 18.0654 30.836 18.0654 27.8025V20.5841L27.4744 17.0618L36.8835 20.5841V27.8025C36.8835 30.836 35.9936 33.5799 34.214 36.0342C32.4343 38.4886 30.1878 40.0858 27.4744 40.8256ZM27.4744 38.8425C29.649 38.1525 31.4472 36.7725 32.869 34.7025C34.2908 32.6325 35.0017 30.3325 35.0017 27.8025V21.8748L27.4744 19.0642L19.9472 21.8748V27.8025C19.9472 30.3325 20.6581 32.6325 22.0799 34.7025C23.5017 36.7725 25.2999 38.1525 27.4744 38.8425Z" fill="url(#paint0_linear_500_22241)"/>
</g>
<defs>
<filter id="filter0_d_500_22241" x="0" y="0" width="54.949" height="59.8946" filterUnits="userSpaceOnUse" color-interpolation-filters="sRGB">
<feFlood flood-opacity="0" result="BackgroundImageFix"/>
<feColorMatrix in="SourceAlpha" type="matrix" values="0 0 0 0 0 0 0 0 0 0 0 0 0 0 0 0 0 0 127 0" result="hardAlpha"/>
<feOffset dy="1"/>
<feGaussianBlur stdDeviation="1"/>
<feComposite in2="hardAlpha" operator="out"/>
<feColorMatrix type="matrix" values="0 0 0 0 0 0 0 0 0 0 0 0 0 0 0 0 0 0 0.05 0"/>
<feBlend mode="normal" in2="BackgroundImageFix" result="effect1_dropShadow_500_22241"/>
<feBlend mode="normal" in="SourceGraphic" in2="effect1_dropShadow_500_22241" result="shape"/>
</filter>
<linearGradient id="paint0_linear_500_22241" x1="27.4744" y1="17.0618" x2="27.4744" y2="40.8256" gradientUnits="userSpaceOnUse">
<stop stop-color="#2864E4"/>
<stop offset="1" stop-color="#ECF2FF"/>
</linearGradient>
</defs>
</svg>
