<svg width="24" height="24" viewBox="18 17 19 24" fill="none" xmlns="http://www.w3.org/2000/svg">
<path d="M25.8942 32.3816H29.0547L28.3454 28.4201C28.7394 28.2513 29.0567 27.9863 29.2971 27.6252C29.5376 27.2641 29.6578 26.8632 29.6578 26.4225C29.6578 25.821 29.4443 25.3067 29.0173 24.8797C28.5902 24.4527 28.076 24.2392 27.4744 24.2392C26.8729 24.2392 26.3586 24.4527 25.9316 24.8797C25.5046 25.3067 25.2911 25.821 25.2911 26.4225C25.2911 26.8632 25.4113 27.2641 25.6518 27.6252C25.8922 27.9863 26.2095 28.2513 26.6035 28.4201L25.8942 32.3816ZM27.4744 40.8256C24.7611 40.0858 22.5146 38.4886 20.7349 36.0342C18.9553 33.5799 18.0654 30.836 18.0654 27.8025V20.5841L27.4744 17.0618L36.8835 20.5841V27.8025C36.8835 30.836 35.9936 33.5799 34.214 36.0342C32.4343 38.4886 30.1878 40.0858 27.4744 40.8256ZM27.4744 38.8425C29.649 38.1525 31.4472 36.7725 32.869 34.7025C34.2908 32.6325 35.0017 30.3325 35.0017 27.8025V21.8748L27.4744 19.0642L19.9472 21.8748V27.8025C19.9472 30.3325 20.6581 32.6325 22.0799 34.7025C23.5017 36.7725 25.2999 38.1525 27.4744 38.8425Z" fill="url(#paint0_linear_500_22257)"/>
<defs>
<linearGradient id="paint0_linear_500_22257" x1="27.4744" y1="17.0618" x2="27.4744" y2="40.8256" gradientUnits="userSpaceOnUse">
<stop stop-color="#2864E4"/>
<stop offset="1" stop-color="#ECF2FF"/>
</linearGradient>
</defs>
</svg>
