<svg preserveAspectRatio="none" width="100%" height="100%" overflow="visible" style="display: block;" viewBox="0 0 57.1055 57.1776" fill="none" xmlns="http://www.w3.org/2000/svg">
<g id="Background+Shadow" filter="url(#filter0_d_2025_4886)">
<rect x="2" y="1" width="53.1055" height="53.1776" rx="12" fill="var(--fill-0, white)" shape-rendering="crispEdges"/>
<path id="Icon" d="M25.5527 33.1489L28.5527 30.8364L31.5527 33.1489L30.4277 29.3364L33.2402 27.3364H29.7402L28.5527 23.4614L27.3652 27.3364H23.8652L26.6777 29.3364L25.5527 33.1489V33.1489M21.9999 38.1776L24.4614 30.096L18 25.4614H26.0095L28.5527 17L31.096 25.4614H39.1055L32.644 30.096L35.1055 38.1776L28.5527 33.1921L21.9999 38.1776V38.1776M28.5527 28.3051V28.3051V28.3051V28.3051V28.3051V28.3051V28.3051V28.3051V28.3051V28.3051V28.3051V28.3051" fill="url(#paint0_linear_2025_4886)"/>
</g>
<defs>
<filter id="filter0_d_2025_4886" x="0" y="0" width="57.1055" height="57.1776" filterUnits="userSpaceOnUse" color-interpolation-filters="sRGB">
<feFlood flood-opacity="0" result="BackgroundImageFix"/>
<feColorMatrix in="SourceAlpha" type="matrix" values="0 0 0 0 0 0 0 0 0 0 0 0 0 0 0 0 0 0 127 0" result="hardAlpha"/>
<feOffset dy="1"/>
<feGaussianBlur stdDeviation="1"/>
<feComposite in2="hardAlpha" operator="out"/>
<feColorMatrix type="matrix" values="0 0 0 0 0 0 0 0 0 0 0 0 0 0 0 0 0 0 0.05 0"/>
<feBlend mode="normal" in2="BackgroundImageFix" result="effect1_dropShadow_2025_4886"/>
<feBlend mode="normal" in="SourceGraphic" in2="effect1_dropShadow_2025_4886" result="shape"/>
</filter>
<linearGradient id="paint0_linear_2025_4886" x1="28.5527" y1="17" x2="28.5527" y2="38.1776" gradientUnits="userSpaceOnUse">
<stop stop-color="#2864E4"/>
<stop offset="1" stop-color="#ECF2FF"/>
</linearGradient>
</defs>
</svg>
