<svg preserveAspectRatio="none" width="100%" height="100%" overflow="visible" style="display: block;" viewBox="0 0 42 44" fill="none" xmlns="http://www.w3.org/2000/svg">
<g id="Background">
<rect width="42" height="44" rx="8" fill="var(--fill-0, #ECEEF1)"/>
<path id="Icon" d="M19.95 28.35L16.4 24.8L17.85 23.35L19.95 25.45L24.15 21.25L25.6 22.7L19.95 28.35V28.35M14 32C13.45 32 12.9792 31.8042 12.5875 31.4125C12.1958 31.0208 12 30.55 12 30V16C12 15.45 12.1958 14.9792 12.5875 14.5875C12.9792 14.1958 13.45 14 14 14H15V12H17V14H25V12H27V14H28C28.55 14 29.0208 14.1958 29.4125 14.5875C29.8042 14.9792 30 15.45 30 16V30C30 30.55 29.8042 31.0208 29.4125 31.4125C29.0208 31.8042 28.55 32 28 32H14V32M14 30H28V30V30V20H14V30V30V30V30M14 18H28V16V16V16H14V16V16V18V18M14 18V16V16V16V16V16V16V18V18V18" fill="var(--fill-0, #006780)"/>
</g>
</svg>
