<svg preserveAspectRatio="none" width="100%" height="100%" overflow="visible" style="display: block;" viewBox="0 0 44 44" fill="none" xmlns="http://www.w3.org/2000/svg">
<g id="Background">
<rect width="44" height="44" rx="8" fill="var(--fill-0, #ECEEF1)"/>
<path id="Icon" d="M25.3 26.7L26.7 25.3L23 21.6V17H21V22.4L25.3 26.7V26.7M22 32C20.6167 32 19.3167 31.7375 18.1 31.2125C16.8833 30.6875 15.825 29.975 14.925 29.075C14.025 28.175 13.3125 27.1167 12.7875 25.9C12.2625 24.6833 12 23.3833 12 22C12 20.6167 12.2625 19.3167 12.7875 18.1C13.3125 16.8833 14.025 15.825 14.925 14.925C15.825 14.025 16.8833 13.3125 18.1 12.7875C19.3167 12.2625 20.6167 12 22 12C23.3833 12 24.6833 12.2625 25.9 12.7875C27.1167 13.3125 28.175 14.025 29.075 14.925C29.975 15.825 30.6875 16.8833 31.2125 18.1C31.7375 19.3167 32 20.6167 32 22C32 23.3833 31.7375 24.6833 31.2125 25.9C30.6875 27.1167 29.975 28.175 29.075 29.075C28.175 29.975 27.1167 30.6875 25.9 31.2125C24.6833 31.7375 23.3833 32 22 32V32M22 22V22V22V22V22V22V22V22V22V22M22 30C24.2167 30 26.1042 29.2208 27.6625 27.6625C29.2208 26.1042 30 24.2167 30 22C30 19.7833 29.2208 17.8958 27.6625 16.3375C26.1042 14.7792 24.2167 14 22 14C19.7833 14 17.8958 14.7792 16.3375 16.3375C14.7792 17.8958 14 19.7833 14 22C14 24.2167 14.7792 26.1042 16.3375 27.6625C17.8958 29.2208 19.7833 30 22 30V30" fill="var(--fill-0, #005AB6)"/>
</g>
</svg>
