<svg width="52" height="44" viewBox="0 0 52 44" fill="none" xmlns="http://www.w3.org/2000/svg">
<rect width="51.5" height="44" rx="12" fill="#1672DF" fill-opacity="0.2"/>
<path d="M28.25 23.25C27.2083 23.25 26.3229 22.8854 25.5938 22.1562C24.8646 21.4271 24.5 20.5417 24.5 19.5C24.5 18.4583 24.8646 17.5729 25.5938 16.8438C26.3229 16.1146 27.2083 15.75 28.25 15.75C29.2917 15.75 30.1771 16.1146 30.9062 16.8438C31.6354 17.5729 32 18.4583 32 19.5C32 20.5417 31.6354 21.4271 30.9062 22.1562C30.1771 22.8854 29.2917 23.25 28.25 23.25ZM19.5 27C18.8125 27 18.224 26.7552 17.7344 26.2656C17.2448 25.776 17 25.1875 17 24.5V14.5C17 13.8125 17.2448 13.224 17.7344 12.7344C18.224 12.2448 18.8125 12 19.5 12H37C37.6875 12 38.276 12.2448 38.7656 12.7344C39.2552 13.224 39.5 13.8125 39.5 14.5V24.5C39.5 25.1875 39.2552 25.776 38.7656 26.2656C38.276 26.7552 37.6875 27 37 27H19.5ZM22 24.5H34.5C34.5 23.8125 34.7448 23.224 35.2344 22.7344C35.724 22.2448 36.3125 22 37 22V17C36.3125 17 35.724 16.7552 35.2344 16.2656C34.7448 15.776 34.5 15.1875 34.5 14.5H22C22 15.1875 21.7552 15.776 21.2656 16.2656C20.776 16.7552 20.1875 17 19.5 17V22C20.1875 22 20.776 22.2448 21.2656 22.7344C21.7552 23.224 22 23.8125 22 24.5ZM35.75 32H14.5C13.8125 32 13.224 31.7552 12.7344 31.2656C12.2448 30.776 12 30.1875 12 29.5V15.75H14.5V29.5H35.75V32Z" fill="url(#paint0_linear_500_7848)"/>
<defs>
<linearGradient id="paint0_linear_500_7848" x1="25.75" y1="12" x2="25.75" y2="32" gradientUnits="userSpaceOnUse">
<stop stop-color="#2864E4"/>
<stop offset="1" stop-color="#ECF2FF"/>
</linearGradient>
</defs>
</svg>
