<svg width="48" height="48" viewBox="0 0 48 48" fill="none" xmlns="http://www.w3.org/2000/svg">
<rect width="48" height="48" rx="12" fill="#E6E8EB"/>
<path d="M21.6 28.6L23 27.15L20.85 25L23 22.85L21.6 21.4L18 25L21.6 28.6ZM26.4 28.6L30 25L26.4 21.4L25 22.85L27.15 25L25 27.15L26.4 28.6ZM17 34C16.45 34 15.9792 33.8042 15.5875 33.4125C15.1958 33.0208 15 32.55 15 32V18C15 17.45 15.1958 16.9792 15.5875 16.5875C15.9792 16.1958 16.45 16 17 16H21.2C21.4167 15.4 21.7792 14.9167 22.2875 14.55C22.7958 14.1833 23.3667 14 24 14C24.6333 14 25.2042 14.1833 25.7125 14.55C26.2208 14.9167 26.5833 15.4 26.8 16H31C31.55 16 32.0208 16.1958 32.4125 16.5875C32.8042 16.9792 33 17.45 33 18V32C33 32.55 32.8042 33.0208 32.4125 33.4125C32.0208 33.8042 31.55 34 31 34H17ZM17 32H31V18H17V32ZM24 17.25C24.2167 17.25 24.3958 17.1792 24.5375 17.0375C24.6792 16.8958 24.75 16.7167 24.75 16.5C24.75 16.2833 24.6792 16.1042 24.5375 15.9625C24.3958 15.8208 24.2167 15.75 24 15.75C23.7833 15.75 23.6042 15.8208 23.4625 15.9625C23.3208 16.1042 23.25 16.2833 23.25 16.5C23.25 16.7167 23.3208 16.8958 23.4625 17.0375C23.6042 17.1792 23.7833 17.25 24 17.25ZM17 32V18V32Z" fill="#414753"/>
</svg>
