<svg width="412" height="190" viewBox="0 0 412 190" fill="none" xmlns="http://www.w3.org/2000/svg">
<path d="M9.51154 133.355C9.51154 128.931 13.0976 125.345 17.5213 125.345H54.4232C58.8468 125.345 62.4329 128.931 62.4329 133.355V189.423H9.51154V133.355Z" fill="#005AB6" fill-opacity="0.1"/>
<path d="M66.4378 101.316C66.4378 96.8922 70.0239 93.3061 74.4475 93.3061H111.349C115.773 93.3061 119.359 96.8922 119.359 101.316V189.423H66.4378V101.316Z" fill="#005AB6" fill-opacity="0.15"/>
<path d="M123.364 125.345C123.364 120.921 126.95 117.335 131.374 117.335H168.276C172.699 117.335 176.285 120.921 176.285 125.345V189.423H123.364V125.345Z" fill="#005AB6" fill-opacity="0.2"/>
<path d="M180.29 69.2769C180.29 64.8533 183.876 61.2672 188.3 61.2672H225.202C229.626 61.2672 233.212 64.8533 233.212 69.2769V189.423H180.29V69.2769Z" fill="#005AB6" fill-opacity="0.25"/>
<path d="M237.216 93.3061C237.216 88.8825 240.803 85.2964 245.226 85.2964H282.128C286.552 85.2964 290.138 88.8825 290.138 93.3061V189.423H237.216V93.3061Z" fill="#005AB6" fill-opacity="0.3"/>
<path d="M294.143 53.2575C294.143 48.8339 297.729 45.2478 302.152 45.2478H339.054C343.478 45.2478 347.064 48.8339 347.064 53.2575V189.423H294.143V53.2575Z" fill="#005AB6" fill-opacity="0.4"/>
<path d="M351.069 37.2381C351.069 32.8144 354.655 29.2283 359.079 29.2283H395.981C400.404 29.2283 403.99 32.8144 403.99 37.2381V189.423H351.069V37.2381Z" fill="url(#paint0_linear_500_7898)"/>
<path d="M1.50182 109.325C34.8757 136.025 68.2495 129.35 101.623 89.3012C134.997 49.2526 168.371 42.5778 201.745 69.2769C235.119 95.9759 268.493 85.9638 301.866 39.2404C335.24 -7.48295 368.614 -10.8203 401.988 29.2283" stroke="url(#paint1_linear_500_7898)" stroke-width="3" stroke-linecap="round"/>
<defs>
<linearGradient id="paint0_linear_500_7898" x1="377.53" y1="29.2283" x2="377.53" y2="189.423" gradientUnits="userSpaceOnUse">
<stop stop-color="#2864E4"/>
<stop offset="1" stop-color="#ECF2FF"/>
</linearGradient>
<linearGradient id="paint1_linear_500_7898" x1="201.745" y1="1.50231" x2="201.745" y2="125.345" gradientUnits="userSpaceOnUse">
<stop stop-color="#2864E4"/>
<stop offset="1" stop-color="#ECF2FF"/>
</linearGradient>
</defs>
</svg>
