<svg width="388" height="280" viewBox="0 0 388 280" fill="none" xmlns="http://www.w3.org/2000/svg">
<g clip-path="url(#clip0_507_6129)">
<rect width="387.333" height="280" fill="#0E0E0E"/>
<rect x="24" y="24" width="339.333" height="232" rx="12" fill="#201F1F"/>
<rect x="24.5" y="24.5" width="338.333" height="231" rx="11.5" stroke="#414753" stroke-opacity="0.2"/>
<g filter="url(#filter0_d_507_6129)">
<rect x="24" y="24" width="339.33" height="232" rx="12" fill="white" fill-opacity="0.01" shape-rendering="crispEdges"/>
</g>
<rect x="41" y="44.5" width="8" height="8" rx="4" fill="#60D4FB"/>
<path d="M60.208 52.127C59.6839 52.127 59.229 52.0423 58.8433 51.873C58.4575 51.7038 58.1556 51.467 57.9375 51.1626C57.7194 50.8582 57.5957 50.5026 57.5664 50.0957H58.5186C58.5446 50.3691 58.6374 50.5946 58.7969 50.772C58.9564 50.9494 59.1606 51.0812 59.4097 51.1675C59.6587 51.2537 59.9248 51.2969 60.208 51.2969C60.5368 51.2969 60.8322 51.2432 61.0942 51.1357C61.3563 51.0283 61.5638 50.877 61.7168 50.6816C61.8698 50.4863 61.9463 50.2601 61.9463 50.0029C61.9463 49.7686 61.8804 49.5781 61.7485 49.4316C61.6167 49.2852 61.4417 49.1647 61.2236 49.0703C61.0055 48.9759 60.7663 48.8929 60.5059 48.8213L59.627 48.5723C59.041 48.4062 58.5853 48.1686 58.2598 47.8594C57.9342 47.5501 57.7715 47.1546 57.7715 46.6729C57.7715 46.2627 57.8822 45.9038 58.1035 45.5962C58.3249 45.2886 58.6243 45.0501 59.002 44.8809C59.3796 44.7116 59.8027 44.627 60.2715 44.627C60.75 44.627 61.1732 44.7116 61.541 44.8809C61.9089 45.0501 62.1994 45.2804 62.4126 45.5718C62.6258 45.8631 62.7389 46.1927 62.752 46.5605H61.8438C61.8014 46.2057 61.6322 45.9315 61.3359 45.7378C61.0397 45.5441 60.6751 45.4473 60.2422 45.4473C59.9297 45.4473 59.6554 45.4985 59.4194 45.6011C59.1834 45.7036 59.0003 45.8436 58.8701 46.021C58.7399 46.1984 58.6748 46.401 58.6748 46.6289C58.6748 46.8828 58.7537 47.0871 58.9116 47.2417C59.0695 47.3963 59.2567 47.5168 59.4731 47.603C59.6896 47.6893 59.8857 47.7568 60.0615 47.8057L60.7891 48.0059C60.9844 48.0579 61.2 48.1296 61.436 48.2207C61.672 48.3118 61.8975 48.4331 62.1123 48.5845C62.3271 48.7358 62.5037 48.9279 62.6421 49.1606C62.7804 49.3934 62.8496 49.679 62.8496 50.0176C62.8496 50.4147 62.7463 50.7728 62.5396 51.0918C62.3328 51.4108 62.0326 51.6631 61.6387 51.8486C61.2448 52.0342 60.7679 52.127 60.208 52.127ZM63.8457 45.5449V44.7246H69.3438V45.5449H67.0635V52H66.1357V45.5449H63.8457ZM69.2266 52L71.8682 44.7246H72.9424L75.6182 52H74.6416L73.0986 47.6836C73.0042 47.4167 72.8944 47.0838 72.769 46.6851C72.6437 46.2863 72.4915 45.7777 72.3125 45.1592H72.4883C72.3125 45.7842 72.1603 46.2993 72.0317 46.7046C71.9032 47.1099 71.7965 47.4362 71.7119 47.6836L70.2129 52H69.2266ZM70.5547 49.9688V49.1582H74.29V49.9688H70.5547ZM75.501 45.5449V44.7246H80.999V45.5449H78.7188V52H77.791V45.5449H75.501ZM85.2031 52.1172C84.6302 52.1172 84.1297 52.0049 83.7017 51.7803C83.2736 51.5557 82.9424 51.248 82.708 50.8574C82.4736 50.4668 82.3564 50.0225 82.3564 49.5244V44.7246H83.2842V49.4512C83.2842 49.7995 83.3615 50.1095 83.5161 50.3813C83.6707 50.6532 83.8913 50.8672 84.1777 51.0234C84.4642 51.1797 84.806 51.2578 85.2031 51.2578C85.6003 51.2578 85.9412 51.1797 86.2261 51.0234C86.5109 50.8672 86.7298 50.6532 86.8828 50.3813C87.0358 50.1095 87.1123 49.7995 87.1123 49.4512V44.7246H88.04V49.5244C88.04 50.0225 87.9229 50.4668 87.6885 50.8574C87.4541 51.248 87.1245 51.5557 86.6997 51.7803C86.2749 52.0049 85.776 52.1172 85.2031 52.1172ZM92.127 52.127C91.6029 52.127 91.1479 52.0423 90.7622 51.873C90.3765 51.7038 90.0745 51.467 89.8564 51.1626C89.6383 50.8582 89.5146 50.5026 89.4854 50.0957H90.4375C90.4635 50.3691 90.5563 50.5946 90.7158 50.772C90.8753 50.9494 91.0796 51.0812 91.3286 51.1675C91.5776 51.2537 91.8438 51.2969 92.127 51.2969C92.4557 51.2969 92.7511 51.2432 93.0132 51.1357C93.2752 51.0283 93.4827 50.877 93.6357 50.6816C93.7887 50.4863 93.8652 50.2601 93.8652 50.0029C93.8652 49.7686 93.7993 49.5781 93.6675 49.4316C93.5356 49.2852 93.3607 49.1647 93.1426 49.0703C92.9245 48.9759 92.6852 48.8929 92.4248 48.8213L91.5459 48.5723C90.96 48.4062 90.5042 48.1686 90.1787 47.8594C89.8532 47.5501 89.6904 47.1546 89.6904 46.6729C89.6904 46.2627 89.8011 45.9038 90.0225 45.5962C90.2438 45.2886 90.5433 45.0501 90.9209 44.8809C91.2985 44.7116 91.7217 44.627 92.1904 44.627C92.6689 44.627 93.0921 44.7116 93.46 44.8809C93.8278 45.0501 94.1183 45.2804 94.3315 45.5718C94.5448 45.8631 94.6579 46.1927 94.6709 46.5605H93.7627C93.7204 46.2057 93.5511 45.9315 93.2549 45.7378C92.9587 45.5441 92.5941 45.4473 92.1611 45.4473C91.8486 45.4473 91.5744 45.4985 91.3384 45.6011C91.1024 45.7036 90.9193 45.8436 90.7891 46.021C90.6589 46.1984 90.5938 46.401 90.5938 46.6289C90.5938 46.8828 90.6727 47.0871 90.8306 47.2417C90.9884 47.3963 91.1756 47.5168 91.3921 47.603C91.6086 47.6893 91.8047 47.7568 91.9805 47.8057L92.708 48.0059C92.9033 48.0579 93.119 48.1296 93.355 48.2207C93.591 48.3118 93.8164 48.4331 94.0312 48.5845C94.2461 48.7358 94.4227 48.9279 94.561 49.1606C94.6994 49.3934 94.7686 49.679 94.7686 50.0176C94.7686 50.4147 94.6652 50.7728 94.4585 51.0918C94.2518 51.4108 93.9515 51.6631 93.5576 51.8486C93.1637 52.0342 92.6868 52.127 92.127 52.127ZM96.7754 50.999C96.5931 50.999 96.4377 50.9347 96.3091 50.8062C96.1805 50.6776 96.1162 50.5221 96.1162 50.3398C96.1162 50.1576 96.1805 50.0021 96.3091 49.8735C96.4377 49.745 96.5931 49.6807 96.7754 49.6807C96.9577 49.6807 97.1131 49.745 97.2417 49.8735C97.3703 50.0021 97.4346 50.1576 97.4346 50.3398C97.4346 50.5221 97.3703 50.6776 97.2417 50.8062C97.1131 50.9347 96.9577 50.999 96.7754 50.999ZM96.7754 47.0488C96.5931 47.0488 96.4377 46.9845 96.3091 46.856C96.1805 46.7274 96.1162 46.5719 96.1162 46.3896C96.1162 46.2074 96.1805 46.0519 96.3091 45.9233C96.4377 45.7948 96.5931 45.7305 96.7754 45.7305C96.9577 45.7305 97.1131 45.7948 97.2417 45.9233C97.3703 46.0519 97.4346 46.2074 97.4346 46.3896C97.4346 46.5719 97.3703 46.7274 97.2417 46.856C97.1131 46.9845 96.9577 47.0488 96.7754 47.0488ZM101.907 52V44.7246H102.835V51.1797H106.204V52H101.907ZM108.489 44.7246V52H107.562V44.7246H108.489ZM112.298 52L109.622 44.7246H110.599L112.137 49.041C112.225 49.2884 112.334 49.6188 112.466 50.0322C112.598 50.4456 112.752 50.9551 112.928 51.5605H112.747C112.923 50.9388 113.076 50.4253 113.206 50.02C113.336 49.6147 113.444 49.2884 113.528 49.041L115.027 44.7246H116.014L113.367 52H112.298ZM117.146 52V44.7246H121.58V45.5449H118.074V47.918H121.341V48.7383H118.074V51.1797H121.624V52H117.146Z" fill="#C1C6D5"/>
<path d="M319.094 51C318.335 51 317.688 50.7375 317.15 50.2125C316.612 49.6875 316.344 49.0458 316.344 48.2875C316.344 47.6375 316.54 47.0583 316.931 46.55C317.323 46.0417 317.835 45.7167 318.469 45.575C318.677 44.8083 319.094 44.1875 319.719 43.7125C320.344 43.2375 321.052 43 321.844 43C322.819 43 323.646 43.3396 324.325 44.0187C325.004 44.6979 325.344 45.525 325.344 46.5C325.919 46.5667 326.396 46.8146 326.775 47.2438C327.154 47.6729 327.344 48.175 327.344 48.75C327.344 49.375 327.125 49.9062 326.688 50.3438C326.25 50.7812 325.719 51 325.094 51H319.094ZM319.094 50H325.094C325.444 50 325.74 49.8792 325.981 49.6375C326.223 49.3958 326.344 49.1 326.344 48.75C326.344 48.4 326.223 48.1042 325.981 47.8625C325.74 47.6208 325.444 47.5 325.094 47.5H324.344V46.5C324.344 45.8083 324.1 45.2188 323.613 44.7313C323.125 44.2438 322.535 44 321.844 44C321.152 44 320.562 44.2438 320.075 44.7313C319.588 45.2188 319.344 45.8083 319.344 46.5H319.094C318.61 46.5 318.198 46.6708 317.856 47.0125C317.515 47.3542 317.344 47.7667 317.344 48.25C317.344 48.7333 317.515 49.1458 317.856 49.4875C318.198 49.8292 318.61 50 319.094 50Z" fill="#C1C6D5"/>
<path d="M340.834 49.5L339.834 48.5L340.834 47.5L341.834 48.5L340.834 49.5ZM339.771 46.5625L338.521 45.3125L340.834 43L343.146 45.3125L341.896 46.5625L340.834 45.5L339.771 46.5625ZM337.646 50.8125L335.334 48.5L337.646 46.1875L338.896 47.4375L337.834 48.5L338.896 49.5625L337.646 50.8125ZM344.021 50.8125L342.771 49.5625L343.834 48.5L342.771 47.4375L344.021 46.1875L346.334 48.5L344.021 50.8125ZM340.834 54L338.521 51.6875L339.771 50.4375L340.834 51.5L341.896 50.4375L343.146 51.6875L340.834 54Z" fill="#C1C6D5"/>
<path d="M137.736 99V91.7246H139.055L140.847 96.3145C140.889 96.4219 140.937 96.5562 140.991 96.7173C141.044 96.8784 141.101 97.0534 141.162 97.2422C141.222 97.431 141.28 97.619 141.335 97.8062C141.39 97.9933 141.439 98.1667 141.482 98.3262H141.276C141.322 98.1764 141.372 98.0096 141.428 97.8257C141.483 97.6418 141.541 97.4546 141.601 97.2642C141.661 97.0737 141.719 96.8955 141.774 96.7295C141.83 96.5635 141.879 96.4251 141.921 96.3145L143.689 91.7246H145.012V99H144.099V94.8447C144.099 94.695 144.1 94.5241 144.101 94.332C144.103 94.14 144.106 93.9382 144.111 93.7266C144.116 93.515 144.121 93.3001 144.126 93.082C144.13 92.8639 144.134 92.6523 144.138 92.4473H144.216C144.148 92.6719 144.075 92.9006 143.999 93.1333C143.922 93.366 143.847 93.5907 143.774 93.8071C143.701 94.0236 143.632 94.2214 143.566 94.4004C143.501 94.5794 143.446 94.7275 143.4 94.8447L141.774 99H140.969L139.318 94.8447C139.273 94.7308 139.219 94.5868 139.157 94.4126C139.095 94.2384 139.028 94.0448 138.955 93.8315C138.881 93.6183 138.806 93.3937 138.728 93.1577C138.649 92.9217 138.57 92.6849 138.488 92.4473H138.576C138.583 92.6296 138.588 92.8265 138.593 93.0381C138.598 93.2497 138.602 93.4637 138.606 93.6802C138.609 93.8966 138.612 94.105 138.615 94.3052C138.619 94.5054 138.62 94.6852 138.62 94.8447V99H137.736ZM148.19 99.127C147.845 99.127 147.532 99.0618 147.251 98.9316C146.969 98.8014 146.745 98.611 146.579 98.3604C146.413 98.1097 146.33 97.8053 146.33 97.4473C146.33 97.1348 146.392 96.8809 146.516 96.6855C146.639 96.4902 146.805 96.3364 147.011 96.2241C147.218 96.1118 147.447 96.028 147.697 95.9727C147.948 95.9173 148.2 95.8734 148.454 95.8408C148.78 95.7985 149.045 95.766 149.25 95.7432C149.455 95.7204 149.607 95.6813 149.707 95.626C149.806 95.5706 149.856 95.4762 149.856 95.3428V95.3135C149.856 95.0856 149.813 94.8927 149.729 94.7349C149.644 94.577 149.517 94.4557 149.348 94.3711C149.178 94.2865 148.967 94.2441 148.713 94.2441C148.453 94.2441 148.23 94.2848 148.044 94.3662C147.858 94.4476 147.708 94.5493 147.592 94.6714C147.477 94.7935 147.39 94.918 147.331 95.0449L146.486 94.7666C146.626 94.4346 146.815 94.175 147.053 93.9878C147.29 93.8006 147.552 93.668 147.839 93.5898C148.125 93.5117 148.409 93.4727 148.689 93.4727C148.871 93.4727 149.078 93.4946 149.311 93.5386C149.544 93.5825 149.768 93.6696 149.985 93.7998C150.201 93.93 150.38 94.1229 150.522 94.3784C150.664 94.634 150.734 94.9749 150.734 95.4014V99H149.87V98.2578H149.812C149.75 98.3848 149.65 98.5158 149.514 98.6509C149.377 98.786 149.2 98.8991 148.982 98.9902C148.763 99.0814 148.5 99.127 148.19 99.127ZM148.342 98.3506C148.667 98.3506 148.942 98.2871 149.167 98.1602C149.392 98.0332 149.563 97.868 149.68 97.6646C149.797 97.4611 149.856 97.2487 149.856 97.0273V96.2705C149.82 96.3128 149.742 96.3511 149.621 96.3853C149.501 96.4194 149.363 96.4495 149.209 96.4756C149.054 96.5016 148.904 96.5236 148.759 96.5415C148.614 96.5594 148.5 96.5732 148.415 96.583C148.204 96.609 148.006 96.6538 147.822 96.7173C147.638 96.7808 147.491 96.8735 147.38 96.9956C147.269 97.1177 147.214 97.2829 147.214 97.4912C147.214 97.68 147.263 97.8379 147.36 97.9648C147.458 98.0918 147.592 98.1878 147.761 98.2529C147.93 98.318 148.124 98.3506 148.342 98.3506ZM152.277 99V93.541H153.156V99H152.277ZM152.722 92.6475C152.556 92.6475 152.412 92.5905 152.292 92.4766C152.172 92.3626 152.111 92.2259 152.111 92.0664C152.111 91.9036 152.172 91.7661 152.292 91.6538C152.412 91.5415 152.556 91.4854 152.722 91.4854C152.891 91.4854 153.036 91.5415 153.156 91.6538C153.277 91.7661 153.337 91.9036 153.337 92.0664C153.337 92.2259 153.277 92.3626 153.156 92.4766C153.036 92.5905 152.891 92.6475 152.722 92.6475ZM155.578 95.7285V99H154.699V93.541H155.544L155.549 94.8643H155.427C155.593 94.3597 155.83 94.0016 156.137 93.79C156.445 93.5785 156.805 93.4727 157.219 93.4727C157.587 93.4727 157.909 93.5483 158.186 93.6997C158.462 93.8511 158.678 94.0789 158.833 94.3833C158.987 94.6877 159.065 95.071 159.065 95.5332V99H158.186V95.6064C158.186 95.1865 158.076 94.8577 157.856 94.6201C157.636 94.3825 157.336 94.2637 156.955 94.2637C156.695 94.2637 156.46 94.3206 156.252 94.4346C156.044 94.5485 155.879 94.7145 155.759 94.9326C155.638 95.1507 155.578 95.416 155.578 95.7285ZM163.527 99V91.7246H166.018C166.584 91.7246 167.05 91.828 167.417 92.0347C167.783 92.2414 168.055 92.5189 168.232 92.8672C168.409 93.2155 168.498 93.6061 168.498 94.0391C168.498 94.472 168.409 94.8643 168.232 95.2158C168.055 95.5674 167.784 95.8473 167.419 96.0557C167.054 96.264 166.589 96.3682 166.023 96.3682H164.26V95.5527H165.979C166.363 95.5527 166.672 95.4868 166.906 95.355C167.141 95.2231 167.311 95.0425 167.417 94.813C167.522 94.5835 167.575 94.3255 167.575 94.0391C167.575 93.7526 167.522 93.4963 167.417 93.27C167.311 93.0438 167.14 92.8656 166.904 92.7354C166.668 92.6051 166.356 92.54 165.969 92.54H164.455V99H163.527ZM169.807 99V93.541H170.656V94.3809H170.715C170.816 94.1042 170.996 93.882 171.254 93.7144C171.513 93.5467 171.805 93.4629 172.131 93.4629C172.196 93.4629 172.273 93.4645 172.363 93.4678C172.452 93.471 172.523 93.4743 172.575 93.4775V94.3613C172.549 94.3548 172.484 94.3451 172.38 94.332C172.276 94.319 172.165 94.3125 172.048 94.3125C171.787 94.3125 171.554 94.367 171.347 94.4761C171.141 94.5851 170.979 94.7349 170.861 94.9253C170.744 95.1157 170.686 95.3346 170.686 95.582V99H169.807ZM175.627 99.1172C175.132 99.1172 174.698 99 174.326 98.7656C173.953 98.5312 173.662 98.2025 173.454 97.7793C173.246 97.3561 173.142 96.8646 173.142 96.3047C173.142 95.735 173.246 95.2378 173.454 94.813C173.662 94.3882 173.953 94.0586 174.326 93.8242C174.698 93.5898 175.132 93.4727 175.627 93.4727C176.125 93.4727 176.561 93.5898 176.936 93.8242C177.31 94.0586 177.601 94.3882 177.81 94.813C178.018 95.2378 178.122 95.735 178.122 96.3047C178.122 96.8646 178.018 97.3561 177.81 97.7793C177.601 98.2025 177.31 98.5312 176.936 98.7656C176.561 99 176.125 99.1172 175.627 99.1172ZM175.627 98.3311C175.995 98.3311 176.298 98.2367 176.535 98.0479C176.773 97.859 176.949 97.6108 177.063 97.3032C177.176 96.9956 177.233 96.6628 177.233 96.3047C177.233 95.9434 177.176 95.6073 177.063 95.2964C176.949 94.9855 176.773 94.7349 176.535 94.5444C176.298 94.354 175.995 94.2588 175.627 94.2588C175.262 94.2588 174.963 94.354 174.729 94.5444C174.494 94.7349 174.32 94.9847 174.206 95.2939C174.092 95.6032 174.035 95.9401 174.035 96.3047C174.035 96.6628 174.092 96.9956 174.206 97.3032C174.32 97.6108 174.494 97.859 174.729 98.0479C174.963 98.2367 175.262 98.3311 175.627 98.3311ZM181.447 99.1172C180.995 99.1172 180.594 99.0016 180.246 98.7705C179.898 98.5394 179.626 98.2122 179.431 97.7891C179.235 97.3659 179.138 96.8646 179.138 96.2852C179.138 95.709 179.236 95.2101 179.433 94.7886C179.63 94.367 179.903 94.0423 180.251 93.8145C180.599 93.5866 181 93.4727 181.452 93.4727C181.807 93.4727 182.089 93.5312 182.297 93.6484C182.505 93.7656 182.666 93.8983 182.778 94.0464C182.89 94.1945 182.976 94.3174 183.034 94.415H183.103V91.7246H183.982V99H183.132V98.1553H183.034C182.976 98.2562 182.889 98.3823 182.773 98.5337C182.657 98.6851 182.495 98.8201 182.285 98.939C182.075 99.0578 181.796 99.1172 181.447 99.1172ZM181.579 98.3311C181.911 98.3311 182.191 98.244 182.419 98.0698C182.647 97.8957 182.819 97.654 182.937 97.3447C183.054 97.0355 183.112 96.679 183.112 96.2754C183.112 95.8717 183.055 95.5194 182.939 95.2183C182.823 94.9172 182.652 94.682 182.424 94.5127C182.196 94.3434 181.914 94.2588 181.579 94.2588C181.234 94.2588 180.947 94.3483 180.717 94.5273C180.488 94.7064 180.316 94.9481 180.202 95.2524C180.088 95.5568 180.031 95.8978 180.031 96.2754C180.031 96.6562 180.089 97.0021 180.205 97.313C180.32 97.6239 180.494 97.8713 180.725 98.0552C180.956 98.2391 181.241 98.3311 181.579 98.3311ZM187.375 99.0684C187.007 99.0684 186.684 98.9927 186.406 98.8413C186.127 98.6899 185.911 98.4613 185.756 98.1553C185.602 97.8493 185.524 97.4668 185.524 97.0078V93.541H186.403V96.9346C186.403 97.3545 186.514 97.6833 186.735 97.9209C186.957 98.1585 187.258 98.2773 187.639 98.2773C187.899 98.2773 188.133 98.2204 188.339 98.1064C188.546 97.9925 188.71 97.8257 188.83 97.606C188.951 97.3862 189.011 97.1217 189.011 96.8125V93.541H189.895V99H189.045V97.6768H189.162C188.993 98.1878 188.753 98.5475 188.442 98.7559C188.131 98.9642 187.775 99.0684 187.375 99.0684ZM193.659 99.1172C193.164 99.1172 192.731 99 192.358 98.7656C191.985 98.5312 191.695 98.2025 191.486 97.7793C191.278 97.3561 191.174 96.8646 191.174 96.3047C191.174 95.735 191.278 95.2378 191.486 94.813C191.695 94.3882 191.985 94.0586 192.358 93.8242C192.731 93.5898 193.164 93.4727 193.659 93.4727C193.923 93.4727 194.172 93.5068 194.406 93.5752C194.641 93.6436 194.855 93.742 195.048 93.8706C195.242 93.9992 195.409 94.1571 195.549 94.3442C195.689 94.5314 195.796 94.7438 195.871 94.9814L195.026 95.2207C194.987 95.0807 194.927 94.9521 194.846 94.835C194.764 94.7178 194.666 94.616 194.55 94.5298C194.435 94.4435 194.302 94.3768 194.152 94.3296C194.003 94.2824 193.838 94.2588 193.659 94.2588C193.295 94.2588 192.995 94.354 192.761 94.5444C192.526 94.7349 192.352 94.9847 192.238 95.2939C192.124 95.6032 192.067 95.9401 192.067 96.3047C192.067 96.6628 192.124 96.9956 192.238 97.3032C192.352 97.6108 192.526 97.859 192.761 98.0479C192.995 98.2367 193.295 98.3311 193.659 98.3311C193.842 98.3311 194.009 98.3066 194.162 98.2578C194.315 98.209 194.451 98.1398 194.57 98.0503C194.689 97.9608 194.789 97.8542 194.87 97.7305C194.952 97.6068 195.012 97.4717 195.051 97.3252L195.891 97.5645C195.819 97.8086 195.712 98.0259 195.571 98.2163C195.429 98.4067 195.261 98.5695 195.065 98.7046C194.87 98.8397 194.654 98.9422 194.416 99.0122C194.178 99.0822 193.926 99.1172 193.659 99.1172ZM199.299 93.541V94.293H196.477V93.541H199.299ZM197.297 92.2422H198.176V97.584C198.176 97.8281 198.225 98.0063 198.325 98.1187C198.424 98.231 198.589 98.2871 198.82 98.2871C198.876 98.2871 198.947 98.2806 199.033 98.2676C199.119 98.2546 199.198 98.2415 199.27 98.2285L199.45 98.9707C199.359 99.0033 199.256 99.0277 199.14 99.0439C199.025 99.0602 198.91 99.0684 198.796 99.0684C198.324 99.0684 197.956 98.9438 197.692 98.6948C197.429 98.4458 197.297 98.0983 197.297 97.6523V92.2422ZM200.422 99V93.541H201.301V99H200.422ZM200.866 92.6475C200.7 92.6475 200.557 92.5905 200.437 92.4766C200.316 92.3626 200.256 92.2259 200.256 92.0664C200.256 91.9036 200.316 91.7661 200.437 91.6538C200.557 91.5415 200.7 91.4854 200.866 91.4854C201.036 91.4854 201.18 91.5415 201.301 91.6538C201.421 91.7661 201.482 91.9036 201.482 92.0664C201.482 92.2259 201.421 92.3626 201.301 92.4766C201.18 92.5905 201.036 92.6475 200.866 92.6475ZM205.065 99.1172C204.571 99.1172 204.137 99 203.764 98.7656C203.391 98.5312 203.101 98.2025 202.893 97.7793C202.684 97.3561 202.58 96.8646 202.58 96.3047C202.58 95.735 202.684 95.2378 202.893 94.813C203.101 94.3882 203.391 94.0586 203.764 93.8242C204.137 93.5898 204.571 93.4727 205.065 93.4727C205.564 93.4727 206 93.5898 206.374 93.8242C206.748 94.0586 207.04 94.3882 207.248 94.813C207.456 95.2378 207.561 95.735 207.561 96.3047C207.561 96.8646 207.456 97.3561 207.248 97.7793C207.04 98.2025 206.748 98.5312 206.374 98.7656C206 99 205.564 99.1172 205.065 99.1172ZM205.065 98.3311C205.433 98.3311 205.736 98.2367 205.974 98.0479C206.211 97.859 206.387 97.6108 206.501 97.3032C206.615 96.9956 206.672 96.6628 206.672 96.3047C206.672 95.9434 206.615 95.6073 206.501 95.2964C206.387 94.9855 206.211 94.7349 205.974 94.5444C205.736 94.354 205.433 94.2588 205.065 94.2588C204.701 94.2588 204.401 94.354 204.167 94.5444C203.933 94.7349 203.759 94.9847 203.645 95.2939C203.531 95.6032 203.474 95.9401 203.474 96.3047C203.474 96.6628 203.531 96.9956 203.645 97.3032C203.759 97.6108 203.933 97.859 204.167 98.0479C204.401 98.2367 204.701 98.3311 205.065 98.3311ZM209.719 95.7285V99H208.84V93.541H209.685L209.69 94.8643H209.567C209.733 94.3597 209.97 94.0016 210.278 93.79C210.586 93.5785 210.946 93.4727 211.359 93.4727C211.727 93.4727 212.05 93.5483 212.326 93.6997C212.603 93.8511 212.819 94.0789 212.973 94.3833C213.128 94.6877 213.205 95.071 213.205 95.5332V99H212.326V95.6064C212.326 95.1865 212.216 94.8577 211.997 94.6201C211.777 94.3825 211.477 94.2637 211.096 94.2637C210.835 94.2637 210.601 94.3206 210.393 94.4346C210.184 94.5485 210.02 94.7145 209.899 94.9326C209.779 95.1507 209.719 95.416 209.719 95.7285ZM220.612 99.0977C219.991 99.0977 219.436 98.9471 218.95 98.646C218.463 98.3449 218.081 97.9152 217.802 97.3569C217.524 96.7987 217.385 96.1354 217.385 95.3672C217.385 94.5957 217.524 93.9308 217.802 93.3726C218.081 92.8143 218.463 92.3838 218.95 92.0811C219.436 91.7783 219.991 91.627 220.612 91.627C220.98 91.627 221.328 91.6807 221.655 91.7881C221.982 91.8955 222.276 92.0526 222.536 92.2593C222.797 92.466 223.014 92.7166 223.188 93.0112C223.362 93.3058 223.482 93.6403 223.547 94.0146H222.619C222.567 93.764 222.478 93.5443 222.353 93.3555C222.228 93.1667 222.075 93.0072 221.894 92.877C221.713 92.7467 221.514 92.6491 221.296 92.584C221.078 92.5189 220.85 92.4863 220.612 92.4863C220.176 92.4863 219.782 92.597 219.431 92.8184C219.079 93.0397 218.801 93.3644 218.596 93.7925C218.391 94.2205 218.288 94.7454 218.288 95.3672C218.288 95.9857 218.391 96.509 218.598 96.937C218.805 97.3651 219.084 97.689 219.436 97.9087C219.787 98.1284 220.179 98.2383 220.612 98.2383C220.85 98.2383 221.078 98.2049 221.296 98.1382C221.514 98.0715 221.713 97.9738 221.894 97.8452C222.075 97.7166 222.228 97.5571 222.353 97.3667C222.478 97.1763 222.567 96.9574 222.619 96.71H223.547C223.485 97.0811 223.367 97.4131 223.193 97.7061C223.019 97.999 222.801 98.2497 222.541 98.458C222.281 98.6663 221.987 98.825 221.66 98.9341C221.333 99.0431 220.983 99.0977 220.612 99.0977ZM225.744 91.7246V99H224.865V91.7246H225.744ZM229.138 99.0684C228.77 99.0684 228.447 98.9927 228.169 98.8413C227.89 98.6899 227.674 98.4613 227.519 98.1553C227.364 97.8493 227.287 97.4668 227.287 97.0078V93.541H228.166V96.9346C228.166 97.3545 228.277 97.6833 228.498 97.9209C228.719 98.1585 229.021 98.2773 229.401 98.2773C229.662 98.2773 229.895 98.2204 230.102 98.1064C230.309 97.9925 230.472 97.8257 230.593 97.606C230.713 97.3862 230.773 97.1217 230.773 96.8125V93.541H231.657V99H230.808V97.6768H230.925C230.756 98.1878 230.516 98.5475 230.205 98.7559C229.894 98.9642 229.538 99.0684 229.138 99.0684ZM235.056 99.1172C234.681 99.1172 234.349 99.0627 234.057 98.9536C233.766 98.8446 233.526 98.6826 233.337 98.4678C233.148 98.2529 233.021 97.9893 232.956 97.6768L233.791 97.4766C233.869 97.776 234.016 97.9958 234.233 98.1357C234.449 98.2757 234.72 98.3457 235.046 98.3457C235.427 98.3457 235.73 98.2643 235.957 98.1016C236.183 97.9388 236.296 97.7451 236.296 97.5205C236.296 97.3317 236.23 97.1746 236.098 97.0493C235.966 96.924 235.765 96.8304 235.495 96.7686L234.587 96.5537C234.092 96.4365 233.724 96.255 233.483 96.0093C233.243 95.7635 233.122 95.4486 233.122 95.0645C233.122 94.752 233.21 94.4761 233.386 94.2368C233.562 93.9976 233.802 93.8104 234.106 93.6753C234.41 93.5402 234.756 93.4727 235.144 93.4727C235.518 93.4727 235.836 93.5288 236.098 93.6411C236.36 93.7534 236.573 93.908 236.738 94.105C236.902 94.3019 237.025 94.529 237.107 94.7861L236.311 94.9912C236.236 94.7959 236.111 94.6185 235.937 94.459C235.763 94.2995 235.5 94.2197 235.148 94.2197C234.823 94.2197 234.552 94.2946 234.336 94.4443C234.119 94.5941 234.011 94.7829 234.011 95.0107C234.011 95.2126 234.084 95.3745 234.231 95.4966C234.377 95.6187 234.61 95.7171 234.929 95.792L235.754 95.9873C236.249 96.1045 236.615 96.286 236.853 96.5317C237.09 96.7775 237.209 97.0876 237.209 97.4619C237.209 97.7809 237.119 98.0649 236.938 98.314C236.757 98.563 236.505 98.7591 236.181 98.9023C235.857 99.0456 235.482 99.1172 235.056 99.1172ZM240.627 93.541V94.293H237.805V93.541H240.627ZM238.625 92.2422H239.504V97.584C239.504 97.8281 239.554 98.0063 239.653 98.1187C239.752 98.231 239.917 98.2871 240.148 98.2871C240.204 98.2871 240.275 98.2806 240.361 98.2676C240.447 98.2546 240.526 98.2415 240.598 98.2285L240.778 98.9707C240.687 99.0033 240.584 99.0277 240.468 99.0439C240.353 99.0602 240.238 99.0684 240.124 99.0684C239.652 99.0684 239.284 98.9438 239.021 98.6948C238.757 98.4458 238.625 98.0983 238.625 97.6523V92.2422ZM243.947 99.1172C243.42 99.1172 242.965 99 242.583 98.7656C242.2 98.5312 241.905 98.2041 241.699 97.7842C241.492 97.3643 241.389 96.8743 241.389 96.3145C241.389 95.7546 241.49 95.2614 241.691 94.835C241.893 94.4085 242.179 94.0749 242.548 93.834C242.918 93.5931 243.35 93.4727 243.845 93.4727C244.135 93.4727 244.42 93.5207 244.702 93.6167C244.983 93.7127 245.239 93.8674 245.468 94.0806C245.698 94.2938 245.881 94.5745 246.018 94.9229C246.154 95.2712 246.223 95.6976 246.223 96.2021V96.5684H241.984V95.8262H245.749L245.339 96.0996C245.339 95.7415 245.283 95.4233 245.17 95.145C245.058 94.8667 244.891 94.6486 244.67 94.4907C244.449 94.3328 244.174 94.2539 243.845 94.2539C243.516 94.2539 243.234 94.3345 243 94.4956C242.766 94.6567 242.587 94.8667 242.463 95.1255C242.339 95.3843 242.277 95.6618 242.277 95.958V96.4512C242.277 96.8548 242.347 97.1974 242.487 97.479C242.627 97.7606 242.823 97.9738 243.076 98.1187C243.328 98.2635 243.62 98.3359 243.952 98.3359C244.167 98.3359 244.362 98.305 244.538 98.2432C244.714 98.1813 244.865 98.0877 244.992 97.9624C245.119 97.8371 245.217 97.6816 245.285 97.4961L246.135 97.7305C246.05 98.0039 245.907 98.2448 245.705 98.4531C245.503 98.6615 245.253 98.8242 244.956 98.9414C244.658 99.0586 244.322 99.1172 243.947 99.1172ZM247.482 99V93.541H248.332V94.3809H248.391C248.492 94.1042 248.671 93.882 248.93 93.7144C249.189 93.5467 249.481 93.4629 249.807 93.4629C249.872 93.4629 249.949 93.4645 250.039 93.4678C250.128 93.471 250.199 93.4743 250.251 93.4775V94.3613C250.225 94.3548 250.16 94.3451 250.056 94.332C249.952 94.319 249.841 94.3125 249.724 94.3125C249.463 94.3125 249.23 94.367 249.023 94.4761C248.816 94.5851 248.654 94.7349 248.537 94.9253C248.42 95.1157 248.361 95.3346 248.361 95.582V99H247.482Z" fill="#C1C6D5"/>
<path d="M154.037 122L151.154 114.357H152.777L154.29 118.701C154.458 119.179 154.602 119.658 154.721 120.138C154.84 120.618 154.964 121.095 155.093 121.566H154.646C154.774 121.095 154.897 120.619 155.016 120.139C155.134 119.659 155.276 119.18 155.439 118.701L156.947 114.357H158.563L155.677 122H154.037ZM159.866 122V120.875L163.325 117.299C163.68 116.925 163.977 116.594 164.215 116.307C164.454 116.02 164.634 115.743 164.756 115.478C164.879 115.213 164.94 114.93 164.94 114.629C164.94 114.29 164.861 113.998 164.702 113.752C164.544 113.506 164.33 113.317 164.059 113.185C163.789 113.053 163.481 112.987 163.137 112.987C162.773 112.987 162.457 113.06 162.188 113.208C161.92 113.355 161.713 113.563 161.566 113.832C161.42 114.101 161.347 114.418 161.347 114.784H159.854C159.854 114.162 159.997 113.617 160.283 113.151C160.569 112.684 160.961 112.322 161.459 112.065C161.957 111.807 162.526 111.678 163.165 111.678C163.808 111.678 164.376 111.805 164.866 112.059C165.357 112.313 165.74 112.658 166.018 113.094C166.295 113.531 166.434 114.024 166.434 114.576C166.434 114.949 166.365 115.313 166.227 115.668C166.09 116.023 165.847 116.425 165.499 116.872C165.15 117.319 164.66 117.861 164.026 118.5L162.026 120.588V120.668H166.593V122H159.866ZM169.633 122.102C169.352 122.102 169.113 122.005 168.917 121.81C168.721 121.614 168.623 121.377 168.623 121.096C168.623 120.815 168.721 120.577 168.917 120.382C169.113 120.187 169.352 120.089 169.633 120.089C169.914 120.089 170.153 120.187 170.349 120.382C170.545 120.577 170.643 120.815 170.643 121.096C170.643 121.377 170.545 121.614 170.349 121.81C170.153 122.005 169.914 122.102 169.633 122.102ZM172.53 120.016V118.761L176.923 111.814H177.918V113.665H177.287L174.158 118.612V118.694H180.192V120.016H172.53ZM177.351 122V119.64L177.369 119.061V111.814H178.848V122H177.351ZM182.594 122.102C182.312 122.102 182.074 122.005 181.878 121.81C181.682 121.614 181.584 121.377 181.584 121.096C181.584 120.815 181.682 120.577 181.878 120.382C182.074 120.187 182.312 120.089 182.594 120.089C182.875 120.089 183.114 120.187 183.31 120.382C183.506 120.577 183.604 120.815 183.604 121.096C183.604 121.377 183.506 121.614 183.31 121.81C183.114 122.005 182.875 122.102 182.594 122.102ZM188.167 111.814V122H186.621V113.229H186.553L184.134 114.997V113.43L186.361 111.814H188.167ZM194.796 117.054V118.356H190.271V117.054H194.796ZM199.524 122.159C198.97 122.159 198.478 122.079 198.048 121.918C197.618 121.758 197.264 121.522 196.988 121.21C196.712 120.898 196.529 120.518 196.438 120.069L197.855 119.772C197.961 120.17 198.157 120.464 198.442 120.654C198.727 120.844 199.092 120.939 199.535 120.939C200.021 120.939 200.407 120.838 200.694 120.636C200.981 120.435 201.124 120.191 201.124 119.905C201.124 119.662 201.036 119.461 200.859 119.302C200.682 119.142 200.412 119.022 200.047 118.941L198.761 118.65C198.054 118.49 197.527 118.235 197.18 117.886C196.834 117.536 196.661 117.086 196.661 116.537C196.661 116.082 196.788 115.684 197.041 115.343C197.294 115.002 197.642 114.737 198.086 114.547C198.531 114.357 199.041 114.262 199.617 114.262C200.168 114.262 200.639 114.342 201.031 114.502C201.423 114.663 201.741 114.886 201.985 115.171C202.229 115.456 202.405 115.788 202.512 116.167L201.163 116.465C201.066 116.196 200.9 115.959 200.664 115.755C200.428 115.551 200.084 115.449 199.632 115.449C199.216 115.449 198.869 115.543 198.59 115.73C198.312 115.917 198.173 116.155 198.173 116.446C198.173 116.698 198.266 116.903 198.452 117.061C198.638 117.22 198.94 117.346 199.358 117.441L200.586 117.715C201.294 117.874 201.819 118.125 202.161 118.468C202.503 118.81 202.674 119.248 202.674 119.779C202.674 120.244 202.541 120.655 202.275 121.012C202.009 121.37 201.639 121.651 201.166 121.854C200.692 122.057 200.145 122.159 199.524 122.159ZM207.591 114.357V115.58H203.446V114.357H207.591ZM204.562 112.539H206.066V119.933C206.066 120.242 206.13 120.468 206.259 120.611C206.388 120.754 206.601 120.826 206.899 120.826C206.978 120.826 207.08 120.817 207.208 120.798C207.335 120.779 207.444 120.761 207.536 120.743L207.802 121.948C207.641 122.001 207.469 122.039 207.286 122.063C207.103 122.087 206.925 122.099 206.75 122.099C206.053 122.099 205.515 121.921 205.134 121.565C204.753 121.208 204.562 120.706 204.562 120.057V112.539ZM211.292 122.168C210.808 122.168 210.37 122.079 209.979 121.9C209.589 121.721 209.279 121.459 209.051 121.112C208.822 120.765 208.708 120.341 208.708 119.838C208.708 119.404 208.792 119.048 208.959 118.771C209.127 118.493 209.352 118.273 209.635 118.11C209.919 117.947 210.235 117.825 210.583 117.743C210.932 117.661 211.288 117.599 211.651 117.556C212.102 117.502 212.468 117.458 212.75 117.423C213.032 117.389 213.24 117.332 213.375 117.252C213.51 117.173 213.577 117.043 213.577 116.864V116.825C213.577 116.54 213.522 116.298 213.412 116.101C213.303 115.903 213.139 115.751 212.922 115.646C212.704 115.54 212.434 115.487 212.111 115.487C211.78 115.487 211.496 115.538 211.258 115.641C211.019 115.743 210.825 115.873 210.676 116.032C210.526 116.19 210.415 116.356 210.342 116.529L208.927 116.166C209.101 115.707 209.349 115.339 209.673 115.061C209.997 114.783 210.368 114.58 210.787 114.453C211.205 114.325 211.64 114.262 212.09 114.262C212.397 114.262 212.723 114.298 213.07 114.372C213.416 114.445 213.742 114.577 214.046 114.768C214.351 114.958 214.6 115.227 214.792 115.575C214.985 115.923 215.081 116.374 215.081 116.926V122H213.626V120.954H213.549C213.45 121.151 213.303 121.343 213.107 121.53C212.911 121.716 212.663 121.869 212.363 121.989C212.064 122.108 211.707 122.168 211.292 122.168ZM211.625 120.964C212.037 120.964 212.388 120.883 212.679 120.722C212.97 120.561 213.194 120.349 213.349 120.086C213.504 119.823 213.582 119.544 213.582 119.248V118.266C213.528 118.32 213.424 118.368 213.271 118.413C213.118 118.457 212.945 118.496 212.75 118.53C212.556 118.564 212.367 118.593 212.183 118.617C211.999 118.64 211.849 118.66 211.732 118.674C211.45 118.71 211.192 118.771 210.956 118.857C210.721 118.944 210.534 119.066 210.396 119.226C210.257 119.385 210.188 119.596 210.188 119.859C210.188 120.102 210.25 120.304 210.374 120.468C210.499 120.631 210.669 120.755 210.885 120.838C211.1 120.922 211.347 120.964 211.625 120.964ZM220.896 122.152C220.436 122.152 220.059 122.073 219.766 121.915C219.473 121.757 219.243 121.573 219.077 121.363C218.911 121.153 218.783 120.966 218.693 120.804H218.569V122H217.103V111.814H218.607V115.602H218.693C218.782 115.443 218.907 115.259 219.069 115.05C219.23 114.84 219.456 114.656 219.747 114.499C220.037 114.341 220.42 114.262 220.896 114.262C221.51 114.262 222.057 114.417 222.536 114.727C223.016 115.037 223.395 115.486 223.672 116.073C223.95 116.661 224.089 117.369 224.089 118.197C224.089 119.02 223.952 119.727 223.679 120.317C223.405 120.907 223.029 121.36 222.549 121.677C222.069 121.993 221.518 122.152 220.896 122.152ZM220.563 120.87C221.001 120.87 221.368 120.752 221.663 120.515C221.958 120.278 222.18 119.957 222.33 119.551C222.479 119.145 222.554 118.69 222.554 118.186C222.554 117.684 222.48 117.234 222.332 116.836C222.185 116.438 221.963 116.123 221.668 115.891C221.373 115.659 221.005 115.543 220.563 115.543C220.133 115.543 219.771 115.653 219.476 115.874C219.182 116.095 218.959 116.402 218.809 116.797C218.659 117.191 218.584 117.654 218.584 118.186C218.584 118.715 218.66 119.182 218.812 119.585C218.964 119.989 219.188 120.304 219.485 120.53C219.781 120.757 220.14 120.87 220.563 120.87ZM227.261 111.814V122H225.758V111.814H227.261ZM232.579 122.159C231.827 122.159 231.178 121.997 230.633 121.671C230.088 121.346 229.668 120.889 229.374 120.302C229.08 119.714 228.933 119.024 228.933 118.233C228.933 117.448 229.078 116.758 229.366 116.162C229.655 115.566 230.063 115.101 230.592 114.765C231.12 114.43 231.739 114.262 232.449 114.262C232.886 114.262 233.308 114.333 233.715 114.476C234.123 114.618 234.488 114.843 234.811 115.148C235.135 115.454 235.391 115.851 235.58 116.338C235.769 116.824 235.863 117.412 235.863 118.101V118.635H229.77V117.512H235.088L234.386 117.883C234.386 117.416 234.313 117.004 234.168 116.646C234.023 116.288 233.807 116.009 233.521 115.808C233.235 115.606 232.879 115.506 232.454 115.506C232.029 115.506 231.666 115.608 231.365 115.813C231.064 116.018 230.834 116.288 230.676 116.624C230.517 116.959 230.438 117.324 230.438 117.72V118.483C230.438 119.007 230.528 119.451 230.708 119.814C230.888 120.177 231.141 120.451 231.465 120.637C231.79 120.822 232.167 120.915 232.595 120.915C232.875 120.915 233.13 120.875 233.359 120.795C233.588 120.714 233.786 120.593 233.951 120.432C234.117 120.27 234.243 120.07 234.332 119.832L235.743 120.165C235.623 120.561 235.417 120.908 235.128 121.208C234.838 121.507 234.477 121.741 234.046 121.908C233.615 122.075 233.126 122.159 232.579 122.159Z" fill="#E5E2E1"/>
<g filter="url(#filter1_d_507_6129)">
<rect x="41" y="143" width="305.333" height="32" rx="8" fill="#448FFD" shape-rendering="crispEdges"/>
<path d="M172.186 163H169.925V161.459H172.103C172.664 161.459 173.135 161.359 173.515 161.161C173.895 160.962 174.182 160.654 174.374 160.235C174.567 159.817 174.663 159.282 174.663 158.63C174.663 157.979 174.566 157.446 174.373 157.031C174.179 156.615 173.893 156.308 173.516 156.109C173.139 155.91 172.671 155.811 172.113 155.811H169.884V154.27H172.218C173.095 154.27 173.848 154.444 174.478 154.793C175.108 155.141 175.593 155.641 175.933 156.293C176.274 156.944 176.444 157.723 176.444 158.63C176.444 159.538 176.274 160.319 175.934 160.972C175.594 161.625 175.106 162.126 174.47 162.476C173.834 162.825 173.073 163 172.186 163ZM170.907 154.27V163H169.116V154.27H170.907ZM178.382 163V154.27H184.228V155.754H180.173V157.861H183.919V159.32H180.173V161.516H184.24V163H178.382ZM186.271 163V154.27H189.677C190.34 154.27 190.904 154.396 191.369 154.648C191.834 154.9 192.188 155.248 192.433 155.691C192.677 156.135 192.8 156.643 192.8 157.218C192.8 157.794 192.676 158.302 192.428 158.742C192.18 159.182 191.821 159.526 191.35 159.775C190.878 160.024 190.307 160.149 189.636 160.149H187.448V158.705H189.352C189.716 158.705 190.016 158.642 190.253 158.515C190.49 158.389 190.666 158.214 190.782 157.99C190.897 157.766 190.955 157.509 190.955 157.218C190.955 156.923 190.897 156.664 190.782 156.444C190.666 156.223 190.49 156.051 190.252 155.929C190.014 155.806 189.712 155.745 189.347 155.745H188.062V163H186.271ZM194.647 163V154.27H196.437V161.516H200.202V163H194.647ZM205.529 163.117C204.757 163.117 204.064 162.941 203.448 162.589C202.832 162.238 202.346 161.728 201.989 161.06C201.632 160.392 201.454 159.586 201.454 158.641C201.454 157.69 201.632 156.88 201.989 156.211C202.346 155.542 202.832 155.032 203.448 154.68C204.064 154.328 204.757 154.152 205.529 154.152C206.3 154.152 206.993 154.328 207.606 154.68C208.22 155.032 208.705 155.542 209.063 156.211C209.42 156.88 209.598 157.69 209.598 158.641C209.598 159.588 209.42 160.395 209.063 161.063C208.705 161.731 208.22 162.24 207.606 162.591C206.993 162.942 206.3 163.117 205.529 163.117ZM205.529 161.529C205.981 161.529 206.376 161.418 206.713 161.197C207.051 160.975 207.314 160.649 207.502 160.219C207.689 159.789 207.783 159.263 207.783 158.641C207.783 158.013 207.689 157.483 207.502 157.052C207.314 156.621 207.051 156.294 206.713 156.073C206.376 155.851 205.981 155.741 205.529 155.741C205.077 155.741 204.682 155.852 204.343 156.074C204.005 156.296 203.741 156.623 203.552 157.055C203.363 157.486 203.269 158.015 203.269 158.641C203.269 159.263 203.363 159.788 203.552 160.218C203.741 160.647 204.005 160.973 204.343 161.195C204.682 161.418 205.077 161.529 205.529 161.529ZM213.753 163V159.717L210.519 154.27H212.615L214.091 156.99C214.242 157.264 214.376 157.535 214.494 157.803C214.612 158.071 214.733 158.393 214.857 158.767H214.465C214.585 158.389 214.703 158.065 214.817 157.795C214.931 157.525 215.06 157.257 215.204 156.99L216.632 154.27H218.719L215.537 159.717V163H213.753Z" fill="#002959"/>
</g>
<rect x="41" y="207" width="73.3333" height="32" rx="2" fill="#60D4FB" fill-opacity="0.1"/>
<rect x="118.333" y="207" width="73.3333" height="32" rx="2" fill="#60D4FB" fill-opacity="0.2"/>
<rect x="195.667" y="207" width="73.3333" height="32" rx="2" fill="#60D4FB" fill-opacity="0.4"/>
<rect x="273" y="207" width="73.3333" height="32" rx="2" fill="#60D4FB" fill-opacity="0.1"/>
<g filter="url(#filter2_f_507_6129)">
<rect x="-40" y="-40" width="160" height="160" rx="80" fill="#60D4FB" fill-opacity="0.1"/>
</g>
</g>
<defs>
<filter id="filter0_d_507_6129" x="-14" y="11" width="415.33" height="308" filterUnits="userSpaceOnUse" color-interpolation-filters="sRGB">
<feFlood flood-opacity="0" result="BackgroundImageFix"/>
<feColorMatrix in="SourceAlpha" type="matrix" values="0 0 0 0 0 0 0 0 0 0 0 0 0 0 0 0 0 0 127 0" result="hardAlpha"/>
<feMorphology radius="12" operator="erode" in="SourceAlpha" result="effect1_dropShadow_507_6129"/>
<feOffset dy="25"/>
<feGaussianBlur stdDeviation="25"/>
<feComposite in2="hardAlpha" operator="out"/>
<feColorMatrix type="matrix" values="0 0 0 0 0 0 0 0 0 0 0 0 0 0 0 0 0 0 0.25 0"/>
<feBlend mode="normal" in2="BackgroundImageFix" result="effect1_dropShadow_507_6129"/>
<feBlend mode="normal" in="SourceGraphic" in2="effect1_dropShadow_507_6129" result="shape"/>
</filter>
<filter id="filter1_d_507_6129" x="21" y="123" width="345.333" height="72" filterUnits="userSpaceOnUse" color-interpolation-filters="sRGB">
<feFlood flood-opacity="0" result="BackgroundImageFix"/>
<feColorMatrix in="SourceAlpha" type="matrix" values="0 0 0 0 0 0 0 0 0 0 0 0 0 0 0 0 0 0 127 0" result="hardAlpha"/>
<feOffset/>
<feGaussianBlur stdDeviation="10"/>
<feComposite in2="hardAlpha" operator="out"/>
<feColorMatrix type="matrix" values="0 0 0 0 0.266667 0 0 0 0 0.560784 0 0 0 0 0.992157 0 0 0 0.3 0"/>
<feBlend mode="normal" in2="BackgroundImageFix" result="effect1_dropShadow_507_6129"/>
<feBlend mode="normal" in="SourceGraphic" in2="effect1_dropShadow_507_6129" result="shape"/>
</filter>
<filter id="filter2_f_507_6129" x="-120" y="-120" width="320" height="320" filterUnits="userSpaceOnUse" color-interpolation-filters="sRGB">
<feFlood flood-opacity="0" result="BackgroundImageFix"/>
<feBlend mode="normal" in="SourceGraphic" in2="BackgroundImageFix" result="shape"/>
<feGaussianBlur stdDeviation="40" result="effect1_foregroundBlur_507_6129"/>
</filter>
<clipPath id="clip0_507_6129">
<rect width="387.333" height="280" fill="white"/>
</clipPath>
</defs>
</svg>
