<svg width="388" height="280" viewBox="0 0 388 280" fill="none" xmlns="http://www.w3.org/2000/svg">
<g clip-path="url(#clip0_507_6162)">
<rect width="387.333" height="280" fill="#0E0E0E"/>
<rect x="24" y="43.5" width="161.667" height="81" rx="12" fill="#2A2A2A"/>
<rect x="24.5" y="44" width="160.667" height="80" rx="11.5" stroke="#414753" stroke-opacity="0.1"/>
<path d="M41.8807 71.5V64.2273H44.3381C44.9063 64.2273 45.3726 64.3243 45.7372 64.5185C46.1018 64.7102 46.3717 64.9742 46.5469 65.3104C46.7221 65.6465 46.8097 66.0289 46.8097 66.4574C46.8097 66.8859 46.7221 67.2659 46.5469 67.5973C46.3717 67.9287 46.103 68.1892 45.7408 68.3786C45.3786 68.5656 44.9157 68.6591 44.3523 68.6591H42.3636V67.8636H44.3239C44.7121 67.8636 45.0246 67.8068 45.2614 67.6932C45.5005 67.5795 45.6733 67.4186 45.7798 67.2102C45.8887 66.9995 45.9432 66.7486 45.9432 66.4574C45.9432 66.1662 45.8887 65.9117 45.7798 65.6939C45.6709 65.4761 45.4969 65.308 45.2578 65.1896C45.0187 65.0689 44.7027 65.0085 44.3097 65.0085H42.7614V71.5H41.8807ZM45.304 68.233L47.0938 71.5H46.071L44.3097 68.233H45.304ZM53.0499 64.2273H53.9306V69.0426C53.9306 69.5398 53.8134 69.9837 53.579 70.3743C53.347 70.7625 53.0191 71.0691 52.5953 71.294C52.1716 71.5166 51.6744 71.6278 51.1039 71.6278C50.5333 71.6278 50.0362 71.5166 49.6124 71.294C49.1886 71.0691 48.8596 70.7625 48.6252 70.3743C48.3932 69.9837 48.2772 69.5398 48.2772 69.0426V64.2273H49.1578V68.9716C49.1578 69.3267 49.236 69.6428 49.3922 69.9197C49.5485 70.1944 49.771 70.411 50.0598 70.5696C50.351 70.7259 50.699 70.804 51.1039 70.804C51.5087 70.804 51.8567 70.7259 52.1479 70.5696C52.4391 70.411 52.6616 70.1944 52.8155 69.9197C52.9718 69.6428 53.0499 69.3267 53.0499 68.9716V64.2273ZM61.4563 64.2273V71.5H60.604L56.641 65.7898H56.57V71.5H55.6893V64.2273H56.5415L60.5188 69.9517H60.5898V64.2273H61.4563ZM67.1958 66.0455C67.1532 65.6856 66.9804 65.4062 66.6774 65.2074C66.3743 65.0085 66.0027 64.9091 65.5623 64.9091C65.2404 64.9091 64.9586 64.9612 64.7172 65.0653C64.478 65.1695 64.291 65.3127 64.1561 65.495C64.0235 65.6773 63.9572 65.8845 63.9572 66.1165C63.9572 66.3106 64.0034 66.4775 64.0957 66.6172C64.1904 66.7545 64.3111 66.8693 64.4579 66.9616C64.6047 67.0516 64.7586 67.1262 64.9196 67.1854C65.0806 67.2422 65.2285 67.2884 65.3635 67.3239L66.1021 67.5227C66.2915 67.5724 66.5022 67.6411 66.7342 67.7287C66.9686 67.8163 67.1923 67.9358 67.4054 68.0874C67.6208 68.2365 67.7984 68.4283 67.938 68.6626C68.0777 68.897 68.1475 69.1847 68.1475 69.5256C68.1475 69.9186 68.0446 70.2737 67.8386 70.5909C67.635 70.9081 67.3367 71.1603 66.9437 71.3473C66.5531 71.5343 66.0784 71.6278 65.5197 71.6278C64.9989 71.6278 64.5479 71.5438 64.1667 71.3757C63.7879 71.2076 63.4896 70.9732 63.2718 70.6726C63.0564 70.3719 62.9345 70.0227 62.9061 69.625H63.8152C63.8388 69.8996 63.9312 70.1269 64.0922 70.3068C64.2555 70.4844 64.4615 70.617 64.71 70.7045C64.961 70.7898 65.2309 70.8324 65.5197 70.8324C65.8559 70.8324 66.1577 70.7779 66.4252 70.669C66.6928 70.5578 66.9047 70.4039 67.0609 70.2074C67.2172 70.0085 67.2953 69.7765 67.2953 69.5114C67.2953 69.2699 67.2278 69.0734 67.0929 68.9219C66.9579 68.7704 66.7804 68.6473 66.5602 68.5526C66.34 68.4579 66.1021 68.375 65.8464 68.304L64.9515 68.0483C64.3833 67.8849 63.9335 67.6518 63.6021 67.3487C63.2707 67.0457 63.1049 66.6491 63.1049 66.1591C63.1049 65.7519 63.215 65.3968 63.4352 65.0938C63.6577 64.7884 63.956 64.5516 64.3301 64.3835C64.7065 64.2131 65.1267 64.1278 65.5907 64.1278C66.0595 64.1278 66.4761 64.2119 66.8407 64.38C67.2053 64.5457 67.4941 64.773 67.7072 65.0618C67.9226 65.3506 68.0363 65.6785 68.0481 66.0455H67.1958Z" fill="#C1C6D5"/>
<path d="M47.192 99.5V84.956H46.76L44.504 90.284H41.288L44.72 82.7H50.264V99.5H47.192ZM53.7476 103.028V101.396H54.6836C55.4196 101.396 55.7876 101.028 55.7876 100.292V99.524H55.3796C54.7396 99.524 54.2036 99.332 53.7716 98.948C53.3556 98.564 53.1476 98.076 53.1476 97.484C53.1476 96.844 53.3556 96.324 53.7716 95.924C54.2036 95.524 54.7396 95.324 55.3796 95.324C56.0356 95.324 56.5716 95.532 56.9876 95.948C57.4036 96.348 57.6116 96.892 57.6116 97.58V100.34C57.6116 102.132 56.7156 103.028 54.9236 103.028H53.7476ZM59.9143 99.5V97.484C59.9143 96.316 60.1063 95.348 60.4902 94.58C60.8743 93.796 61.4263 93.156 62.1463 92.66C62.8823 92.148 63.7783 91.732 64.8343 91.412L66.4423 90.908C67.0343 90.716 67.5303 90.484 67.9303 90.212C68.3303 89.924 68.6343 89.58 68.8423 89.18C69.0663 88.78 69.1783 88.324 69.1783 87.812V87.716C69.1783 86.916 68.9063 86.284 68.3623 85.82C67.8183 85.34 67.0743 85.1 66.1303 85.1C65.2023 85.1 64.4503 85.356 63.8743 85.868C63.3143 86.364 63.0343 87.084 63.0343 88.028V88.46H59.9623V88.076C59.9623 86.86 60.2343 85.828 60.7783 84.98C61.3223 84.132 62.0583 83.484 62.9863 83.036C63.9303 82.588 64.9783 82.364 66.1303 82.364C67.2823 82.364 68.3223 82.588 69.2503 83.036C70.1783 83.468 70.9063 84.084 71.4343 84.884C71.9783 85.668 72.2503 86.596 72.2503 87.668V87.908C72.2503 88.98 72.0263 89.892 71.5782 90.644C71.1463 91.38 70.5543 91.988 69.8023 92.468C69.0503 92.932 68.1943 93.316 67.2343 93.62L65.6983 94.1C65.0103 94.308 64.4743 94.54 64.0903 94.796C63.7063 95.036 63.4343 95.308 63.2743 95.612C63.1303 95.9 63.0583 96.252 63.0583 96.668V96.764H72.1063V99.5H59.9143ZM81.6378 99.5V96.092H73.3818V92.54L79.1898 82.7H84.7098V93.356H87.4938V96.092H84.7098V99.5H81.6378ZM76.3098 93.356H81.6378V84.668H81.2058L76.3098 92.972V93.356ZM95.7916 99.836C93.8076 99.836 92.2156 99.292 91.0156 98.204C89.8156 97.1 89.2156 95.436 89.2156 93.212V88.988C89.2156 86.828 89.8156 85.188 91.0156 84.068C92.2156 82.932 93.8076 82.364 95.7916 82.364C97.7916 82.364 99.3836 82.932 100.568 84.068C101.768 85.188 102.368 86.828 102.368 88.988V93.212C102.368 95.436 101.768 97.1 100.568 98.204C99.3836 99.292 97.7916 99.836 95.7916 99.836ZM95.7916 97.1C96.9916 97.1 97.8716 96.772 98.4316 96.116C99.0076 95.46 99.2956 94.524 99.2956 93.308V88.844C99.2956 87.612 98.9756 86.684 98.3356 86.06C97.7116 85.42 96.8636 85.1 95.7916 85.1C94.6876 85.1 93.8236 85.428 93.1996 86.084C92.5916 86.74 92.2876 87.66 92.2876 88.844V93.308C92.2876 94.572 92.5756 95.524 93.1516 96.164C93.7436 96.788 94.6236 97.1 95.7916 97.1Z" fill="#ABC7FF"/>
<rect x="201.667" y="43.5" width="161.667" height="81" rx="12" fill="#2A2A2A"/>
<rect x="202.167" y="44" width="160.667" height="80" rx="11.5" stroke="#414753" stroke-opacity="0.1"/>
<path d="M219.548 71.5V64.2273H222.005C222.573 64.2273 223.04 64.3243 223.404 64.5185C223.769 64.7102 224.039 64.9742 224.214 65.3104C224.389 65.6465 224.477 66.0289 224.477 66.4574C224.477 66.8859 224.389 67.2659 224.214 67.5973C224.039 67.9287 223.77 68.1892 223.408 68.3786C223.046 68.5656 222.583 68.6591 222.019 68.6591H220.031V67.8636H221.991C222.379 67.8636 222.692 67.8068 222.928 67.6932C223.167 67.5795 223.34 67.4186 223.447 67.2102C223.556 66.9995 223.61 66.7486 223.61 66.4574C223.61 66.1662 223.556 65.9117 223.447 65.6939C223.338 65.4761 223.164 65.308 222.925 65.1896C222.686 65.0689 222.37 65.0085 221.977 65.0085H220.428V71.5H219.548ZM222.971 68.233L224.761 71.5H223.738L221.977 68.233H222.971ZM225.944 71.5V64.2273H230.333V65.0085H226.825V67.4659H230.106V68.2472H226.825V70.7188H230.39V71.5H225.944ZM232.219 64.2273L234.378 70.3494H234.463L236.622 64.2273H237.546L234.875 71.5H233.966L231.296 64.2273H232.219ZM238.679 71.5V64.2273H243.068V65.0085H239.559V67.4659H242.84V68.2472H239.559V70.7188H243.125V71.5H238.679ZM250.422 64.2273V71.5H249.57L245.607 65.7898H245.536V71.5H244.655V64.2273H245.507L249.485 69.9517H249.556V64.2273H250.422ZM256.957 64.2273H257.838V69.0426C257.838 69.5398 257.721 69.9837 257.486 70.3743C257.254 70.7625 256.926 71.0691 256.503 71.294C256.079 71.5166 255.582 71.6278 255.011 71.6278C254.441 71.6278 253.943 71.5166 253.52 71.294C253.096 71.0691 252.767 70.7625 252.532 70.3743C252.3 69.9837 252.184 69.5398 252.184 69.0426V64.2273H253.065V68.9716C253.065 69.3267 253.143 69.6428 253.299 69.9197C253.456 70.1944 253.678 70.411 253.967 70.5696C254.258 70.7259 254.606 70.804 255.011 70.804C255.416 70.804 255.764 70.7259 256.055 70.5696C256.346 70.411 256.569 70.1944 256.723 69.9197C256.879 69.6428 256.957 69.3267 256.957 68.9716V64.2273ZM259.597 71.5V64.2273H263.986V65.0085H260.477V67.4659H263.758V68.2472H260.477V70.7188H264.043V71.5H259.597Z" fill="#C1C6D5"/>
<path d="M226.083 99.836C224.787 99.836 223.643 99.604 222.651 99.14C221.659 98.676 220.883 98.012 220.323 97.148C219.763 96.284 219.483 95.244 219.483 94.028V93.356H222.603V94.028C222.603 95.036 222.915 95.796 223.539 96.308C224.163 96.804 225.011 97.052 226.083 97.052C227.171 97.052 227.979 96.836 228.507 96.404C229.051 95.972 229.323 95.42 229.323 94.748C229.323 94.284 229.195 93.908 228.939 93.62C228.683 93.332 228.307 93.1 227.811 92.924C227.315 92.732 226.707 92.556 225.987 92.396L225.435 92.276C224.283 92.02 223.291 91.7 222.459 91.316C221.643 90.916 221.011 90.396 220.563 89.756C220.131 89.116 219.915 88.284 219.915 87.26C219.915 86.236 220.155 85.364 220.635 84.644C221.131 83.908 221.819 83.348 222.699 82.964C223.595 82.564 224.643 82.364 225.843 82.364C227.043 82.364 228.107 82.572 229.035 82.988C229.979 83.388 230.715 83.996 231.243 84.812C231.787 85.612 232.059 86.62 232.059 87.836V88.556H228.939V87.836C228.939 87.196 228.811 86.684 228.555 86.3C228.315 85.9 227.963 85.612 227.499 85.436C227.035 85.244 226.483 85.148 225.843 85.148C224.883 85.148 224.171 85.332 223.707 85.7C223.259 86.052 223.035 86.54 223.035 87.164C223.035 87.58 223.139 87.932 223.347 88.22C223.571 88.508 223.899 88.748 224.331 88.94C224.763 89.132 225.315 89.3 225.987 89.444L226.539 89.564C227.739 89.82 228.779 90.148 229.659 90.548C230.539 90.948 231.219 91.476 231.699 92.132C232.195 92.788 232.443 93.628 232.443 94.652C232.443 95.676 232.179 96.58 231.651 97.364C231.139 98.132 230.403 98.74 229.443 99.188C228.499 99.62 227.379 99.836 226.083 99.836ZM224.619 102.284V79.916H227.499V102.284H224.619ZM240.518 99.836C239.254 99.836 238.134 99.612 237.158 99.164C236.182 98.716 235.414 98.076 234.854 97.244C234.31 96.396 234.038 95.396 234.038 94.244V93.812H237.11V94.148C237.11 95.044 237.422 95.764 238.046 96.308C238.67 96.836 239.494 97.1 240.518 97.1C241.558 97.1 242.358 96.852 242.918 96.356C243.494 95.86 243.782 95.236 243.782 94.484V94.244C243.782 93.732 243.654 93.316 243.398 92.996C243.142 92.676 242.798 92.444 242.366 92.3C241.934 92.14 241.446 92.06 240.902 92.06H237.542V88.7L242.966 85.82V85.436H234.47V82.7H246.374V86.78L241.31 89.468V89.852H242.198C242.95 89.852 243.678 90.004 244.382 90.308C245.102 90.612 245.694 91.084 246.158 91.724C246.622 92.348 246.854 93.164 246.854 94.172V94.46C246.854 95.548 246.59 96.5 246.062 97.316C245.534 98.116 244.79 98.74 243.83 99.188C242.886 99.62 241.782 99.836 240.518 99.836ZM248.831 99.5V97.484C248.831 96.316 249.023 95.348 249.407 94.58C249.791 93.796 250.343 93.156 251.063 92.66C251.799 92.148 252.695 91.732 253.751 91.412L255.359 90.908C255.951 90.716 256.447 90.484 256.847 90.212C257.247 89.924 257.551 89.58 257.759 89.18C257.983 88.78 258.095 88.324 258.095 87.812V87.716C258.095 86.916 257.823 86.284 257.279 85.82C256.735 85.34 255.991 85.1 255.047 85.1C254.119 85.1 253.367 85.356 252.791 85.868C252.231 86.364 251.951 87.084 251.951 88.028V88.46H248.879V88.076C248.879 86.86 249.151 85.828 249.695 84.98C250.239 84.132 250.975 83.484 251.903 83.036C252.847 82.588 253.895 82.364 255.047 82.364C256.199 82.364 257.239 82.588 258.167 83.036C259.095 83.468 259.823 84.084 260.351 84.884C260.895 85.668 261.167 86.596 261.167 87.668V87.908C261.167 88.98 260.943 89.892 260.495 90.644C260.063 91.38 259.471 91.988 258.719 92.468C257.967 92.932 257.111 93.316 256.151 93.62L254.615 94.1C253.927 94.308 253.391 94.54 253.007 94.796C252.623 95.036 252.351 95.308 252.191 95.612C252.047 95.9 251.975 96.252 251.975 96.668V96.764H261.023V99.5H248.831ZM269.849 99.836C267.865 99.836 266.273 99.292 265.073 98.204C263.873 97.1 263.273 95.436 263.273 93.212V88.988C263.273 86.828 263.873 85.188 265.073 84.068C266.273 82.932 267.865 82.364 269.849 82.364C271.849 82.364 273.441 82.932 274.625 84.068C275.825 85.188 276.425 86.828 276.425 88.988V93.212C276.425 95.436 275.825 97.1 274.625 98.204C273.441 99.292 271.849 99.836 269.849 99.836ZM269.849 97.1C271.049 97.1 271.929 96.772 272.489 96.116C273.065 95.46 273.353 94.524 273.353 93.308V88.844C273.353 87.612 273.033 86.684 272.393 86.06C271.769 85.42 270.921 85.1 269.849 85.1C268.745 85.1 267.881 85.428 267.257 86.084C266.649 86.74 266.345 87.66 266.345 88.844V93.308C266.345 94.572 266.633 95.524 267.209 96.164C267.801 96.788 268.681 97.1 269.849 97.1Z" fill="#FFB688"/>
<rect x="24" y="140.5" width="339.333" height="96" rx="12" fill="#2A2A2A"/>
<rect x="24.5" y="141" width="338.333" height="95" rx="11.5" stroke="#414753" stroke-opacity="0.1"/>
<g clip-path="url(#clip1_507_6162)">
<path opacity="0.3" d="M90.3359 209.167C117.891 205.722 138.558 198.833 152.336 188.5C166.114 178.167 186.78 176.444 214.336 183.333C241.891 190.222 255.669 185.055 255.669 167.833C255.669 150.611 269.447 152.333 297.003 173V219.5H90.3359V209.167Z" fill="url(#paint0_linear_507_6162)"/>
<path d="M90.3359 209.167C117.891 205.722 138.558 198.833 152.336 188.5C166.114 178.167 186.78 176.444 214.336 183.333C241.891 190.222 255.669 185.055 255.669 167.833C255.669 150.611 269.447 152.333 297.003 173" stroke="#ABC7FF" stroke-width="2.06667"/>
</g>
<path d="M304.79 160.5L304.09 159.8L307.79 156.075L309.79 158.075L312.39 155.5H311.09V154.5H314.09V157.5H313.09V156.2L309.79 159.5L307.79 157.5L304.79 160.5Z" fill="#60D4FB"/>
<path d="M321.884 159.905V154.893H323.123V159.905H321.884ZM320.001 157.985V156.811H325.005V157.985H320.001ZM329.552 153.725V161H328.066V155.038H328.018L326.349 156.217V154.852L327.958 153.725H329.552ZM330.812 161V159.928L333.39 157.509C333.611 157.293 333.798 157.099 333.951 156.926C334.103 156.753 334.219 156.582 334.299 156.415C334.379 156.247 334.419 156.065 334.419 155.868C334.419 155.651 334.37 155.465 334.271 155.308C334.173 155.152 334.039 155.031 333.87 154.947C333.701 154.862 333.507 154.82 333.289 154.82C333.063 154.82 332.866 154.866 332.698 154.957C332.53 155.048 332.399 155.178 332.307 155.348C332.215 155.517 332.169 155.72 332.169 155.956H330.747C330.747 155.483 330.855 155.072 331.07 154.723C331.286 154.375 331.585 154.105 331.969 153.914C332.353 153.723 332.797 153.627 333.3 153.627C333.814 153.627 334.263 153.719 334.646 153.902C335.03 154.085 335.329 154.338 335.542 154.661C335.755 154.984 335.862 155.355 335.862 155.774C335.862 156.047 335.809 156.314 335.703 156.578C335.597 156.841 335.409 157.135 335.138 157.462C334.867 157.788 334.482 158.18 333.984 158.637L332.883 159.723V159.776H335.96V161H330.812ZM339 157.198C338.657 157.198 338.368 157.125 338.132 156.978C337.896 156.832 337.717 156.637 337.596 156.393C337.474 156.149 337.414 155.883 337.414 155.595V155.214C337.414 154.922 337.476 154.655 337.599 154.412C337.723 154.169 337.904 153.974 338.141 153.827C338.378 153.681 338.664 153.607 339 153.607C339.348 153.607 339.639 153.681 339.873 153.827C340.108 153.974 340.285 154.169 340.406 154.412C340.527 154.655 340.587 154.922 340.587 155.214V155.595C340.587 155.886 340.526 156.154 340.404 156.397C340.281 156.64 340.102 156.834 339.867 156.98C339.632 157.125 339.343 157.198 339 157.198ZM339 156.303C339.219 156.303 339.369 156.229 339.449 156.082C339.528 155.935 339.568 155.772 339.568 155.595V155.214C339.568 155.038 339.53 154.874 339.453 154.722C339.377 154.571 339.226 154.495 339 154.495C338.786 154.495 338.637 154.572 338.555 154.726C338.473 154.88 338.432 155.043 338.432 155.214V155.595C338.432 155.772 338.473 155.935 338.556 156.082C338.638 156.229 338.786 156.303 339 156.303ZM344.167 161.128C343.825 161.128 343.535 161.055 343.299 160.909C343.063 160.762 342.884 160.567 342.763 160.323C342.642 160.079 342.581 159.813 342.581 159.525V159.144C342.581 158.853 342.643 158.585 342.767 158.342C342.891 158.099 343.071 157.904 343.308 157.757C343.545 157.611 343.831 157.538 344.167 157.538C344.515 157.538 344.806 157.611 345.042 157.757C345.277 157.904 345.455 158.099 345.574 158.342C345.694 158.585 345.754 158.853 345.754 159.144V159.525C345.754 159.817 345.693 160.084 345.571 160.327C345.449 160.57 345.27 160.764 345.034 160.91C344.799 161.056 344.51 161.128 344.167 161.128ZM344.167 160.233C344.386 160.233 344.536 160.159 344.616 160.012C344.696 159.865 344.736 159.703 344.736 159.525V159.144C344.736 158.968 344.697 158.804 344.621 158.653C344.544 158.501 344.393 158.426 344.167 158.426C343.953 158.426 343.805 158.503 343.723 158.657C343.641 158.811 343.6 158.973 343.6 159.144V159.525C343.6 159.703 343.641 159.865 343.723 160.012C343.805 160.159 343.953 160.233 344.167 160.233ZM338.553 161L343.553 153.725H344.566L339.566 161H338.553Z" fill="#60D4FB"/>
<g filter="url(#filter0_f_507_6162)">
<rect x="-40" y="160" width="160" height="160" rx="80" fill="#FFB688" fill-opacity="0.1"/>
</g>
</g>
<defs>
<filter id="filter0_f_507_6162" x="-120" y="80" width="320" height="320" filterUnits="userSpaceOnUse" color-interpolation-filters="sRGB">
<feFlood flood-opacity="0" result="BackgroundImageFix"/>
<feBlend mode="normal" in="SourceGraphic" in2="BackgroundImageFix" result="shape"/>
<feGaussianBlur stdDeviation="40" result="effect1_foregroundBlur_507_6162"/>
</filter>
<linearGradient id="paint0_linear_507_6162" x1="90.3359" y1="156.091" x2="90.3359" y2="219.5" gradientUnits="userSpaceOnUse">
<stop stop-color="#ABC7FF"/>
<stop offset="1" stop-color="#ABC7FF" stop-opacity="0"/>
</linearGradient>
<clipPath id="clip0_507_6162">
<rect width="387.333" height="280" fill="white"/>
</clipPath>
<clipPath id="clip1_507_6162">
<rect width="305.333" height="62" fill="white" transform="translate(41 157.5)"/>
</clipPath>
</defs>
</svg>
