<svg width="388" height="280" viewBox="0 0 388 280" fill="none" xmlns="http://www.w3.org/2000/svg">
<g clip-path="url(#clip0_507_6093)">
<rect width="387.333" height="280" fill="#0E0E0E"/>
<path opacity="0.4" d="M91.8662 140H142.766M202.148 140H253.048M312.431 140H329.397" stroke="#60D4FB" stroke-width="1.69665" stroke-dasharray="3.39 3.39"/>
<path d="M88.4727 140C88.4727 141.873 89.9931 143.394 91.866 143.394C93.7388 143.394 95.2593 141.873 95.2593 140C95.2593 138.127 93.7388 136.607 91.866 136.607C89.9931 136.607 88.4727 138.127 88.4727 140Z" fill="#60D4FB"/>
<path d="M139.372 140C139.372 141.873 140.893 143.394 142.765 143.394C144.638 143.394 146.159 141.873 146.159 140C146.159 138.127 144.638 136.607 142.765 136.607C140.893 136.607 139.372 138.127 139.372 140Z" fill="#60D4FB"/>
<path d="M198.755 140C198.755 141.873 200.275 143.394 202.148 143.394C204.021 143.394 205.541 141.873 205.541 140C205.541 138.127 204.021 136.607 202.148 136.607C200.275 136.607 198.755 138.127 198.755 140Z" fill="#60D4FB"/>
<path d="M249.654 140C249.654 141.873 251.175 143.394 253.048 143.394C254.92 143.394 256.441 141.873 256.441 140C256.441 138.127 254.92 136.607 253.048 136.607C251.175 136.607 249.654 138.127 249.654 140Z" fill="#60D4FB"/>
<rect x="24" y="115.5" width="96" height="49" rx="8" fill="#2A2A2A"/>
<rect x="24.5" y="116" width="95" height="48" rx="7.5" stroke="#414753" stroke-opacity="0.2"/>
<g filter="url(#filter0_dd_507_6093)">
<rect x="24" y="115.5" width="96" height="49" rx="8" fill="white" fill-opacity="0.01" shape-rendering="crispEdges"/>
</g>
<path d="M38.7614 132.227V139.5H37.8807V132.227H38.7614ZM47.2942 132.227V139.5H46.4419L42.4789 133.79H42.4078V139.5H41.5272V132.227H42.3794L46.3567 137.952H46.4277V132.227H47.2942ZM50.0565 139.5V132.227H52.5138C53.0844 132.227 53.5508 132.33 53.913 132.536C54.2776 132.74 54.5475 133.016 54.7227 133.364C54.8978 133.712 54.9854 134.1 54.9854 134.528C54.9854 134.957 54.8978 135.346 54.7227 135.697C54.5498 136.047 54.2823 136.326 53.9201 136.535C53.5579 136.741 53.0939 136.844 52.5281 136.844H50.7667V136.062H52.4996C52.8903 136.062 53.204 135.995 53.4407 135.86C53.6774 135.725 53.8491 135.543 53.9556 135.313C54.0645 135.081 54.119 134.82 54.119 134.528C54.119 134.237 54.0645 133.977 53.9556 133.747C53.8491 133.518 53.6763 133.338 53.4371 133.207C53.198 133.075 52.8808 133.009 52.4854 133.009H50.9371V139.5H50.0565ZM62.1768 132.227H63.0575V137.043C63.0575 137.54 62.9403 137.984 62.706 138.374C62.474 138.763 62.1461 139.069 61.7223 139.294C61.2985 139.517 60.8014 139.628 60.2308 139.628C59.6603 139.628 59.1631 139.517 58.7393 139.294C58.3156 139.069 57.9865 138.763 57.7521 138.374C57.5201 137.984 57.4041 137.54 57.4041 137.043V132.227H58.2848V136.972C58.2848 137.327 58.3629 137.643 58.5192 137.92C58.6754 138.194 58.898 138.411 59.1868 138.57C59.478 138.726 59.826 138.804 60.2308 138.804C60.6357 138.804 60.9837 138.726 61.2749 138.57C61.5661 138.411 61.7886 138.194 61.9425 137.92C62.0987 137.643 62.1768 137.327 62.1768 136.972V132.227ZM65.4185 133.009V132.227H70.873V133.009H68.5861V139.5H67.7054V133.009H65.4185Z" fill="#60D4FB"/>
<g clip-path="url(#clip1_507_6093)">
<rect x="37" y="147.5" width="70" height="4" rx="2" fill="#60D4FB" fill-opacity="0.2"/>
<rect x="37" y="147.5" width="46.66" height="4" fill="#60D4FB"/>
</g>
<rect x="123.256" y="111.95" width="140.8" height="56.1" rx="8" fill="#2A2A2A"/>
<rect x="123.756" y="112.45" width="139.8" height="55.1" rx="7.5" stroke="#ABC7FF" stroke-opacity="0.3"/>
<g filter="url(#filter1_d_507_6093)">
<rect x="123.256" y="111.95" width="154.88" height="61.71" rx="8" fill="white" fill-opacity="0.01" shape-rendering="crispEdges"/>
</g>
<path d="M144.962 132.85H143.993C143.936 132.571 143.836 132.327 143.692 132.116C143.552 131.905 143.38 131.728 143.177 131.584C142.976 131.439 142.754 131.329 142.509 131.256C142.264 131.183 142.009 131.147 141.743 131.147C141.259 131.147 140.82 131.269 140.427 131.514C140.036 131.759 139.725 132.12 139.493 132.596C139.264 133.073 139.149 133.657 139.149 134.35C139.149 135.043 139.264 135.627 139.493 136.104C139.725 136.58 140.036 136.941 140.427 137.186C140.82 137.431 141.259 137.553 141.743 137.553C142.009 137.553 142.264 137.517 142.509 137.444C142.754 137.371 142.976 137.263 143.177 137.12C143.38 136.974 143.552 136.795 143.692 136.584C143.836 136.371 143.936 136.126 143.993 135.85H144.962C144.889 136.259 144.756 136.625 144.563 136.948C144.371 137.271 144.131 137.545 143.845 137.772C143.558 137.996 143.237 138.166 142.88 138.284C142.526 138.401 142.147 138.459 141.743 138.459C141.061 138.459 140.454 138.293 139.923 137.959C139.392 137.626 138.974 137.152 138.669 136.538C138.364 135.923 138.212 135.194 138.212 134.35C138.212 133.506 138.364 132.777 138.669 132.163C138.974 131.548 139.392 131.074 139.923 130.741C140.454 130.407 141.061 130.241 141.743 130.241C142.147 130.241 142.526 130.299 142.88 130.416C143.237 130.534 143.558 130.705 143.845 130.932C144.131 131.156 144.371 131.429 144.563 131.752C144.756 132.073 144.889 132.439 144.962 132.85ZM154.377 134.35C154.377 135.194 154.225 135.923 153.92 136.538C153.616 137.152 153.198 137.626 152.666 137.959C152.135 138.293 151.528 138.459 150.846 138.459C150.164 138.459 149.557 138.293 149.026 137.959C148.495 137.626 148.077 137.152 147.772 136.538C147.467 135.923 147.315 135.194 147.315 134.35C147.315 133.506 147.467 132.777 147.772 132.163C148.077 131.548 148.495 131.074 149.026 130.741C149.557 130.407 150.164 130.241 150.846 130.241C151.528 130.241 152.135 130.407 152.666 130.741C153.198 131.074 153.616 131.548 153.92 132.163C154.225 132.777 154.377 133.506 154.377 134.35ZM153.44 134.35C153.44 133.657 153.324 133.073 153.092 132.596C152.863 132.12 152.552 131.759 152.159 131.514C151.768 131.269 151.33 131.147 150.846 131.147C150.362 131.147 149.923 131.269 149.53 131.514C149.139 131.759 148.828 132.12 148.596 132.596C148.367 133.073 148.252 133.657 148.252 134.35C148.252 135.043 148.367 135.627 148.596 136.104C148.828 136.58 149.139 136.941 149.53 137.186C149.923 137.431 150.362 137.553 150.846 137.553C151.33 137.553 151.768 137.431 152.159 137.186C152.552 136.941 152.863 136.58 153.092 136.104C153.324 135.627 153.44 135.043 153.44 134.35ZM163.45 130.35V138.35H162.513L158.153 132.069H158.075V138.35H157.106V130.35H158.044L162.419 136.647H162.497V130.35H163.45ZM166.051 131.209V130.35H172.051V131.209H169.535V138.35H168.567V131.209H166.051ZM174.646 138.35V130.35H179.474V131.209H175.615V133.913H179.224V134.772H175.615V137.491H179.537V138.35H174.646ZM188.664 130.35V138.35H187.727L183.367 132.069H183.289V138.35H182.32V130.35H183.258L187.633 136.647H187.711V130.35H188.664ZM191.265 131.209V130.35H197.265V131.209H194.749V138.35H193.781V131.209H191.265ZM204.382 138.35H203.366L206.304 130.35H207.304L210.241 138.35H209.226L206.835 131.616H206.773L204.382 138.35ZM204.757 135.225H208.851V136.084H204.757V135.225ZM213.556 130.35V138.35H212.588V130.35H213.556Z" fill="#ABC7FF"/>
<rect x="137.556" y="147.15" width="71.86" height="6.6" rx="3" fill="#ABC7FF" fill-opacity="0.2"/>
<rect x="213.815" y="147.15" width="35.94" height="6.6" rx="3" fill="#ABC7FF" fill-opacity="0.4"/>
<rect x="267.313" y="111.646" width="96" height="56.7078" rx="8" fill="#2A2A2A"/>
<rect x="267.813" y="112.146" width="95" height="55.7078" rx="7.5" stroke="#414753" stroke-opacity="0.2"/>
<g filter="url(#filter2_dd_507_6093)">
<rect x="267.313" y="111.646" width="96" height="57" rx="8" fill="white" fill-opacity="0.01" shape-rendering="crispEdges"/>
</g>
<path d="M281.194 135.646V128.373H283.652C284.222 128.373 284.688 128.476 285.051 128.682C285.415 128.886 285.685 129.162 285.86 129.51C286.036 129.858 286.123 130.246 286.123 130.674C286.123 131.103 286.036 131.492 285.86 131.843C285.688 132.193 285.42 132.472 285.058 132.681C284.696 132.887 284.232 132.99 283.666 132.99H281.904V132.208H283.637C284.028 132.208 284.342 132.141 284.578 132.006C284.815 131.871 284.987 131.689 285.093 131.459C285.202 131.227 285.257 130.966 285.257 130.674C285.257 130.383 285.202 130.123 285.093 129.893C284.987 129.664 284.814 129.484 284.575 129.353C284.336 129.221 284.018 129.155 283.623 129.155H282.075V135.646H281.194ZM293.315 128.373H294.195V133.189C294.195 133.686 294.078 134.13 293.844 134.52C293.612 134.909 293.284 135.215 292.86 135.44C292.436 135.663 291.939 135.774 291.369 135.774C290.798 135.774 290.301 135.663 289.877 135.44C289.453 135.215 289.124 134.909 288.89 134.52C288.658 134.13 288.542 133.686 288.542 133.189V128.373H289.422V133.118C289.422 133.473 289.501 133.789 289.657 134.066C289.813 134.34 290.036 134.557 290.324 134.716C290.616 134.872 290.964 134.95 291.369 134.95C291.773 134.95 292.121 134.872 292.413 134.716C292.704 134.557 292.926 134.34 293.08 134.066C293.236 133.789 293.315 133.473 293.315 133.118V128.373ZM296.954 135.646V128.373H299.497C300.003 128.373 300.421 128.461 300.75 128.636C301.079 128.809 301.324 129.042 301.485 129.336C301.646 129.627 301.727 129.95 301.727 130.305C301.727 130.618 301.671 130.876 301.56 131.079C301.451 131.283 301.306 131.444 301.127 131.562C300.949 131.681 300.756 131.768 300.548 131.825V131.896C300.77 131.91 300.994 131.988 301.219 132.13C301.444 132.272 301.632 132.476 301.783 132.741C301.935 133.006 302.011 133.331 302.011 133.714C302.011 134.079 301.928 134.407 301.762 134.698C301.596 134.989 301.335 135.22 300.977 135.39C300.62 135.561 300.155 135.646 299.582 135.646H296.954ZM297.835 134.865H299.582C300.157 134.865 300.565 134.753 300.807 134.531C301.051 134.306 301.173 134.034 301.173 133.714C301.173 133.468 301.11 133.241 300.984 133.032C300.859 132.822 300.68 132.654 300.448 132.528C300.216 132.4 299.942 132.336 299.624 132.336H297.835V134.865ZM297.835 131.569H299.468C299.733 131.569 299.972 131.517 300.185 131.413C300.401 131.309 300.571 131.162 300.697 130.973C300.825 130.783 300.889 130.561 300.889 130.305C300.889 129.985 300.777 129.714 300.555 129.492C300.332 129.267 299.979 129.155 299.497 129.155H297.835V131.569ZM304.458 135.646V128.373H305.339V134.865H308.719V135.646H304.458ZM311.964 128.373V135.646H311.083V128.373H311.964ZM318.707 130.191C318.664 129.832 318.491 129.552 318.188 129.353C317.885 129.155 317.513 129.055 317.073 129.055C316.751 129.055 316.469 129.107 316.228 129.211C315.989 129.316 315.802 129.459 315.667 129.641C315.534 129.823 315.468 130.03 315.468 130.262C315.468 130.457 315.514 130.624 315.606 130.763C315.701 130.9 315.822 131.015 315.969 131.108C316.115 131.198 316.269 131.272 316.43 131.331C316.591 131.388 316.739 131.434 316.874 131.47L317.613 131.669C317.802 131.718 318.013 131.787 318.245 131.875C318.479 131.962 318.703 132.082 318.916 132.233C319.132 132.383 319.309 132.574 319.449 132.809C319.588 133.043 319.658 133.331 319.658 133.672C319.658 134.065 319.555 134.42 319.349 134.737C319.146 135.054 318.847 135.306 318.454 135.493C318.064 135.68 317.589 135.774 317.03 135.774C316.51 135.774 316.059 135.69 315.677 135.522C315.299 135.354 315 135.119 314.783 134.819C314.567 134.518 314.445 134.169 314.417 133.771H315.326C315.35 134.046 315.442 134.273 315.603 134.453C315.766 134.63 315.972 134.763 316.221 134.851C316.472 134.936 316.742 134.978 317.03 134.978C317.367 134.978 317.668 134.924 317.936 134.815C318.204 134.704 318.415 134.55 318.572 134.353C318.728 134.155 318.806 133.923 318.806 133.657C318.806 133.416 318.739 133.219 318.604 133.068C318.469 132.916 318.291 132.793 318.071 132.699C317.851 132.604 317.613 132.521 317.357 132.45L316.462 132.194C315.894 132.031 315.444 131.798 315.113 131.495C314.781 131.192 314.616 130.795 314.616 130.305C314.616 129.898 314.726 129.543 314.946 129.24C315.168 128.934 315.467 128.698 315.841 128.53C316.217 128.359 316.637 128.274 317.101 128.274C317.57 128.274 317.987 128.358 318.351 128.526C318.716 128.692 319.005 128.919 319.218 129.208C319.433 129.497 319.547 129.824 319.559 130.191H318.707ZM322.106 135.646V128.373H322.987V131.612H326.865V128.373H327.745V135.646H326.865V132.393H322.987V135.646H322.106Z" fill="#FFB688"/>
<path d="M282.413 148.31L283.551 148.791C283.687 148.519 283.828 148.257 283.974 148.004C284.12 147.751 284.28 147.498 284.455 147.245L283.638 147.085L282.413 148.31ZM284.484 149.52L286.147 151.168C286.555 151.013 286.993 150.775 287.459 150.454C287.926 150.133 288.363 149.768 288.772 149.36C289.452 148.68 289.985 147.924 290.369 147.092C290.753 146.261 290.92 145.495 290.872 144.795C290.172 144.747 289.404 144.915 288.568 145.299C287.732 145.683 286.973 146.215 286.293 146.895C285.884 147.304 285.52 147.741 285.199 148.208C284.878 148.675 284.64 149.112 284.484 149.52ZM287.08 148.573C286.857 148.349 286.745 148.074 286.745 147.749C286.745 147.423 286.857 147.148 287.08 146.925C287.304 146.701 287.581 146.589 287.911 146.589C288.242 146.589 288.519 146.701 288.743 146.925C288.966 147.148 289.078 147.423 289.078 147.749C289.078 148.074 288.966 148.349 288.743 148.573C288.519 148.796 288.242 148.908 287.911 148.908C287.581 148.908 287.304 148.796 287.08 148.573ZM287.357 153.254L288.582 152.029L288.422 151.212C288.169 151.387 287.916 151.545 287.663 151.686C287.411 151.827 287.148 151.966 286.876 152.102L287.357 153.254ZM291.922 143.731C292.107 144.907 291.992 146.052 291.579 147.165C291.166 148.278 290.454 149.341 289.443 150.352L289.734 151.795C289.773 151.99 289.763 152.18 289.705 152.364C289.647 152.549 289.55 152.709 289.413 152.845L286.963 155.295L285.738 152.423L283.245 149.929L280.372 148.704L282.807 146.254C282.943 146.118 283.106 146.02 283.296 145.962C283.485 145.904 283.677 145.894 283.872 145.933L285.316 146.225C286.327 145.214 287.386 144.499 288.495 144.081C289.603 143.663 290.745 143.546 291.922 143.731ZM281.407 151.781C281.748 151.441 282.163 151.268 282.654 151.263C283.145 151.258 283.561 151.426 283.901 151.766C284.241 152.107 284.409 152.522 284.404 153.013C284.399 153.504 284.227 153.92 283.886 154.26C283.643 154.503 283.237 154.712 282.669 154.887C282.1 155.062 281.315 155.218 280.313 155.354C280.45 154.352 280.605 153.567 280.78 152.999C280.955 152.43 281.164 152.024 281.407 151.781ZM282.238 152.598C282.141 152.695 282.044 152.872 281.947 153.13C281.85 153.388 281.782 153.648 281.743 153.91C282.005 153.871 282.265 153.806 282.523 153.713C282.78 153.621 282.958 153.526 283.055 153.429C283.172 153.312 283.235 153.171 283.245 153.006C283.254 152.841 283.201 152.7 283.084 152.583C282.968 152.466 282.827 152.41 282.661 152.415C282.496 152.42 282.355 152.481 282.238 152.598Z" fill="#FFB688"/>
<g filter="url(#filter3_f_507_6093)">
<rect x="267.328" y="160" width="160" height="160" rx="80" fill="#ABC7FF" fill-opacity="0.1"/>
</g>
</g>
<defs>
<filter id="filter0_dd_507_6093" x="4" y="115.5" width="136" height="89" filterUnits="userSpaceOnUse" color-interpolation-filters="sRGB">
<feFlood flood-opacity="0" result="BackgroundImageFix"/>
<feColorMatrix in="SourceAlpha" type="matrix" values="0 0 0 0 0 0 0 0 0 0 0 0 0 0 0 0 0 0 127 0" result="hardAlpha"/>
<feMorphology radius="6" operator="erode" in="SourceAlpha" result="effect1_dropShadow_507_6093"/>
<feOffset dy="8"/>
<feGaussianBlur stdDeviation="5"/>
<feComposite in2="hardAlpha" operator="out"/>
<feColorMatrix type="matrix" values="0 0 0 0 0 0 0 0 0 0 0 0 0 0 0 0 0 0 0.1 0"/>
<feBlend mode="normal" in2="BackgroundImageFix" result="effect1_dropShadow_507_6093"/>
<feColorMatrix in="SourceAlpha" type="matrix" values="0 0 0 0 0 0 0 0 0 0 0 0 0 0 0 0 0 0 127 0" result="hardAlpha"/>
<feMorphology radius="5" operator="erode" in="SourceAlpha" result="effect2_dropShadow_507_6093"/>
<feOffset dy="20"/>
<feGaussianBlur stdDeviation="12.5"/>
<feComposite in2="hardAlpha" operator="out"/>
<feColorMatrix type="matrix" values="0 0 0 0 0 0 0 0 0 0 0 0 0 0 0 0 0 0 0.1 0"/>
<feBlend mode="normal" in2="effect1_dropShadow_507_6093" result="effect2_dropShadow_507_6093"/>
<feBlend mode="normal" in="SourceGraphic" in2="effect2_dropShadow_507_6093" result="shape"/>
</filter>
<filter id="filter1_d_507_6093" x="85.2559" y="98.9502" width="230.88" height="137.71" filterUnits="userSpaceOnUse" color-interpolation-filters="sRGB">
<feFlood flood-opacity="0" result="BackgroundImageFix"/>
<feColorMatrix in="SourceAlpha" type="matrix" values="0 0 0 0 0 0 0 0 0 0 0 0 0 0 0 0 0 0 127 0" result="hardAlpha"/>
<feMorphology radius="12" operator="erode" in="SourceAlpha" result="effect1_dropShadow_507_6093"/>
<feOffset dy="25"/>
<feGaussianBlur stdDeviation="25"/>
<feComposite in2="hardAlpha" operator="out"/>
<feColorMatrix type="matrix" values="0 0 0 0 0 0 0 0 0 0 0 0 0 0 0 0 0 0 0.25 0"/>
<feBlend mode="normal" in2="BackgroundImageFix" result="effect1_dropShadow_507_6093"/>
<feBlend mode="normal" in="SourceGraphic" in2="effect1_dropShadow_507_6093" result="shape"/>
</filter>
<filter id="filter2_dd_507_6093" x="247.313" y="111.646" width="136" height="97" filterUnits="userSpaceOnUse" color-interpolation-filters="sRGB">
<feFlood flood-opacity="0" result="BackgroundImageFix"/>
<feColorMatrix in="SourceAlpha" type="matrix" values="0 0 0 0 0 0 0 0 0 0 0 0 0 0 0 0 0 0 127 0" result="hardAlpha"/>
<feMorphology radius="6" operator="erode" in="SourceAlpha" result="effect1_dropShadow_507_6093"/>
<feOffset dy="8"/>
<feGaussianBlur stdDeviation="5"/>
<feComposite in2="hardAlpha" operator="out"/>
<feColorMatrix type="matrix" values="0 0 0 0 0 0 0 0 0 0 0 0 0 0 0 0 0 0 0.1 0"/>
<feBlend mode="normal" in2="BackgroundImageFix" result="effect1_dropShadow_507_6093"/>
<feColorMatrix in="SourceAlpha" type="matrix" values="0 0 0 0 0 0 0 0 0 0 0 0 0 0 0 0 0 0 127 0" result="hardAlpha"/>
<feMorphology radius="5" operator="erode" in="SourceAlpha" result="effect2_dropShadow_507_6093"/>
<feOffset dy="20"/>
<feGaussianBlur stdDeviation="12.5"/>
<feComposite in2="hardAlpha" operator="out"/>
<feColorMatrix type="matrix" values="0 0 0 0 0 0 0 0 0 0 0 0 0 0 0 0 0 0 0.1 0"/>
<feBlend mode="normal" in2="effect1_dropShadow_507_6093" result="effect2_dropShadow_507_6093"/>
<feBlend mode="normal" in="SourceGraphic" in2="effect2_dropShadow_507_6093" result="shape"/>
</filter>
<filter id="filter3_f_507_6093" x="187.328" y="80" width="320" height="320" filterUnits="userSpaceOnUse" color-interpolation-filters="sRGB">
<feFlood flood-opacity="0" result="BackgroundImageFix"/>
<feBlend mode="normal" in="SourceGraphic" in2="BackgroundImageFix" result="shape"/>
<feGaussianBlur stdDeviation="40" result="effect1_foregroundBlur_507_6093"/>
</filter>
<clipPath id="clip0_507_6093">
<rect width="387.333" height="280" fill="white"/>
</clipPath>
<clipPath id="clip1_507_6093">
<rect x="37" y="147.5" width="70" height="4" rx="2" fill="white"/>
</clipPath>
</defs>
</svg>
