<svg preserveAspectRatio="none" width="100%" height="100%" overflow="visible" style="display: block;" viewBox="0 0 905 909" fill="none" xmlns="http://www.w3.org/2000/svg">
<g id="Vector" filter="url(#filter0_i_0_8)">
<path d="M451.814 0.5C458.191 0.505086 464.434 1.10167 475.042 2.30078C511.697 6.44472 542.915 17.8274 571.829 37.6006L573.204 38.5488C575.817 40.3636 580.814 44.6633 588.284 51.5439C595.745 58.4158 605.651 67.8407 618.07 79.8848C642.908 103.973 677.791 138.53 723.26 184.082L856.884 317.948H731.339L637.897 224.236C612.159 198.424 587.307 173.793 568.002 154.902C548.711 136.025 534.931 122.852 531.355 119.985C506.78 100.277 482.928 91.7247 452.506 91.7246C431.532 91.7246 414.163 95.8378 394.969 105.396L393.105 106.338L378.043 114.066L377.974 114.102L377.918 114.157L112.965 379.499L112.91 379.554L112.875 379.622L106.028 392.851C104.143 396.493 102.428 399.976 101.184 402.653C100.562 403.991 100.055 405.132 99.7031 405.993C99.5274 406.423 99.3876 406.79 99.291 407.079C99.2428 407.224 99.2037 407.355 99.1758 407.469C99.15 407.574 99.126 407.695 99.126 407.809C99.126 408.061 99.2921 408.204 99.3535 408.249C99.427 408.303 99.5048 408.336 99.5566 408.354C99.6662 408.394 99.8018 408.424 99.9434 408.449C100.234 408.501 100.651 408.547 101.177 408.59C102.232 408.676 103.781 408.754 105.763 408.821C109.73 408.956 115.463 409.054 122.533 409.111C136.675 409.225 156.178 409.176 177.631 408.936L255.63 408.067L255.702 408.066L255.771 408.046L275.136 402.125C347.703 379.943 395.988 322.81 406.036 247.239V247.238L408.532 228.459H496.558L498.953 247.969C509.005 329.865 571.196 394.34 652.536 407.189C654.646 407.523 659.582 407.826 666.852 408.095C674.135 408.364 683.793 408.601 695.37 408.797C718.524 409.188 749.363 409.417 784.251 409.421L901.464 409.437L903.072 421.393C903.984 428.17 904.619 445.349 904.481 459.564L904.228 485.355L898.877 506.022C892.543 530.487 882.268 553.586 868.154 575.082L857.918 590.674L724.445 724.348L590.97 858.021L574.284 869.34C542.65 890.804 512.35 901.904 473.794 906.152L452.506 908.496L431.218 906.152C393.676 902.016 363.179 891.063 331.621 870.38L316.191 860.269L181.744 725.473L48.1025 591.483L110.266 590.923L173.406 590.351L275.59 692.171L377.919 794.138L377.974 794.192L378.043 794.228L393.104 801.992C413.003 812.246 430.814 816.641 452.506 816.641C474.157 816.641 491.964 812.257 511.905 802.027L526.968 794.299L527.037 794.264L527.093 794.208L792.046 528.866L792.101 528.812L792.136 528.743L798.982 515.515C800.868 511.872 802.583 508.389 803.827 505.712C804.449 504.374 804.956 503.233 805.308 502.372C805.483 501.942 805.623 501.575 805.72 501.286C805.768 501.142 805.807 501.011 805.835 500.897C805.861 500.792 805.885 500.67 805.885 500.557C805.885 500.304 805.718 500.162 805.657 500.116C805.584 500.062 805.506 500.03 805.454 500.011C805.345 499.971 805.209 499.941 805.067 499.916C804.776 499.865 804.359 499.818 803.834 499.775C802.778 499.689 801.23 499.611 799.248 499.544C795.281 499.409 789.547 499.311 782.478 499.254C768.336 499.14 748.832 499.189 727.38 499.43L649.381 500.298L649.31 500.299L649.24 500.319L629.875 506.225C556.576 528.575 505.268 590.587 498.297 665.278L496.831 680.983H408.223L406.811 666.622C399.268 589.978 349.327 529.124 275.138 506.167L255.772 500.176L255.701 500.153H255.627L129.354 499.416L3.51172 498.68L1.88086 486.846C0.954607 480.139 0.347036 463.018 0.53418 448.803L0.873047 423.008L6.34766 401.675C12.9443 375.967 26.8057 346.702 42.0508 326.288C43.864 323.86 49.3283 317.848 57.5752 309.125C65.8111 300.414 76.7977 289.026 89.6318 275.865C115.3 249.544 148.353 216.138 181.562 182.886C214.77 149.634 248.133 116.537 274.42 90.835C287.563 77.9841 298.937 66.9831 307.637 58.7363C316.349 50.4783 322.354 45.0068 324.778 43.1914C353.374 21.7804 393.317 5.90701 427.753 2.2627C438.916 1.08179 445.437 0.494923 451.814 0.5ZM452.506 378.387C452.321 378.387 452.169 378.473 452.094 378.52C451.999 378.578 451.902 378.655 451.807 378.738C451.614 378.907 451.383 379.144 451.122 379.433C450.599 380.013 449.921 380.845 449.138 381.86C447.57 383.894 445.56 386.693 443.484 389.77C438.665 396.913 428.422 408.337 417.57 419.203C406.719 430.069 395.31 440.325 388.176 445.15C385.103 447.228 382.307 449.241 380.276 450.812C379.262 451.596 378.431 452.275 377.852 452.799C377.563 453.06 377.326 453.291 377.158 453.483C377.075 453.579 376.999 453.677 376.94 453.771C376.894 453.847 376.808 453.998 376.808 454.183C376.808 454.367 376.894 454.518 376.94 454.594C376.999 454.689 377.075 454.786 377.158 454.882C377.326 455.074 377.563 455.306 377.852 455.566C378.431 456.091 379.262 456.77 380.276 457.554C382.307 459.124 385.103 461.137 388.176 463.215C395.31 468.04 406.719 478.296 417.57 489.162C428.422 500.028 438.665 511.452 443.484 518.596C445.56 521.672 447.57 524.471 449.138 526.505C449.921 527.52 450.599 528.352 451.122 528.933C451.383 529.222 451.614 529.459 451.807 529.627C451.902 529.71 451.999 529.787 452.094 529.846C452.169 529.892 452.321 529.979 452.506 529.979C452.69 529.978 452.842 529.892 452.917 529.846C453.012 529.787 453.109 529.71 453.204 529.627C453.397 529.459 453.628 529.222 453.889 528.933C454.412 528.352 455.09 527.52 455.873 526.505C457.441 524.471 459.451 521.672 461.526 518.596C466.346 511.452 476.589 500.028 487.44 489.162C498.292 478.296 509.7 468.04 516.835 463.215C519.908 461.137 522.704 459.124 524.734 457.554C525.749 456.77 526.579 456.091 527.159 455.566C527.448 455.306 527.684 455.074 527.853 454.882C527.936 454.786 528.013 454.689 528.071 454.594C528.118 454.518 528.203 454.367 528.203 454.183C528.203 453.998 528.118 453.847 528.071 453.771C528.013 453.677 527.936 453.579 527.853 453.483C527.684 453.291 527.448 453.06 527.159 452.799C526.579 452.275 525.749 451.596 524.734 450.812C522.704 449.241 519.907 447.228 516.835 445.15C509.7 440.325 498.292 430.069 487.44 419.203C476.589 408.337 466.346 396.913 461.526 389.77C459.451 386.693 457.441 383.894 455.873 381.86C455.09 380.845 454.412 380.013 453.889 379.433C453.628 379.144 453.396 378.907 453.204 378.738C453.109 378.655 453.012 378.578 452.917 378.52C452.86 378.485 452.761 378.428 452.637 378.401L452.506 378.387Z" stroke="url(#paint0_linear_0_8)"/>
</g>
<defs>
<filter id="filter0_i_0_8" x="0" y="-152.6" width="905" height="1061.6" filterUnits="userSpaceOnUse" color-interpolation-filters="sRGB">
<feFlood flood-opacity="0" result="BackgroundImageFix"/>
<feBlend mode="normal" in="SourceGraphic" in2="BackgroundImageFix" result="shape"/>
<feColorMatrix in="SourceAlpha" type="matrix" values="0 0 0 0 0 0 0 0 0 0 0 0 0 0 0 0 0 0 127 0" result="hardAlpha"/>
<feOffset dy="-216"/>
<feGaussianBlur stdDeviation="76.3"/>
<feComposite in2="hardAlpha" operator="arithmetic" k2="-1" k3="1"/>
<feColorMatrix type="matrix" values="0 0 0 0 0.168627 0 0 0 0 0.631373 0 0 0 0 1 0 0 0 1 0"/>
<feBlend mode="normal" in2="shape" result="effect1_innerShadow_0_8"/>
</filter>
<linearGradient id="paint0_linear_0_8" x1="452.5" y1="-3.12408e-08" x2="452.5" y2="909" gradientUnits="userSpaceOnUse">
<stop stop-color="#2864E4"/>
<stop offset="1" stop-color="#ECF2FF"/>
</linearGradient>
</defs>
</svg>
