<svg width="369" height="192" viewBox="0 0 369 192" fill="none" xmlns="http://www.w3.org/2000/svg">
<path d="M20.7294 27.9999C194.322 27.9999 168.754 163.25 334.271 163.25" stroke="white" stroke-width="2" stroke-linecap="round"/>
<g filter="url(#filter0_dd_507_6243)">
<path d="M27.7279 33.9999C30.9129 33.9999 33.4949 31.3136 33.4949 27.9999C33.4949 24.6862 30.9129 21.9999 27.7279 21.9999C24.5429 21.9999 21.9609 24.6862 21.9609 27.9999C21.9609 31.3136 24.5429 33.9999 27.7279 33.9999Z" fill="#7528FC"/>
<path d="M27.7281 34.9999C31.444 34.9999 34.4563 31.8659 34.4563 27.9999C34.4563 24.1339 31.444 20.9999 27.7281 20.9999C24.0123 20.9999 20.9999 24.1339 20.9999 27.9999C20.9999 31.8659 24.0123 34.9999 27.7281 34.9999Z" stroke="white" stroke-width="2"/>
</g>
<g filter="url(#filter1_dd_507_6243)">
<path d="M334.271 169.25C340.77 169.25 346.038 166.563 346.038 163.25C346.038 159.936 340.77 157.25 334.271 157.25C327.772 157.25 322.504 159.936 322.504 163.25C322.504 166.563 327.772 169.25 334.271 169.25Z" fill="#7528FC"/>
<path d="M334.272 170.25C341.854 170.25 348 167.116 348 163.25C348 159.384 341.854 156.25 334.272 156.25C326.69 156.25 320.544 159.384 320.544 163.25C320.544 167.116 326.69 170.25 334.272 170.25Z" stroke="white" stroke-width="2"/>
</g>
<defs>
<filter id="filter0_dd_507_6243" x="0" y="0" width="55.4559" height="55.9999" filterUnits="userSpaceOnUse" color-interpolation-filters="sRGB">
<feFlood flood-opacity="0" result="BackgroundImageFix"/>
<feColorMatrix in="SourceAlpha" type="matrix" values="0 0 0 0 0 0 0 0 0 0 0 0 0 0 0 0 0 0 127 0" result="hardAlpha"/>
<feOffset/>
<feGaussianBlur stdDeviation="2"/>
<feComposite in2="hardAlpha" operator="out"/>
<feColorMatrix type="matrix" values="0 0 0 0 0.458824 0 0 0 0 0.156863 0 0 0 0 0.988235 0 0 0 0.8 0"/>
<feBlend mode="normal" in2="BackgroundImageFix" result="effect1_dropShadow_507_6243"/>
<feColorMatrix in="SourceAlpha" type="matrix" values="0 0 0 0 0 0 0 0 0 0 0 0 0 0 0 0 0 0 127 0" result="hardAlpha"/>
<feOffset/>
<feGaussianBlur stdDeviation="10"/>
<feComposite in2="hardAlpha" operator="out"/>
<feColorMatrix type="matrix" values="0 0 0 0 0.458824 0 0 0 0 0.156863 0 0 0 0 0.988235 0 0 0 0.5 0"/>
<feBlend mode="normal" in2="effect1_dropShadow_507_6243" result="effect2_dropShadow_507_6243"/>
<feBlend mode="normal" in="SourceGraphic" in2="effect2_dropShadow_507_6243" result="shape"/>
</filter>
<filter id="filter1_dd_507_6243" x="299.544" y="135.25" width="69.4559" height="55.9999" filterUnits="userSpaceOnUse" color-interpolation-filters="sRGB">
<feFlood flood-opacity="0" result="BackgroundImageFix"/>
<feColorMatrix in="SourceAlpha" type="matrix" values="0 0 0 0 0 0 0 0 0 0 0 0 0 0 0 0 0 0 127 0" result="hardAlpha"/>
<feOffset/>
<feGaussianBlur stdDeviation="2"/>
<feComposite in2="hardAlpha" operator="out"/>
<feColorMatrix type="matrix" values="0 0 0 0 0.458824 0 0 0 0 0.156863 0 0 0 0 0.988235 0 0 0 0.8 0"/>
<feBlend mode="normal" in2="BackgroundImageFix" result="effect1_dropShadow_507_6243"/>
<feColorMatrix in="SourceAlpha" type="matrix" values="0 0 0 0 0 0 0 0 0 0 0 0 0 0 0 0 0 0 127 0" result="hardAlpha"/>
<feOffset/>
<feGaussianBlur stdDeviation="10"/>
<feComposite in2="hardAlpha" operator="out"/>
<feColorMatrix type="matrix" values="0 0 0 0 0.458824 0 0 0 0 0.156863 0 0 0 0 0.988235 0 0 0 0.5 0"/>
<feBlend mode="normal" in2="effect1_dropShadow_507_6243" result="effect2_dropShadow_507_6243"/>
<feBlend mode="normal" in="SourceGraphic" in2="effect2_dropShadow_507_6243" result="shape"/>
</filter>
</defs>
</svg>
