<svg preserveAspectRatio="none" width="100%" height="100%" overflow="visible" style="display: block;" viewBox="0 0 30 27" fill="none" xmlns="http://www.w3.org/2000/svg">
<path id="Icon" d="M19.5 27V22.5H13.5V7.5H10.5V12H0V0H10.5V4.5H19.5V0H30V12H19.5V7.5H16.5V19.5H19.5V15H30V27H19.5V27M3 3V3V9V9V3V3M22.5 18V18V24V24V18V18M22.5 3V3V9V9V3V3M22.5 9H27V3H22.5V9V9M22.5 24H27V18H22.5V24V24M3 9H7.5V3H3V9V9" fill="url(#paint0_linear_2007_4868)"/>
<defs>
<linearGradient id="paint0_linear_2007_4868" x1="15" y1="0" x2="15" y2="27" gradientUnits="userSpaceOnUse">
<stop stop-color="#2864E4"/>
<stop offset="1" stop-color="#ECF2FF"/>
</linearGradient>
</defs>
</svg>
