<svg preserveAspectRatio="none" width="100%" height="100%" overflow="visible" style="display: block;" viewBox="0 0 22.5 25" fill="none" xmlns="http://www.w3.org/2000/svg">
<g id="Container">
<path id="Icon" d="M10 25V18.75C10 17.5833 9.82292 16.7188 9.46875 16.1562C9.11458 15.5938 8.64583 15.0417 8.0625 14.5L9.84375 12.7188C10.0938 12.9479 10.3333 13.1927 10.5625 13.4531C10.7917 13.7135 11.0208 13.9896 11.25 14.2812C11.5417 13.8854 11.8385 13.5365 12.1406 13.2344C12.4427 12.9323 12.75 12.6354 13.0625 12.3438C13.8542 11.6146 14.5729 10.7708 15.2188 9.8125C15.8646 8.85417 16.2083 7.17708 16.25 4.78125L14.2812 6.75L12.5 5L17.5 0L22.5 5L20.75 6.75L18.75 4.78125C18.7083 7.76042 18.25 9.88021 17.375 11.1406C16.5 12.401 15.625 13.4271 14.75 14.2188C14.0833 14.8229 13.5417 15.4115 13.125 15.9844C12.7083 16.5573 12.5 17.4792 12.5 18.75V25H10V25M4 7.71875C3.91667 7.30208 3.85938 6.84375 3.82812 6.34375C3.79688 5.84375 3.77083 5.32292 3.75 4.78125L1.75 6.75L0 5L5 0L10 5L8.21875 6.75L6.25 4.8125C6.25 5.25 6.27083 5.66146 6.3125 6.04688C6.35417 6.43229 6.39583 6.79167 6.4375 7.125L4 7.71875V7.71875M6.6875 13.2188C6.27083 12.7812 5.86979 12.2708 5.48438 11.6875C5.09896 11.1042 4.76042 10.3854 4.46875 9.53125L6.875 8.9375C7.08333 9.5 7.32292 9.97917 7.59375 10.375C7.86458 10.7708 8.15625 11.125 8.46875 11.4375L6.6875 13.2188V13.2188" fill="var(--fill-0, #005AB6)"/>
</g>
</svg>
