<svg width="56" height="56" viewBox="0 0 56 56" fill="none" xmlns="http://www.w3.org/2000/svg">
<rect width="56" height="56" rx="16" fill="#ECEEF1"/>
<path d="M27.85 38L32.4 26H34.5L39.05 38H36.95L35.875 34.95H31.025L29.95 38H27.85ZM19.95 35L18.55 33.6L23.6 28.55C23.0166 27.9667 22.4875 27.3 22.0125 26.55C21.5375 25.8 21.1 24.95 20.7 24H22.8C23.1333 24.65 23.4666 25.2167 23.8 25.7C24.1333 26.1833 24.5333 26.6667 25 27.15C25.55 26.6 26.1208 25.8292 26.7125 24.8375C27.3041 23.8458 27.75 22.9 28.05 22H16.95V20H23.95V18H25.95V20H32.95V22H30.05C29.7 23.2 29.175 24.4333 28.475 25.7C27.775 26.9667 27.0833 27.9333 26.4 28.6L28.8 31.05L28.05 33.1L25 29.975L19.95 35ZM31.65 33.2H35.25L33.45 28.1L31.65 33.2Z" fill="url(#paint0_linear_506_3873)"/>
<defs>
<linearGradient id="paint0_linear_506_3873" x1="28" y1="18" x2="28" y2="38" gradientUnits="userSpaceOnUse">
<stop stop-color="#2864E4"/>
<stop offset="1" stop-color="#ECF2FF"/>
</linearGradient>
</defs>
</svg>
