<svg width="127" height="34" viewBox="0 0 127 34" fill="none" xmlns="http://www.w3.org/2000/svg">
<path fill-rule="evenodd" clip-rule="evenodd" d="M15.8239 0.0652822C14.5465 0.200404 13.0655 0.788696 12.005 1.58238C11.2788 2.12582 2.08396 11.328 1.54096 12.0547C0.97542 12.8116 0.461549 13.896 0.216913 14.8488L0.0138332 15.6399L0.00125471 16.5959C-0.0056712 17.1218 0.0167788 17.756 0.0512491 18.0055L0.113821 18.459L4.7857 18.4863L9.45751 18.5135L10.174 18.7351C12.9118 19.5819 14.7543 21.8259 15.0326 24.6527L15.0865 25.2004H16.7425H18.3985L18.4543 24.6029C18.7115 21.8486 20.6044 19.5616 23.3093 18.7373L24.0258 18.5189L26.9116 18.4868C28.4988 18.469 29.7974 18.4795 29.7974 18.51C29.7974 18.5405 29.6834 18.7855 29.5441 19.0546L29.2908 19.5438L24.3894 24.4498L19.4881 29.3557L18.9309 29.6415C18.1956 30.0185 17.5396 30.1799 16.7417 30.1799C15.9421 30.1799 15.2861 30.0181 14.5524 29.6403L13.9952 29.3531L10.2092 25.5825L6.42324 21.8119L4.07942 21.8331L1.73552 21.8542L6.71103 26.8401L11.6865 31.826L12.2591 32.201C13.4291 32.9675 14.5602 33.3735 15.952 33.5268L16.7417 33.6137L17.5313 33.5268C18.9607 33.3693 20.0846 32.9578 21.2576 32.1624L21.8764 31.7429L26.8159 26.7985L31.7553 21.8542L32.1352 21.276C32.6584 20.4794 33.0394 19.6234 33.2743 18.7167L33.4728 17.9503L33.4822 16.9943C33.4873 16.4685 33.4638 15.8321 33.4299 15.5801L33.3683 15.122L29.0155 15.1214C26.434 15.1211 24.4521 15.0876 24.1452 15.0391C21.144 14.5652 18.8494 12.1876 18.4785 9.16731L18.3879 8.42964H16.7432H15.0985L15.004 9.14015C14.6332 11.9275 12.8518 14.0343 10.174 14.8524L9.45751 15.0713L6.57171 15.1035C4.98449 15.1212 3.68592 15.1107 3.68592 15.0803C3.68592 15.0498 3.79992 14.8047 3.93923 14.5356L4.19254 14.0465L9.09386 9.14046L13.9952 4.23447L14.5524 3.94869C15.2877 3.57169 15.9437 3.41036 16.7417 3.41036C17.8629 3.41036 18.7413 3.72506 19.6474 4.45134C19.9101 4.66191 21.6832 6.39611 23.5876 8.30503L27.0502 11.7758H29.3988H31.7473L26.772 6.79407C23.4075 3.42509 21.6094 1.68213 21.2178 1.41029C20.1311 0.655645 18.9581 0.222712 17.5775 0.0667155C16.7927 -0.0219585 16.6498 -0.0220374 15.8239 0.0652822ZM16.4232 14.4235C16.0645 14.955 14.903 16.1174 14.372 16.4764C14.1451 16.6298 13.9595 16.7732 13.9595 16.7951C13.9595 16.817 14.1451 16.9604 14.372 17.1138C14.903 17.4728 16.0645 18.6352 16.4232 19.1667C16.5765 19.3937 16.7198 19.5795 16.7417 19.5795C16.7635 19.5795 16.9068 19.3937 17.0601 19.1667C17.4188 18.6352 18.5803 17.4728 19.1113 17.1138C19.3382 16.9604 19.5238 16.817 19.5238 16.7951C19.5238 16.7732 19.3382 16.6298 19.1113 16.4764C18.5803 16.1174 17.4188 14.955 17.0601 14.4235C16.9068 14.1965 16.7635 14.0108 16.7417 14.0108C16.7198 14.0108 16.5765 14.1965 16.4232 14.4235Z" fill="url(#paint0_linear_0_34)"/>
<path d="M127 7.19385V27.171H123.871V7.19385H127Z" fill="white"/>
<path d="M120.849 19.0184C120.849 19.5224 120.812 19.9633 120.739 20.3413H109.1C109.155 21.871 109.585 23.0049 110.39 23.7428C111.195 24.4807 112.193 24.8496 113.382 24.8496C114.425 24.8496 115.304 24.5887 116.017 24.0667C116.749 23.5448 117.198 22.8519 117.362 21.988H120.711C120.51 23.0319 120.089 23.9587 119.449 24.7686C118.808 25.5785 117.975 26.2174 116.951 26.6854C115.926 27.1353 114.782 27.3603 113.519 27.3603C112.055 27.3603 110.756 27.0543 109.621 26.4424C108.505 25.8305 107.627 24.9486 106.986 23.7968C106.346 22.6449 106.025 21.2861 106.025 19.7203C106.025 18.1726 106.346 16.8228 106.986 15.6709C107.627 14.5191 108.505 13.6372 109.621 13.0253C110.756 12.4134 112.055 12.1074 113.519 12.1074C115.002 12.1074 116.292 12.4134 117.39 13.0253C118.506 13.6192 119.357 14.4471 119.943 15.5089C120.547 16.5528 120.849 17.7226 120.849 19.0184ZM117.692 18.9375C117.728 17.9656 117.555 17.1557 117.17 16.5078C116.804 15.8419 116.292 15.356 115.633 15.05C114.993 14.7261 114.288 14.5641 113.519 14.5641C112.293 14.5641 111.268 14.933 110.445 15.6709C109.621 16.4088 109.173 17.4977 109.1 18.9375H117.692Z" fill="white"/>
<path d="M100.883 27.171L95.4479 20.557V27.171H92.3186V7.19385H95.4479V18.6402L100.828 12.2961H104.589L98.0008 19.6931L104.754 27.171H100.883Z" fill="white"/>
<path d="M89.2973 19.0184C89.2973 19.5224 89.2607 19.9633 89.1875 20.3413H77.5486C77.6035 21.871 78.0335 23.0049 78.8387 23.7428C79.6439 24.4807 80.6413 24.8496 81.8308 24.8496C82.8739 24.8496 83.7524 24.5887 84.4661 24.0667C85.1981 23.5448 85.6464 22.8519 85.8111 21.988H89.1601C88.9588 23.0319 88.5379 23.9587 87.8974 24.7686C87.2569 25.5785 86.4242 26.2174 85.3994 26.6854C84.3746 27.1353 83.2308 27.3603 81.9681 27.3603C80.5041 27.3603 79.2047 27.0543 78.0701 26.4424C76.9538 25.8305 76.0754 24.9486 75.4349 23.7968C74.7944 22.6449 74.4741 21.2861 74.4741 19.7203C74.4741 18.1726 74.7944 16.8228 75.4349 15.6709C76.0754 14.5191 76.9538 13.6372 78.0701 13.0253C79.2047 12.4134 80.5041 12.1074 81.9681 12.1074C83.4504 12.1074 84.7406 12.4134 85.8386 13.0253C86.9549 13.6192 87.8059 14.4471 88.3915 15.5089C88.9954 16.5528 89.2973 17.7226 89.2973 19.0184ZM86.1405 18.9375C86.1771 17.9656 86.0033 17.1557 85.619 16.5078C85.253 15.8419 84.7406 15.356 84.0818 15.05C83.4412 14.7261 82.7367 14.5641 81.9681 14.5641C80.742 14.5641 79.7171 14.933 78.8936 15.6709C78.0701 16.4088 77.6218 17.4977 77.5486 18.9375H86.1405Z" fill="white"/>
<path d="M65.7628 12.0532C67.5196 12.0532 68.9288 12.6111 69.9902 13.7269C71.0516 14.8428 71.5823 16.4355 71.5823 18.5052V27.171H68.453V18.8292C68.453 17.4974 68.1053 16.4715 67.4098 15.7516C66.7144 15.0137 65.7628 14.6448 64.555 14.6448C63.3106 14.6448 62.3132 15.0407 61.5629 15.8326C60.8126 16.6065 60.4374 17.7494 60.4374 19.2611V27.171H57.3081V7.19385H60.4374V15.5627C60.8401 14.4468 61.5172 13.5829 62.4688 12.971C63.4204 12.3591 64.5184 12.0532 65.7628 12.0532Z" fill="white"/>
<path d="M54.1755 22.0961C54.1755 23.032 53.9467 23.9049 53.4892 24.7148C53.0317 25.5066 52.3363 26.1455 51.403 26.6315C50.4697 27.1174 49.3259 27.3604 47.9717 27.3604C46.6541 27.3604 45.4737 27.1354 44.4306 26.6855C43.3875 26.2175 42.5548 25.5696 41.9326 24.7417C41.3104 23.9139 40.9535 22.96 40.862 21.8802H44.211C44.3025 22.708 44.6593 23.4189 45.2815 24.0128C45.9221 24.6068 46.773 24.9037 47.8344 24.9037C48.786 24.9037 49.5181 24.6518 50.0305 24.1478C50.5612 23.6439 50.8265 22.996 50.8265 22.2041C50.8265 21.5202 50.6344 20.9623 50.2501 20.5303C49.8658 20.0804 49.39 19.7295 48.8226 19.4775C48.2553 19.2255 47.4776 18.9376 46.4894 18.6136C45.2815 18.2357 44.2933 17.8577 43.5247 17.4798C42.7744 17.1018 42.1339 16.5529 41.6032 15.833C41.0725 15.1131 40.8071 14.1682 40.8071 12.9984C40.8071 11.9726 41.0633 11.0727 41.5757 10.2988C42.0881 9.52491 42.8202 8.93099 43.7718 8.51705C44.7234 8.08511 45.8214 7.86914 47.0658 7.86914C49.0422 7.86914 50.6069 8.33707 51.7598 9.27294C52.9311 10.2088 53.599 11.4326 53.7637 12.9444H50.3873C50.2592 12.2245 49.9115 11.6126 49.3442 11.1087C48.7952 10.5868 48.0357 10.3258 47.0658 10.3258C46.1874 10.3258 45.4828 10.5508 44.9521 11.0007C44.4214 11.4326 44.1561 12.0625 44.1561 12.8904C44.1561 13.5383 44.3391 14.0783 44.7051 14.5102C45.0711 14.9241 45.5286 15.2571 46.0776 15.5091C46.6449 15.743 47.4135 16.022 48.3834 16.3459C49.6096 16.7239 50.6069 17.1108 51.3755 17.5068C52.1624 17.8847 52.8212 18.4426 53.352 19.1805C53.901 19.9184 54.1755 20.8903 54.1755 22.0961Z" fill="white"/>
<defs>
<linearGradient id="paint0_linear_0_34" x1="16.7415" y1="0" x2="16.7415" y2="33.6137" gradientUnits="userSpaceOnUse">
<stop stop-color="#2864E4"/>
<stop offset="1" stop-color="#ECF2FF"/>
</linearGradient>
</defs>
</svg>
