<svg width="127" height="34" viewBox="0 0 127 34" fill="none" xmlns="http://www.w3.org/2000/svg">
<path fill-rule="evenodd" clip-rule="evenodd" d="M15.8239 0.0652822C14.5465 0.200404 13.0655 0.788696 12.005 1.58238C11.2788 2.12582 2.08396 11.328 1.54096 12.0547C0.97542 12.8116 0.461549 13.896 0.216913 14.8488L0.0138332 15.6399L0.00125471 16.5959C-0.0056712 17.1218 0.0167788 17.756 0.0512491 18.0055L0.113821 18.459L4.7857 18.4863L9.45751 18.5135L10.174 18.7351C12.9118 19.5819 14.7543 21.8259 15.0326 24.6527L15.0865 25.2004H16.7425H18.3985L18.4543 24.6029C18.7115 21.8486 20.6044 19.5616 23.3093 18.7373L24.0258 18.5189L26.9116 18.4868C28.4988 18.469 29.7974 18.4795 29.7974 18.51C29.7974 18.5405 29.6834 18.7855 29.5441 19.0546L29.2908 19.5438L24.3894 24.4498L19.4881 29.3557L18.9309 29.6415C18.1956 30.0185 17.5396 30.1799 16.7417 30.1799C15.9421 30.1799 15.2861 30.0181 14.5524 29.6403L13.9952 29.3531L10.2092 25.5825L6.42324 21.8119L4.07942 21.8331L1.73552 21.8542L6.71103 26.8401L11.6865 31.826L12.2591 32.201C13.4291 32.9675 14.5602 33.3735 15.952 33.5268L16.7417 33.6137L17.5313 33.5268C18.9607 33.3693 20.0846 32.9578 21.2576 32.1624L21.8764 31.7429L26.8159 26.7985L31.7553 21.8542L32.1352 21.276C32.6584 20.4794 33.0394 19.6234 33.2743 18.7167L33.4728 17.9503L33.4822 16.9943C33.4873 16.4685 33.4638 15.8321 33.4299 15.5801L33.3683 15.122L29.0155 15.1214C26.434 15.1211 24.4521 15.0876 24.1452 15.0391C21.144 14.5652 18.8494 12.1876 18.4785 9.16731L18.3879 8.42964H16.7432H15.0985L15.004 9.14015C14.6332 11.9275 12.8518 14.0343 10.174 14.8524L9.45751 15.0713L6.57171 15.1035C4.98449 15.1212 3.68592 15.1107 3.68592 15.0803C3.68592 15.0498 3.79992 14.8047 3.93923 14.5356L4.19254 14.0465L9.09386 9.14046L13.9952 4.23447L14.5524 3.94869C15.2877 3.57169 15.9437 3.41036 16.7417 3.41036C17.8629 3.41036 18.7413 3.72506 19.6474 4.45134C19.9101 4.66191 21.6832 6.39611 23.5876 8.30503L27.0502 11.7758H29.3988H31.7473L26.772 6.79407C23.4075 3.42509 21.6094 1.68213 21.2178 1.41029C20.1311 0.655645 18.9581 0.222712 17.5775 0.0667155C16.7927 -0.0219585 16.6498 -0.0220374 15.8239 0.0652822ZM16.4232 14.4235C16.0645 14.955 14.903 16.1174 14.372 16.4764C14.1451 16.6298 13.9595 16.7732 13.9595 16.7951C13.9595 16.817 14.1451 16.9604 14.372 17.1138C14.903 17.4728 16.0645 18.6352 16.4232 19.1667C16.5765 19.3937 16.7198 19.5795 16.7417 19.5795C16.7635 19.5795 16.9068 19.3937 17.0601 19.1667C17.4188 18.6352 18.5803 17.4728 19.1113 17.1138C19.3382 16.9604 19.5238 16.817 19.5238 16.7951C19.5238 16.7732 19.3382 16.6298 19.1113 16.4764C18.5803 16.1174 17.4188 14.955 17.0601 14.4235C16.9068 14.1965 16.7635 14.0108 16.7417 14.0108C16.7198 14.0108 16.5765 14.1965 16.4232 14.4235Z" fill="url(#paint0_linear_500_21996)"/>
<path d="M127 7.19366V27.1708H123.871V7.19366H127Z" fill="white"/>
<path d="M120.849 19.018C120.849 19.522 120.812 19.9629 120.739 20.3409H109.1C109.155 21.8706 109.585 23.0045 110.39 23.7424C111.195 24.4803 112.193 24.8492 113.382 24.8492C114.425 24.8492 115.304 24.5883 116.017 24.0663C116.749 23.5444 117.198 22.8515 117.362 21.9876H120.711C120.51 23.0315 120.089 23.9583 119.449 24.7682C118.808 25.5781 117.975 26.217 116.951 26.685C115.926 27.1349 114.782 27.3599 113.519 27.3599C112.055 27.3599 110.756 27.0539 109.621 26.442C108.505 25.8301 107.627 24.9482 106.986 23.7964C106.346 22.6445 106.025 21.2857 106.025 19.7199C106.025 18.1722 106.346 16.8224 106.986 15.6705C107.627 14.5187 108.505 13.6368 109.621 13.0249C110.756 12.413 112.055 12.107 113.519 12.107C115.002 12.107 116.292 12.413 117.39 13.0249C118.506 13.6188 119.357 14.4467 119.943 15.5085C120.547 16.5524 120.849 17.7222 120.849 19.018ZM117.692 18.9371C117.728 17.9652 117.555 17.1553 117.17 16.5074C116.804 15.8415 116.292 15.3556 115.633 15.0496C114.993 14.7257 114.288 14.5637 113.519 14.5637C112.293 14.5637 111.268 14.9326 110.445 15.6705C109.621 16.4084 109.173 17.4973 109.1 18.9371H117.692Z" fill="white"/>
<path d="M100.883 27.1708L95.4479 20.5568V27.1708H92.3186V7.19366H95.4479V18.64L100.828 12.2959H104.589L98.0008 19.6929L104.754 27.1708H100.883Z" fill="white"/>
<path d="M89.2973 19.018C89.2973 19.522 89.2607 19.9629 89.1875 20.3409H77.5486C77.6035 21.8706 78.0335 23.0045 78.8387 23.7424C79.6439 24.4803 80.6413 24.8492 81.8308 24.8492C82.8739 24.8492 83.7524 24.5883 84.4661 24.0663C85.1981 23.5444 85.6464 22.8515 85.8111 21.9876H89.1601C88.9588 23.0315 88.5379 23.9583 87.8974 24.7682C87.2569 25.5781 86.4242 26.217 85.3994 26.685C84.3746 27.1349 83.2308 27.3599 81.9681 27.3599C80.5041 27.3599 79.2047 27.0539 78.0701 26.442C76.9538 25.8301 76.0754 24.9482 75.4349 23.7964C74.7944 22.6445 74.4741 21.2857 74.4741 19.7199C74.4741 18.1722 74.7944 16.8224 75.4349 15.6705C76.0754 14.5187 76.9538 13.6368 78.0701 13.0249C79.2047 12.413 80.5041 12.107 81.9681 12.107C83.4504 12.107 84.7406 12.413 85.8386 13.0249C86.9549 13.6188 87.8059 14.4467 88.3915 15.5085C88.9954 16.5524 89.2973 17.7222 89.2973 19.018ZM86.1405 18.9371C86.1771 17.9652 86.0033 17.1553 85.619 16.5074C85.253 15.8415 84.7406 15.3556 84.0818 15.0496C83.4412 14.7257 82.7367 14.5637 81.9681 14.5637C80.742 14.5637 79.7171 14.9326 78.8936 15.6705C78.0701 16.4084 77.6218 17.4973 77.5486 18.9371H86.1405Z" fill="white"/>
<path d="M65.7628 12.053C67.5196 12.053 68.9288 12.6109 69.9902 13.7267C71.0516 14.8426 71.5823 16.4354 71.5823 18.5051V27.1708H68.453V18.829C68.453 17.4972 68.1053 16.4713 67.4098 15.7515C66.7144 15.0136 65.7628 14.6446 64.555 14.6446C63.3106 14.6446 62.3132 15.0406 61.5629 15.8324C60.8126 16.6063 60.4374 17.7492 60.4374 19.261V27.1708H57.3081V7.19366H60.4374V15.5625C60.8401 14.4466 61.5172 13.5828 62.4688 12.9708C63.4204 12.3589 64.5184 12.053 65.7628 12.053Z" fill="white"/>
<path d="M54.1755 22.0957C54.1755 23.0316 53.9467 23.9044 53.4892 24.7143C53.0317 25.5062 52.3363 26.1451 51.403 26.6311C50.4697 27.117 49.3259 27.3599 47.9717 27.3599C46.6541 27.3599 45.4737 27.135 44.4306 26.685C43.3875 26.2171 42.5548 25.5692 41.9326 24.7413C41.3104 23.9134 40.9535 22.9596 40.862 21.8797H44.211C44.3025 22.7076 44.6593 23.4185 45.2815 24.0124C45.9221 24.6063 46.773 24.9033 47.8344 24.9033C48.786 24.9033 49.5181 24.6513 50.0305 24.1474C50.5612 23.6435 50.8265 22.9956 50.8265 22.2037C50.8265 21.5198 50.6344 20.9619 50.2501 20.5299C49.8658 20.08 49.39 19.729 48.8226 19.4771C48.2553 19.2251 47.4776 18.9371 46.4894 18.6132C45.2815 18.2352 44.2933 17.8573 43.5247 17.4793C42.7744 17.1014 42.1339 16.5525 41.6032 15.8326C41.0725 15.1127 40.8071 14.1678 40.8071 12.998C40.8071 11.9721 41.0633 11.0723 41.5757 10.2984C42.0881 9.52448 42.8202 8.93056 43.7718 8.51662C44.7234 8.08468 45.8214 7.86871 47.0658 7.86871C49.0422 7.86871 50.6069 8.33665 51.7598 9.27251C52.9311 10.2084 53.599 11.4322 53.7637 12.944H50.3873C50.2592 12.2241 49.9115 11.6122 49.3442 11.1083C48.7952 10.5863 48.0357 10.3254 47.0658 10.3254C46.1874 10.3254 45.4828 10.5503 44.9521 11.0003C44.4214 11.4322 44.1561 12.0621 44.1561 12.89C44.1561 13.5379 44.3391 14.0778 44.7051 14.5098C45.0711 14.9237 45.5286 15.2567 46.0776 15.5086C46.6449 15.7426 47.4135 16.0216 48.3834 16.3455C49.6096 16.7235 50.6069 17.1104 51.3755 17.5063C52.1624 17.8843 52.8212 18.4422 53.352 19.1801C53.901 19.918 54.1755 20.8899 54.1755 22.0957Z" fill="white"/>
<defs>
<linearGradient id="paint0_linear_500_21996" x1="16.7415" y1="0" x2="16.7415" y2="33.6137" gradientUnits="userSpaceOnUse">
<stop stop-color="#2864E4"/>
<stop offset="1" stop-color="#ECF2FF"/>
</linearGradient>
</defs>
</svg>
