<svg preserveAspectRatio="none" width="100%" height="100%" overflow="visible" style="display: block;" viewBox="0 0 25 25" fill="none" xmlns="http://www.w3.org/2000/svg">
<g id="Container">
<path id="Icon" d="M10 17.5C12.0833 17.5 13.8542 16.7708 15.3125 15.3125C16.7708 13.8542 17.5 12.0833 17.5 10C17.5 7.91667 16.7708 6.14583 15.3125 4.6875C13.8542 3.22917 12.0833 2.5 10 2.5C7.91667 2.5 6.14583 3.22917 4.6875 4.6875C3.22917 6.14583 2.5 7.91667 2.5 10C2.5 12.0833 3.22917 13.8542 4.6875 15.3125C6.14583 16.7708 7.91667 17.5 10 17.5V17.5M8.75 13.75V5H11.25V13.75H8.75V13.75M4.375 13.75V7.5H6.875V13.75H4.375V13.75M13.125 13.75V8.75H15.625V13.75H13.125V13.75M23.25 25L16.1562 17.9062C15.3021 18.5729 14.3542 19.0885 13.3125 19.4531C12.2708 19.8177 11.1667 20 10 20C7.20833 20 4.84375 19.0312 2.90625 17.0938C0.96875 15.1562 0 12.7917 0 10C0 7.20833 0.96875 4.84375 2.90625 2.90625C4.84375 0.96875 7.20833 0 10 0C12.7917 0 15.1562 0.96875 17.0938 2.90625C19.0312 4.84375 20 7.20833 20 10C20 11.1667 19.8177 12.2708 19.4531 13.3125C19.0885 14.3542 18.5729 15.3021 17.9062 16.1562L25 23.25L23.25 25V25" fill="url(#paint0_linear_0_12)"/>
</g>
<defs>
<linearGradient id="paint0_linear_0_12" x1="12.5" y1="0" x2="12.5" y2="25" gradientUnits="userSpaceOnUse">
<stop stop-color="#2864E4"/>
<stop offset="1" stop-color="#ECF2FF"/>
</linearGradient>
</defs>
</svg>
