<svg preserveAspectRatio="none" width="100%" height="100%" overflow="visible" style="display: block;" viewBox="0 0 27.125 23.75" fill="none" xmlns="http://www.w3.org/2000/svg">
<g id="Container">
<path id="Icon" d="M12.5 20H2.5C1.8125 20 1.22396 19.7552 0.734375 19.2656C0.244792 18.776 0 18.1875 0 17.5V2.5C0 1.8125 0.244792 1.22396 0.734375 0.734375C1.22396 0.244792 1.8125 0 2.5 0H22.5C23.1875 0 23.776 0.244792 24.2656 0.734375C24.7552 1.22396 25 1.8125 25 2.5V8.75H22.5V2.5V2.5V2.5H2.5V2.5V2.5V17.5V17.5V17.5H12.5V20V20M9.375 15.625V4.375L18.125 10L9.375 15.625V15.625M19.8125 23.75L19.4375 21.875C19.1875 21.7708 18.9531 21.6615 18.7344 21.5469C18.5156 21.4323 18.2917 21.2917 18.0625 21.125L16.25 21.6875L15 19.5625L16.4375 18.3125C16.3958 18.0208 16.375 17.75 16.375 17.5C16.375 17.25 16.3958 16.9792 16.4375 16.6875L15 15.4375L16.25 13.3125L18.0625 13.875C18.2917 13.7083 18.5156 13.5677 18.7344 13.4531C18.9531 13.3385 19.1875 13.2292 19.4375 13.125L19.8125 11.25H22.3125L22.6875 13.125C22.9375 13.2292 23.1719 13.3438 23.3906 13.4688C23.6094 13.5938 23.8333 13.75 24.0625 13.9375L25.875 13.3125L27.125 15.5L25.6875 16.75C25.7292 17 25.75 17.2604 25.75 17.5312C25.75 17.8021 25.7292 18.0625 25.6875 18.3125L27.125 19.5625L25.875 21.6875L24.0625 21.125C23.8333 21.2917 23.6094 21.4323 23.3906 21.5469C23.1719 21.6615 22.9375 21.7708 22.6875 21.875L22.3125 23.75H19.8125V23.75M21.0625 20C21.75 20 22.3385 19.7552 22.8281 19.2656C23.3177 18.776 23.5625 18.1875 23.5625 17.5C23.5625 16.8125 23.3177 16.224 22.8281 15.7344C22.3385 15.2448 21.75 15 21.0625 15C20.375 15 19.7865 15.2448 19.2969 15.7344C18.8073 16.224 18.5625 16.8125 18.5625 17.5C18.5625 18.1875 18.8073 18.776 19.2969 19.2656C19.7865 19.7552 20.375 20 21.0625 20V20" fill="url(#paint0_linear_0_4)"/>
</g>
<defs>
<linearGradient id="paint0_linear_0_4" x1="13.5625" y1="0" x2="13.5625" y2="23.75" gradientUnits="userSpaceOnUse">
<stop stop-color="#2864E4"/>
<stop offset="1" stop-color="#ECF2FF"/>
</linearGradient>
</defs>
</svg>
