<svg preserveAspectRatio="none" width="100%" height="100%" overflow="visible" style="display: block;" viewBox="0 0 25 20" fill="none" xmlns="http://www.w3.org/2000/svg">
<g id="Container">
<path id="Icon" d="M20 11.25V8.75H25V11.25H20V11.25M21.5 20L17.5 17L19 15L23 18L21.5 20V20M19 5L17.5 3L21.5 0L23 2L19 5V5M3.75 18.75V13.75H2.5C1.8125 13.75 1.22396 13.5052 0.734375 13.0156C0.244792 12.526 0 11.9375 0 11.25V8.75C0 8.0625 0.244792 7.47396 0.734375 6.98438C1.22396 6.49479 1.8125 6.25 2.5 6.25H7.5L13.75 2.5V17.5L7.5 13.75H6.25V18.75H3.75V18.75M11.25 13.0625V6.9375L8.1875 8.75H2.5V8.75V8.75V11.25V11.25V11.25H8.1875L11.25 13.0625V13.0625M15 14.1875V5.8125C15.5625 6.3125 16.0156 6.92188 16.3594 7.64062C16.7031 8.35938 16.875 9.14583 16.875 10C16.875 10.8542 16.7031 11.6406 16.3594 12.3594C16.0156 13.0781 15.5625 13.6875 15 14.1875V14.1875M6.875 10V10V10V10V10V10V10V10V10V10V10V10" fill="url(#paint0_linear_0_8)"/>
</g>
<defs>
<linearGradient id="paint0_linear_0_8" x1="12.5" y1="0" x2="12.5" y2="20" gradientUnits="userSpaceOnUse">
<stop stop-color="#2864E4"/>
<stop offset="1" stop-color="#ECF2FF"/>
</linearGradient>
</defs>
</svg>
