<svg preserveAspectRatio="none" width="100%" height="100%" overflow="visible" style="display: block;" viewBox="0 0 23.75 22.5" fill="none" xmlns="http://www.w3.org/2000/svg">
<g id="Container">
<path id="Icon" d="M1.25 22.5V17.1875L17.7188 0.75C17.9688 0.5 18.25 0.3125 18.5625 0.1875C18.875 0.0625 19.1875 0 19.5 0C19.8333 0 20.151 0.0625 20.4531 0.1875C20.7552 0.3125 21.0208 0.5 21.25 0.75L23 2.5C23.25 2.72917 23.4375 2.99479 23.5625 3.29688C23.6875 3.59896 23.75 3.91667 23.75 4.25C23.75 4.5625 23.6875 4.875 23.5625 5.1875C23.4375 5.5 23.25 5.78125 23 6.03125L6.5625 22.5H1.25V22.5M3.75 20H5.5L17.7812 7.75L16.9062 6.84375L16 5.96875L3.75 18.25V20V20M21.25 4.28125V4.28125L19.4688 2.5V2.5L21.25 4.28125V4.28125M16.9062 6.84375L16 5.96875V5.96875L17.7812 7.75V7.75L16.9062 6.84375V6.84375M13.75 22.5C15.2917 22.5 16.7188 22.1146 18.0312 21.3438C19.3438 20.5729 20 19.5 20 18.125C20 17.375 19.8021 16.7292 19.4062 16.1875C19.0104 15.6458 18.4792 15.1771 17.8125 14.7812L15.9688 16.625C16.4479 16.8333 16.8229 17.0625 17.0938 17.3125C17.3646 17.5625 17.5 17.8333 17.5 18.125C17.5 18.6042 17.1198 19.0365 16.3594 19.4219C15.599 19.8073 14.7292 20 13.75 20C13.3958 20 13.099 20.1198 12.8594 20.3594C12.6198 20.599 12.5 20.8958 12.5 21.25C12.5 21.6042 12.6198 21.901 12.8594 22.1406C13.099 22.3802 13.3958 22.5 13.75 22.5V22.5M1.96875 12.9375L3.84375 11.0625C3.42708 10.8958 3.09896 10.724 2.85938 10.5469C2.61979 10.3698 2.5 10.1875 2.5 10C2.5 9.75 2.6875 9.5 3.0625 9.25C3.4375 9 4.22917 8.61458 5.4375 8.09375C7.27083 7.30208 8.48958 6.58333 9.09375 5.9375C9.69792 5.29167 10 4.5625 10 3.75C10 2.60417 9.54167 1.69271 8.625 1.01562C7.70833 0.338542 6.5 0 5 0C4.0625 0 3.22396 0.166667 2.48438 0.5C1.74479 0.833333 1.17708 1.23958 0.78125 1.71875C0.552083 1.98958 0.458333 2.29167 0.5 2.625C0.541667 2.95833 0.697917 3.22917 0.96875 3.4375C1.23958 3.66667 1.54167 3.76042 1.875 3.71875C2.20833 3.67708 2.48958 3.54167 2.71875 3.3125C3.01042 3.02083 3.33333 2.8125 3.6875 2.6875C4.04167 2.5625 4.47917 2.5 5 2.5C5.85417 2.5 6.48438 2.625 6.89062 2.875C7.29688 3.125 7.5 3.41667 7.5 3.75C7.5 4.04167 7.31771 4.30729 6.95312 4.54688C6.58854 4.78646 5.75 5.20833 4.4375 5.8125C2.77083 6.54167 1.61458 7.20312 0.96875 7.79688C0.322917 8.39062 0 9.125 0 10C0 10.6667 0.177083 11.2344 0.53125 11.7031C0.885417 12.1719 1.36458 12.5833 1.96875 12.9375V12.9375" fill="url(#paint0_linear_0_14)"/>
</g>
<defs>
<linearGradient id="paint0_linear_0_14" x1="11.875" y1="0" x2="11.875" y2="22.5" gradientUnits="userSpaceOnUse">
<stop stop-color="#2864E4"/>
<stop offset="1" stop-color="#ECF2FF"/>
</linearGradient>
</defs>
</svg>
