<svg preserveAspectRatio="none" width="100%" height="100%" overflow="visible" style="display: block;" viewBox="0 0 15 14.25" fill="none" xmlns="http://www.w3.org/2000/svg">
<g id="Container">
<path id="Icon" d="M5.1375 11.1187L7.5 9.69375L9.8625 11.1375L9.24375 8.4375L11.325 6.6375L8.5875 6.39375L7.5 3.84375L6.4125 6.375L3.675 6.61875L5.75625 8.4375L5.1375 11.1187V11.1187M2.86875 14.25L4.0875 8.98125L0 5.4375L5.4 4.96875L7.5 0L9.6 4.96875L15 5.4375L10.9125 8.98125L12.1313 14.25L7.5 11.4563L2.86875 14.25V14.25M7.5 7.6875V7.6875V7.6875V7.6875V7.6875V7.6875V7.6875V7.6875V7.6875V7.6875V7.6875V7.6875" fill="url(#paint0_linear_0_6)"/>
</g>
<defs>
<linearGradient id="paint0_linear_0_6" x1="7.5" y1="0" x2="7.5" y2="14.25" gradientUnits="userSpaceOnUse">
<stop stop-color="#2864E4"/>
<stop offset="1" stop-color="#ECF2FF"/>
</linearGradient>
</defs>
</svg>
