<svg width="30" height="27" viewBox="0 0 30 27" fill="none" xmlns="http://www.w3.org/2000/svg">
<path d="M19.5 27V22.5H13.5V7.5H10.5V12H0V0H10.5V4.5H19.5V0H30V12H19.5V7.5H16.5V19.5H19.5V15H30V27H19.5ZM3 3V9V3ZM22.5 18V24V18ZM22.5 3V9V3ZM22.5 9H27V3H22.5V9ZM22.5 24H27V18H22.5V24ZM3 9H7.5V3H3V9Z" fill="url(#paint0_linear_500_22059)"/>
<defs>
<linearGradient id="paint0_linear_500_22059" x1="15" y1="0" x2="15" y2="27" gradientUnits="userSpaceOnUse">
<stop stop-color="#2864E4"/>
<stop offset="1" stop-color="#ECF2FF"/>
</linearGradient>
</defs>
</svg>
