<svg width="236" height="160" viewBox="0 0 236 160" fill="none" xmlns="http://www.w3.org/2000/svg">
<rect width="235.5" height="160" rx="12" fill="url(#paint0_linear_500_22441)"/>
<path d="M105.75 103C104.083 103 102.667 102.417 101.5 101.25C100.333 100.083 99.75 98.6667 99.75 97C99.75 95.3333 100.333 93.9167 101.5 92.75C102.667 91.5833 104.083 91 105.75 91C106.217 91 106.65 91.05 107.05 91.15C107.45 91.25 107.833 91.3833 108.2 91.55L111.05 88C110.117 86.9667 109.467 85.8 109.1 84.5C108.733 83.2 108.65 81.9 108.85 80.6L104.8 79.25C104.233 80.0833 103.517 80.75 102.65 81.25C101.783 81.75 100.817 82 99.75 82C98.0833 82 96.6667 81.4167 95.5 80.25C94.3333 79.0833 93.75 77.6667 93.75 76C93.75 74.3333 94.3333 72.9167 95.5 71.75C96.6667 70.5833 98.0833 70 99.75 70C101.417 70 102.833 70.5833 104 71.75C105.167 72.9167 105.75 74.3333 105.75 76C105.75 76.0667 105.75 76.1333 105.75 76.2C105.75 76.2667 105.75 76.3333 105.75 76.4L109.8 77.8C110.467 76.6 111.358 75.5833 112.475 74.75C113.592 73.9167 114.85 73.3833 116.25 73.15V68.8C114.95 68.4333 113.875 67.725 113.025 66.675C112.175 65.625 111.75 64.4 111.75 63C111.75 61.3333 112.333 59.9167 113.5 58.75C114.667 57.5833 116.083 57 117.75 57C119.417 57 120.833 57.5833 122 58.75C123.167 59.9167 123.75 61.3333 123.75 63C123.75 64.4 123.317 65.625 122.45 66.675C121.583 67.725 120.517 68.4333 119.25 68.8V73.15C120.65 73.3833 121.908 73.9167 123.025 74.75C124.142 75.5833 125.033 76.6 125.7 77.8L129.75 76.4C129.75 76.3333 129.75 76.2667 129.75 76.2C129.75 76.1333 129.75 76.0667 129.75 76C129.75 74.3333 130.333 72.9167 131.5 71.75C132.667 70.5833 134.083 70 135.75 70C137.417 70 138.833 70.5833 140 71.75C141.167 72.9167 141.75 74.3333 141.75 76C141.75 77.6667 141.167 79.0833 140 80.25C138.833 81.4167 137.417 82 135.75 82C134.683 82 133.708 81.75 132.825 81.25C131.942 80.75 131.233 80.0833 130.7 79.25L126.65 80.6C126.85 81.9 126.767 83.1917 126.4 84.475C126.033 85.7583 125.383 86.9333 124.45 88L127.3 91.5C127.667 91.3333 128.05 91.2083 128.45 91.125C128.85 91.0417 129.283 91 129.75 91C131.417 91 132.833 91.5833 134 92.75C135.167 93.9167 135.75 95.3333 135.75 97C135.75 98.6667 135.167 100.083 134 101.25C132.833 102.417 131.417 103 129.75 103C128.083 103 126.667 102.417 125.5 101.25C124.333 100.083 123.75 98.6667 123.75 97C123.75 96.3333 123.858 95.6917 124.075 95.075C124.292 94.4583 124.583 93.9 124.95 93.4L122.1 89.85C120.733 90.6167 119.275 91 117.725 91C116.175 91 114.717 90.6167 113.35 89.85L110.55 93.4C110.917 93.9 111.208 94.4583 111.425 95.075C111.642 95.6917 111.75 96.3333 111.75 97C111.75 98.6667 111.167 100.083 110 101.25C108.833 102.417 107.417 103 105.75 103ZM99.75 78C100.317 78 100.792 77.8083 101.175 77.425C101.558 77.0417 101.75 76.5667 101.75 76C101.75 75.4333 101.558 74.9583 101.175 74.575C100.792 74.1917 100.317 74 99.75 74C99.1833 74 98.7083 74.1917 98.325 74.575C97.9417 74.9583 97.75 75.4333 97.75 76C97.75 76.5667 97.9417 77.0417 98.325 77.425C98.7083 77.8083 99.1833 78 99.75 78ZM105.75 99C106.317 99 106.792 98.8083 107.175 98.425C107.558 98.0417 107.75 97.5667 107.75 97C107.75 96.4333 107.558 95.9583 107.175 95.575C106.792 95.1917 106.317 95 105.75 95C105.183 95 104.708 95.1917 104.325 95.575C103.942 95.9583 103.75 96.4333 103.75 97C103.75 97.5667 103.942 98.0417 104.325 98.425C104.708 98.8083 105.183 99 105.75 99ZM117.75 65C118.317 65 118.792 64.8083 119.175 64.425C119.558 64.0417 119.75 63.5667 119.75 63C119.75 62.4333 119.558 61.9583 119.175 61.575C118.792 61.1917 118.317 61 117.75 61C117.183 61 116.708 61.1917 116.325 61.575C115.942 61.9583 115.75 62.4333 115.75 63C115.75 63.5667 115.942 64.0417 116.325 64.425C116.708 64.8083 117.183 65 117.75 65ZM117.75 87C119.15 87 120.333 86.5167 121.3 85.55C122.267 84.5833 122.75 83.4 122.75 82C122.75 80.6 122.267 79.4167 121.3 78.45C120.333 77.4833 119.15 77 117.75 77C116.35 77 115.167 77.4833 114.2 78.45C113.233 79.4167 112.75 80.6 112.75 82C112.75 83.4 113.233 84.5833 114.2 85.55C115.167 86.5167 116.35 87 117.75 87ZM129.75 99C130.317 99 130.792 98.8083 131.175 98.425C131.558 98.0417 131.75 97.5667 131.75 97C131.75 96.4333 131.558 95.9583 131.175 95.575C130.792 95.1917 130.317 95 129.75 95C129.183 95 128.708 95.1917 128.325 95.575C127.942 95.9583 127.75 96.4333 127.75 97C127.75 97.5667 127.942 98.0417 128.325 98.425C128.708 98.8083 129.183 99 129.75 99ZM135.75 78C136.317 78 136.792 77.8083 137.175 77.425C137.558 77.0417 137.75 76.5667 137.75 76C137.75 75.4333 137.558 74.9583 137.175 74.575C136.792 74.1917 136.317 74 135.75 74C135.183 74 134.708 74.1917 134.325 74.575C133.942 74.9583 133.75 75.4333 133.75 76C133.75 76.5667 133.942 77.0417 134.325 77.425C134.708 77.8083 135.183 78 135.75 78Z" fill="#BA9EFF"/>
<defs>
<linearGradient id="paint0_linear_500_22441" x1="44.4462" y1="-30.197" x2="193.195" y2="188.742" gradientUnits="userSpaceOnUse">
<stop stop-color="#BA9EFF" stop-opacity="0.2"/>
<stop offset="1" stop-color="#BA9EFF" stop-opacity="0"/>
</linearGradient>
</defs>
</svg>
